<svg width="34" height="35" viewBox="0 0 34 35" fill="none" xmlns="http://www.w3.org/2000/svg">
<circle cx="16.7999" cy="17.6051" r="16.7999" fill="url(#paint0_linear_1_1563)"/>
<path d="M16.8 0.805176C7.5215 0.805176 0 8.32668 0 17.6052C0 26.8837 7.5215 34.4052 16.8 34.4052C26.0785 34.4052 33.6 26.8837 33.6 17.6052C33.6 8.32668 26.0785 0.805176 16.8 0.805176ZM20.7795 12.4147H18.2543C17.955 12.4147 17.6225 12.8084 17.6225 13.3317V15.1552H20.7813L20.3035 17.7557H17.6225V25.5624H14.6423V17.7557H11.9385V15.1552H14.6423V13.6257C14.6423 11.4312 16.1648 9.64793 18.2543 9.64793H20.7795V12.4147Z" fill="white"/>
<defs>
<linearGradient id="paint0_linear_1_1563" x1="18.5368" y1="-4.71936" x2="15.597" y2="40.4973" gradientUnits="userSpaceOnUse">
<stop stop-color="#2161D5"/>
<stop offset="1" stop-color="#5C92F3"/>
</linearGradient>
</defs>
</svg>
