<svg width="34" height="35" viewBox="0 0 34 35" fill="none" xmlns="http://www.w3.org/2000/svg">
<circle cx="17.0001" cy="17.6051" r="16.7999" fill="url(#paint0_linear_1_1569)"/>
<path d="M22.25 17.6052C22.25 18.9976 21.6968 20.3329 20.7123 21.3175C19.7277 22.3021 18.3923 22.8552 17 22.8552C15.6076 22.8552 14.2722 22.3021 13.2876 21.3175C12.3031 20.3329 11.75 18.9976 11.75 17.6052C11.75 17.3059 11.7815 17.0137 11.8357 16.7302H9.99995V23.7249C9.99995 24.2114 10.3937 24.6052 10.8802 24.6052H23.1215C23.3546 24.6047 23.5781 24.5118 23.7428 24.3467C23.9075 24.1817 24 23.9581 24 23.7249V16.7302H22.1642C22.2185 17.0137 22.25 17.3059 22.25 17.6052V17.6052ZM17 21.1052C17.4597 21.1051 17.9149 21.0144 18.3396 20.8384C18.7643 20.6623 19.1502 20.4043 19.4752 20.0792C19.8002 19.754 20.058 19.368 20.2338 18.9432C20.4096 18.5184 20.5001 18.0632 20.5 17.6034C20.4998 17.1437 20.4092 16.6885 20.2331 16.2638C20.0571 15.8391 19.7991 15.4532 19.474 15.1282C19.1488 14.8032 18.7628 14.5454 18.338 14.3696C17.9132 14.1938 17.4579 14.1033 16.9982 14.1034C16.0697 14.1037 15.1793 14.4727 14.523 15.1294C13.8666 15.7861 13.498 16.6767 13.4982 17.6052C13.4984 18.5337 13.8675 19.424 14.5242 20.0804C15.1809 20.7368 16.0715 21.1054 17 21.1052V21.1052ZM21.2 13.9302H23.2982C23.4376 13.9302 23.5713 13.8749 23.6701 13.7765C23.7688 13.6781 23.8245 13.5446 23.825 13.4052V11.3069C23.825 11.1672 23.7695 11.0332 23.6707 10.9345C23.5719 10.8357 23.4379 10.7802 23.2982 10.7802H21.2C21.0603 10.7802 20.9263 10.8357 20.8275 10.9345C20.7287 11.0332 20.6732 11.1672 20.6732 11.3069V13.4052C20.675 13.6939 20.9112 13.9302 21.2 13.9302V13.9302ZM17 0.805176C12.5443 0.805176 8.27117 2.57517 5.12056 5.72578C1.96995 8.87639 0.199951 13.1495 0.199951 17.6052C0.199951 22.0608 1.96995 26.334 5.12056 29.4846C8.27117 32.6352 12.5443 34.4052 17 34.4052C19.2062 34.4052 21.3908 33.9706 23.429 33.1264C25.4673 32.2821 27.3193 31.0446 28.8793 29.4846C30.4394 27.9245 31.6769 26.0725 32.5211 24.0343C33.3654 21.996 33.8 19.8114 33.8 17.6052C33.8 15.399 33.3654 13.2144 32.5211 11.1761C31.6769 9.13783 30.4394 7.28581 28.8793 5.72578C27.3193 4.16576 25.4673 2.92828 23.429 2.084C21.3908 1.23972 19.2062 0.805176 17 0.805176V0.805176ZM25.75 24.4109C25.75 25.4802 24.875 26.3552 23.8057 26.3552H10.1942C9.12495 26.3552 8.24995 25.4802 8.24995 24.4109V10.7994C8.24995 9.73018 9.12495 8.85518 10.1942 8.85518H23.8057C24.875 8.85518 25.75 9.73018 25.75 10.7994V24.4109V24.4109Z" fill="white"/>
<defs>
<linearGradient id="paint0_linear_1_1569" x1="18.737" y1="-4.71936" x2="15.7972" y2="40.4973" gradientUnits="userSpaceOnUse">
<stop stop-color="#2161D5"/>
<stop offset="1" stop-color="#5C92F3"/>
</linearGradient>
</defs>
</svg>
