<svg width="35" height="35" viewBox="0 0 35 35" fill="none" xmlns="http://www.w3.org/2000/svg">
<circle cx="17.4" cy="17.6051" r="16.7999" fill="url(#paint0_linear_1_1566)"/>
<path d="M17.4001 0.805176C8.1216 0.805176 0.600098 8.32668 0.600098 17.6052C0.600098 26.8837 8.1216 34.4052 17.4001 34.4052C26.6786 34.4052 34.2001 26.8837 34.2001 17.6052C34.2001 8.32668 26.6786 0.805176 17.4001 0.805176ZM24.2339 14.5672C24.2409 14.7107 24.2426 14.8542 24.2426 14.9942C24.2426 19.3692 20.9159 24.4109 14.8294 24.4109C13.0309 24.4139 11.2698 23.8974 9.75785 22.9234C10.0151 22.9549 10.2793 22.9672 10.5471 22.9672C12.0976 22.9672 13.5239 22.4404 14.6561 21.5514C13.9661 21.5379 13.2975 21.3094 12.7435 20.8978C12.1896 20.4863 11.7778 19.9121 11.5656 19.2554C12.0611 19.3497 12.5716 19.3299 13.0583 19.1977C12.3094 19.0462 11.6359 18.6404 11.1521 18.0491C10.6682 17.4577 10.4038 16.7173 10.4036 15.9532V15.9129C10.8498 16.1597 11.3608 16.3102 11.9033 16.3277C11.2012 15.8603 10.7042 15.1424 10.5139 14.3207C10.3236 13.499 10.4544 12.6356 10.8796 11.9072C11.7108 12.9292 12.7473 13.7652 13.9221 14.3612C15.0969 14.9572 16.3837 15.2998 17.6994 15.3669C17.5321 14.657 17.6041 13.9116 17.9041 13.2468C18.2042 12.582 18.7154 12.0349 19.3585 11.6906C20.0015 11.3464 20.7403 11.2242 21.4599 11.3431C22.1796 11.462 22.8397 11.8153 23.3379 12.3482C24.0784 12.2017 24.7886 11.93 25.4379 11.5449C25.191 12.3117 24.6743 12.9627 23.9836 13.3772C24.6396 13.2982 25.2801 13.1218 25.8841 12.8539C25.4405 13.5187 24.8816 14.0989 24.2339 14.5672V14.5672Z" fill="white"/>
<defs>
<linearGradient id="paint0_linear_1_1566" x1="19.1369" y1="-4.71936" x2="16.1971" y2="40.4973" gradientUnits="userSpaceOnUse">
<stop stop-color="#2161D5"/>
<stop offset="1" stop-color="#5C92F3"/>
</linearGradient>
</defs>
</svg>
