<svg width="557" height="329" viewBox="0 0 557 329" fill="none" xmlns="http://www.w3.org/2000/svg">
<rect width="557" height="329" rx="7" fill="white"/>
<path d="M24.256 33.14C23.752 33.14 23.2713 33.0793 22.814 32.958C22.366 32.8273 21.9647 32.6313 21.61 32.37C21.2553 32.1087 20.9707 31.7867 20.756 31.404C20.5507 31.0213 20.4433 30.5687 20.434 30.046C20.434 29.962 20.462 29.892 20.518 29.836C20.574 29.7707 20.644 29.738 20.728 29.738H22.058C22.1793 29.738 22.268 29.7707 22.324 29.836C22.3893 29.9013 22.4407 29.99 22.478 30.102C22.5247 30.438 22.632 30.7133 22.8 30.928C22.968 31.1333 23.178 31.2873 23.43 31.39C23.6913 31.4833 23.9807 31.53 24.298 31.53C24.886 31.53 25.334 31.3387 25.642 30.956C25.9593 30.5733 26.118 30.0413 26.118 29.36V24.852H21.372C21.2693 24.852 21.1853 24.8193 21.12 24.754C21.064 24.6887 21.036 24.6093 21.036 24.516V23.536C21.036 23.4427 21.064 23.3633 21.12 23.298C21.1853 23.2327 21.2693 23.2 21.372 23.2H27.77C27.8727 23.2 27.9567 23.2327 28.022 23.298C28.0873 23.3633 28.12 23.4473 28.12 23.55V29.416C28.12 30.1907 27.9567 30.858 27.63 31.418C27.3127 31.978 26.8647 32.4073 26.286 32.706C25.7167 32.9953 25.04 33.14 24.256 33.14ZM32.7178 33.14C32.1485 33.14 31.6538 33.014 31.2338 32.762C30.8231 32.5007 30.5058 32.1367 30.2818 31.67C30.0578 31.194 29.9458 30.634 29.9458 29.99V26.056C29.9458 25.9627 29.9785 25.8833 30.0438 25.818C30.1091 25.7527 30.1885 25.72 30.2818 25.72H31.5138C31.6165 25.72 31.6958 25.7527 31.7518 25.818C31.8171 25.8833 31.8498 25.9627 31.8498 26.056V29.906C31.8498 31.0633 32.3585 31.642 33.3758 31.642C33.8611 31.642 34.2438 31.488 34.5238 31.18C34.8131 30.872 34.9578 30.4473 34.9578 29.906V26.056C34.9578 25.9627 34.9905 25.8833 35.0558 25.818C35.1211 25.7527 35.2005 25.72 35.2938 25.72H36.5258C36.6191 25.72 36.6985 25.7527 36.7638 25.818C36.8291 25.8833 36.8618 25.9627 36.8618 26.056V32.664C36.8618 32.7573 36.8291 32.8367 36.7638 32.902C36.6985 32.9673 36.6191 33 36.5258 33H35.3918C35.2891 33 35.2051 32.9673 35.1398 32.902C35.0838 32.8367 35.0558 32.7573 35.0558 32.664V32.09C34.8038 32.4167 34.4911 32.6733 34.1178 32.86C33.7445 33.0467 33.2778 33.14 32.7178 33.14ZM39.0471 33C38.9538 33 38.8744 32.9673 38.8091 32.902C38.7438 32.8367 38.7111 32.7573 38.7111 32.664V26.056C38.7111 25.9627 38.7438 25.8833 38.8091 25.818C38.8744 25.7527 38.9538 25.72 39.0471 25.72H40.1391C40.2324 25.72 40.3118 25.7527 40.3771 25.818C40.4424 25.8833 40.4751 25.9627 40.4751 26.056V26.532C40.6711 26.2707 40.9324 26.0513 41.2591 25.874C41.5951 25.6873 41.9918 25.5893 42.4491 25.58C43.5131 25.5613 44.2551 25.9767 44.6751 26.826C44.8898 26.4527 45.1978 26.154 45.5991 25.93C46.0098 25.6967 46.4624 25.58 46.9571 25.58C47.4424 25.58 47.8811 25.692 48.2731 25.916C48.6744 26.14 48.9871 26.4807 49.2111 26.938C49.4444 27.386 49.5611 27.9553 49.5611 28.646V32.664C49.5611 32.7573 49.5284 32.8367 49.4631 32.902C49.3978 32.9673 49.3184 33 49.2251 33H48.0771C47.9838 33 47.9044 32.9673 47.8391 32.902C47.7738 32.8367 47.7411 32.7573 47.7411 32.664V28.758C47.7411 28.338 47.6804 28.0067 47.5591 27.764C47.4378 27.512 47.2744 27.3347 47.0691 27.232C46.8638 27.1293 46.6351 27.078 46.3831 27.078C46.1778 27.078 45.9724 27.1293 45.7671 27.232C45.5618 27.3347 45.3938 27.512 45.2631 27.764C45.1324 28.0067 45.0671 28.338 45.0671 28.758V32.664C45.0671 32.7573 45.0344 32.8367 44.9691 32.902C44.9038 32.9673 44.8244 33 44.7311 33H43.5831C43.4804 33 43.3964 32.9673 43.3311 32.902C43.2751 32.8367 43.2471 32.7573 43.2471 32.664V28.758C43.2471 28.338 43.1818 28.0067 43.0511 27.764C42.9204 27.512 42.7524 27.3347 42.5471 27.232C42.3418 27.1293 42.1224 27.078 41.8891 27.078C41.6744 27.078 41.4644 27.134 41.2591 27.246C41.0538 27.3487 40.8858 27.5213 40.7551 27.764C40.6244 28.0067 40.5591 28.338 40.5591 28.758V32.664C40.5591 32.7573 40.5264 32.8367 40.4611 32.902C40.3958 32.9673 40.3164 33 40.2231 33H39.0471ZM51.6939 33C51.6006 33 51.5213 32.9673 51.4559 32.902C51.3906 32.8367 51.3579 32.7573 51.3579 32.664V23.396C51.3579 23.3027 51.3906 23.2233 51.4559 23.158C51.5213 23.0927 51.6006 23.06 51.6939 23.06H52.8559C52.9493 23.06 53.0286 23.0927 53.0939 23.158C53.1593 23.2233 53.1919 23.3027 53.1919 23.396V32.664C53.1919 32.7573 53.1593 32.8367 53.0939 32.902C53.0286 32.9673 52.9493 33 52.8559 33H51.6939ZM57.163 33.14C56.6777 33.14 56.239 33.0467 55.847 32.86C55.455 32.664 55.1423 32.4073 54.909 32.09C54.685 31.7633 54.573 31.3993 54.573 30.998C54.573 30.3447 54.8343 29.8267 55.357 29.444C55.889 29.052 56.589 28.7907 57.457 28.66L59.375 28.38V28.086C59.375 27.694 59.277 27.3907 59.081 27.176C58.885 26.9613 58.549 26.854 58.073 26.854C57.737 26.854 57.4617 26.924 57.247 27.064C57.0417 27.1947 56.8877 27.372 56.785 27.596C56.7103 27.7173 56.603 27.778 56.463 27.778H55.357C55.2543 27.778 55.175 27.75 55.119 27.694C55.0723 27.638 55.049 27.5633 55.049 27.47C55.0583 27.3207 55.119 27.1387 55.231 26.924C55.343 26.7093 55.5203 26.504 55.763 26.308C56.0057 26.1027 56.3183 25.93 56.701 25.79C57.0837 25.65 57.5457 25.58 58.087 25.58C58.675 25.58 59.1697 25.6547 59.571 25.804C59.9817 25.944 60.3083 26.1353 60.551 26.378C60.7937 26.6207 60.971 26.9053 61.083 27.232C61.195 27.5587 61.251 27.904 61.251 28.268V32.664C61.251 32.7573 61.2183 32.8367 61.153 32.902C61.0877 32.9673 61.0083 33 60.915 33H59.781C59.6783 33 59.5943 32.9673 59.529 32.902C59.473 32.8367 59.445 32.7573 59.445 32.664V32.118C59.3237 32.2953 59.1603 32.4633 58.955 32.622C58.7497 32.7713 58.4977 32.8973 58.199 33C57.9097 33.0933 57.5643 33.14 57.163 33.14ZM57.639 31.81C57.9657 31.81 58.2597 31.74 58.521 31.6C58.7917 31.46 59.0017 31.2453 59.151 30.956C59.3097 30.6573 59.389 30.284 59.389 29.836V29.542L57.989 29.766C57.4383 29.85 57.0277 29.9853 56.757 30.172C56.4863 30.3587 56.351 30.5873 56.351 30.858C56.351 31.0633 56.4117 31.2407 56.533 31.39C56.6637 31.53 56.827 31.6373 57.023 31.712C57.219 31.7773 57.4243 31.81 57.639 31.81ZM63.397 33C63.3037 33 63.2244 32.9673 63.159 32.902C63.0937 32.8367 63.061 32.7573 63.061 32.664V23.396C63.061 23.3027 63.0937 23.2233 63.159 23.158C63.2244 23.0927 63.3037 23.06 63.397 23.06H64.643C64.7457 23.06 64.825 23.0927 64.881 23.158C64.9464 23.2233 64.979 23.3027 64.979 23.396V26.588C65.231 26.2893 65.539 26.0467 65.903 25.86C66.267 25.6733 66.715 25.58 67.247 25.58C67.8164 25.58 68.311 25.7107 68.731 25.972C69.1604 26.224 69.4917 26.5833 69.725 27.05C69.9584 27.5167 70.075 28.0767 70.075 28.73V32.664C70.075 32.7573 70.0424 32.8367 69.977 32.902C69.9117 32.9673 69.8324 33 69.739 33H68.479C68.3857 33 68.3064 32.9673 68.241 32.902C68.1757 32.8367 68.143 32.7573 68.143 32.664V28.814C68.143 28.2727 68.0077 27.848 67.737 27.54C67.4757 27.232 67.093 27.078 66.589 27.078C66.1037 27.078 65.7117 27.232 65.413 27.54C65.1237 27.848 64.979 28.2727 64.979 28.814V32.664C64.979 32.7573 64.9464 32.8367 64.881 32.902C64.825 32.9673 64.7457 33 64.643 33H63.397ZM75.555 33C75.4616 33 75.3823 32.9673 75.317 32.902C75.2516 32.8367 75.219 32.7573 75.219 32.664V23.55C75.219 23.4473 75.2516 23.3633 75.317 23.298C75.3823 23.2327 75.4616 23.2 75.555 23.2H79.307C80.035 23.2 80.6696 23.3167 81.211 23.55C81.7523 23.774 82.1723 24.1193 82.471 24.586C82.7696 25.0433 82.919 25.6173 82.919 26.308C82.919 27.008 82.7696 27.5867 82.471 28.044C82.1723 28.492 81.7523 28.828 81.211 29.052C80.6696 29.276 80.035 29.388 79.307 29.388H77.221V32.664C77.221 32.7573 77.1883 32.8367 77.123 32.902C77.067 32.9673 76.9876 33 76.885 33H75.555ZM77.193 27.834H79.237C79.7783 27.834 80.1936 27.708 80.483 27.456C80.7723 27.1947 80.917 26.812 80.917 26.308C80.917 25.8413 80.7816 25.468 80.511 25.188C80.2403 24.8987 79.8156 24.754 79.237 24.754H77.193V27.834ZM87.3198 33.14C86.2838 33.14 85.4624 32.8413 84.8558 32.244C84.2491 31.6467 83.9224 30.7973 83.8758 29.696C83.8664 29.6027 83.8618 29.486 83.8618 29.346C83.8618 29.1967 83.8664 29.08 83.8758 28.996C83.9131 28.296 84.0718 27.6893 84.3518 27.176C84.6411 26.6627 85.0378 26.2707 85.5418 26C86.0458 25.72 86.6384 25.58 87.3198 25.58C88.0758 25.58 88.7104 25.7387 89.2238 26.056C89.7371 26.364 90.1244 26.798 90.3858 27.358C90.6471 27.9087 90.7778 28.548 90.7778 29.276V29.57C90.7778 29.6633 90.7451 29.7427 90.6798 29.808C90.6144 29.8733 90.5304 29.906 90.4278 29.906H85.7798C85.7798 29.906 85.7798 29.92 85.7798 29.948C85.7798 29.976 85.7798 29.9993 85.7798 30.018C85.7891 30.3447 85.8498 30.648 85.9618 30.928C86.0831 31.1987 86.2558 31.418 86.4798 31.586C86.7131 31.754 86.9884 31.838 87.3058 31.838C87.5671 31.838 87.7864 31.8007 87.9638 31.726C88.1411 31.642 88.2858 31.5487 88.3978 31.446C88.5098 31.3433 88.5891 31.2593 88.6358 31.194C88.7198 31.082 88.7851 31.0167 88.8318 30.998C88.8878 30.97 88.9671 30.956 89.0698 30.956H90.2738C90.3671 30.956 90.4418 30.984 90.4978 31.04C90.5631 31.096 90.5911 31.166 90.5818 31.25C90.5724 31.3993 90.4931 31.5813 90.3438 31.796C90.2038 32.0107 89.9984 32.2207 89.7278 32.426C89.4571 32.6313 89.1164 32.804 88.7058 32.944C88.3044 33.0747 87.8424 33.14 87.3198 33.14ZM85.7798 28.73H88.8738V28.688C88.8738 28.324 88.8131 28.0067 88.6918 27.736C88.5704 27.4653 88.3931 27.2507 88.1598 27.092C87.9264 26.9333 87.6464 26.854 87.3198 26.854C86.9931 26.854 86.7131 26.9333 86.4798 27.092C86.2464 27.2507 86.0691 27.4653 85.9478 27.736C85.8358 28.0067 85.7798 28.324 85.7798 28.688V28.73ZM92.5998 33C92.5065 33 92.4272 32.9673 92.3618 32.902C92.2965 32.8367 92.2638 32.7573 92.2638 32.664V26.056C92.2638 25.9627 92.2965 25.8833 92.3618 25.818C92.4272 25.7527 92.5065 25.72 92.5998 25.72H93.7478C93.8412 25.72 93.9205 25.7527 93.9858 25.818C94.0512 25.8833 94.0838 25.9627 94.0838 26.056V26.63C94.3265 26.3313 94.6345 26.084 95.0078 25.888C95.3905 25.6827 95.8618 25.58 96.4218 25.58C96.9912 25.58 97.4858 25.7107 97.9058 25.972C98.3258 26.224 98.6478 26.5833 98.8718 27.05C99.1052 27.5167 99.2218 28.0767 99.2218 28.73V32.664C99.2218 32.7573 99.1892 32.8367 99.1238 32.902C99.0585 32.9673 98.9792 33 98.8858 33H97.6538C97.5605 33 97.4812 32.9673 97.4158 32.902C97.3505 32.8367 97.3178 32.7573 97.3178 32.664V28.814C97.3178 28.2727 97.1825 27.848 96.9118 27.54C96.6505 27.232 96.2678 27.078 95.7638 27.078C95.2785 27.078 94.8912 27.232 94.6018 27.54C94.3125 27.848 94.1678 28.2727 94.1678 28.814V32.664C94.1678 32.7573 94.1352 32.8367 94.0698 32.902C94.0045 32.9673 93.9252 33 93.8318 33H92.5998ZM103.702 33.14C103.217 33.14 102.788 33.0607 102.414 32.902C102.05 32.734 101.747 32.5007 101.504 32.202C101.262 31.9033 101.075 31.5533 100.944 31.152C100.814 30.7413 100.739 30.2933 100.72 29.808C100.711 29.64 100.706 29.4907 100.706 29.36C100.706 29.22 100.711 29.066 100.72 28.898C100.739 28.4313 100.809 27.9973 100.93 27.596C101.061 27.1947 101.248 26.8447 101.49 26.546C101.742 26.238 102.05 26 102.414 25.832C102.788 25.664 103.217 25.58 103.702 25.58C104.206 25.58 104.631 25.6687 104.976 25.846C105.331 26.014 105.625 26.2333 105.858 26.504V23.396C105.858 23.3027 105.886 23.2233 105.942 23.158C106.008 23.0927 106.092 23.06 106.194 23.06H107.384C107.478 23.06 107.557 23.0927 107.622 23.158C107.688 23.2233 107.72 23.3027 107.72 23.396V32.664C107.72 32.7573 107.688 32.8367 107.622 32.902C107.557 32.9673 107.478 33 107.384 33H106.278C106.176 33 106.092 32.9673 106.026 32.902C105.97 32.8367 105.942 32.7573 105.942 32.664V32.146C105.709 32.4353 105.41 32.6733 105.046 32.86C104.692 33.0467 104.244 33.14 103.702 33.14ZM104.22 31.642C104.612 31.642 104.925 31.5533 105.158 31.376C105.392 31.1987 105.564 30.9747 105.676 30.704C105.788 30.424 105.849 30.1393 105.858 29.85C105.868 29.682 105.872 29.5047 105.872 29.318C105.872 29.122 105.868 28.94 105.858 28.772C105.849 28.492 105.784 28.226 105.662 27.974C105.541 27.7127 105.364 27.498 105.13 27.33C104.897 27.162 104.594 27.078 104.22 27.078C103.828 27.078 103.516 27.1667 103.282 27.344C103.058 27.512 102.895 27.736 102.792 28.016C102.69 28.296 102.629 28.604 102.61 28.94C102.601 29.22 102.601 29.5 102.61 29.78C102.629 30.116 102.69 30.424 102.792 30.704C102.895 30.984 103.058 31.2127 103.282 31.39C103.516 31.558 103.828 31.642 104.22 31.642ZM112.288 33.14C111.719 33.14 111.224 33.014 110.804 32.762C110.393 32.5007 110.076 32.1367 109.852 31.67C109.628 31.194 109.516 30.634 109.516 29.99V26.056C109.516 25.9627 109.549 25.8833 109.614 25.818C109.679 25.7527 109.759 25.72 109.852 25.72H111.084C111.187 25.72 111.266 25.7527 111.322 25.818C111.387 25.8833 111.42 25.9627 111.42 26.056V29.906C111.42 31.0633 111.929 31.642 112.946 31.642C113.431 31.642 113.814 31.488 114.094 31.18C114.383 30.872 114.528 30.4473 114.528 29.906V26.056C114.528 25.9627 114.561 25.8833 114.626 25.818C114.691 25.7527 114.771 25.72 114.864 25.72H116.096C116.189 25.72 116.269 25.7527 116.334 25.818C116.399 25.8833 116.432 25.9627 116.432 26.056V32.664C116.432 32.7573 116.399 32.8367 116.334 32.902C116.269 32.9673 116.189 33 116.096 33H114.962C114.859 33 114.775 32.9673 114.71 32.902C114.654 32.8367 114.626 32.7573 114.626 32.664V32.09C114.374 32.4167 114.061 32.6733 113.688 32.86C113.315 33.0467 112.848 33.14 112.288 33.14ZM120.983 33.14C120.498 33.14 120.069 33.0607 119.695 32.902C119.331 32.734 119.028 32.5007 118.785 32.202C118.543 31.9033 118.356 31.5533 118.225 31.152C118.095 30.7413 118.02 30.2933 118.001 29.808C117.992 29.64 117.987 29.4907 117.987 29.36C117.987 29.22 117.992 29.066 118.001 28.898C118.02 28.4313 118.09 27.9973 118.211 27.596C118.342 27.1947 118.529 26.8447 118.771 26.546C119.023 26.238 119.331 26 119.695 25.832C120.069 25.664 120.498 25.58 120.983 25.58C121.487 25.58 121.912 25.6687 122.257 25.846C122.612 26.014 122.906 26.2333 123.139 26.504V23.396C123.139 23.3027 123.167 23.2233 123.223 23.158C123.289 23.0927 123.373 23.06 123.475 23.06H124.665C124.759 23.06 124.838 23.0927 124.903 23.158C124.969 23.2233 125.001 23.3027 125.001 23.396V32.664C125.001 32.7573 124.969 32.8367 124.903 32.902C124.838 32.9673 124.759 33 124.665 33H123.559C123.457 33 123.373 32.9673 123.307 32.902C123.251 32.8367 123.223 32.7573 123.223 32.664V32.146C122.99 32.4353 122.691 32.6733 122.327 32.86C121.973 33.0467 121.525 33.14 120.983 33.14ZM121.501 31.642C121.893 31.642 122.206 31.5533 122.439 31.376C122.673 31.1987 122.845 30.9747 122.957 30.704C123.069 30.424 123.13 30.1393 123.139 29.85C123.149 29.682 123.153 29.5047 123.153 29.318C123.153 29.122 123.149 28.94 123.139 28.772C123.13 28.492 123.065 28.226 122.943 27.974C122.822 27.7127 122.645 27.498 122.411 27.33C122.178 27.162 121.875 27.078 121.501 27.078C121.109 27.078 120.797 27.1667 120.563 27.344C120.339 27.512 120.176 27.736 120.073 28.016C119.971 28.296 119.91 28.604 119.891 28.94C119.882 29.22 119.882 29.5 119.891 29.78C119.91 30.116 119.971 30.424 120.073 30.704C120.176 30.984 120.339 31.2127 120.563 31.39C120.797 31.558 121.109 31.642 121.501 31.642ZM129.569 33.14C129 33.14 128.505 33.014 128.085 32.762C127.675 32.5007 127.357 32.1367 127.133 31.67C126.909 31.194 126.797 30.634 126.797 29.99V26.056C126.797 25.9627 126.83 25.8833 126.895 25.818C126.961 25.7527 127.04 25.72 127.133 25.72H128.365C128.468 25.72 128.547 25.7527 128.603 25.818C128.669 25.8833 128.701 25.9627 128.701 26.056V29.906C128.701 31.0633 129.21 31.642 130.227 31.642C130.713 31.642 131.095 31.488 131.375 31.18C131.665 30.872 131.809 30.4473 131.809 29.906V26.056C131.809 25.9627 131.842 25.8833 131.907 25.818C131.973 25.7527 132.052 25.72 132.145 25.72H133.377C133.471 25.72 133.55 25.7527 133.615 25.818C133.681 25.8833 133.713 25.9627 133.713 26.056V32.664C133.713 32.7573 133.681 32.8367 133.615 32.902C133.55 32.9673 133.471 33 133.377 33H132.243C132.141 33 132.057 32.9673 131.991 32.902C131.935 32.8367 131.907 32.7573 131.907 32.664V32.09C131.655 32.4167 131.343 32.6733 130.969 32.86C130.596 33.0467 130.129 33.14 129.569 33.14ZM135.913 33C135.819 33 135.74 32.9673 135.675 32.902C135.609 32.8367 135.577 32.7573 135.577 32.664V23.396C135.577 23.3027 135.609 23.2233 135.675 23.158C135.74 23.0927 135.819 23.06 135.913 23.06H137.047C137.149 23.06 137.229 23.0927 137.285 23.158C137.35 23.2233 137.383 23.3027 137.383 23.396V28.184L139.735 25.958C139.819 25.8833 139.893 25.8273 139.959 25.79C140.024 25.7433 140.122 25.72 140.253 25.72H141.555C141.648 25.72 141.723 25.748 141.779 25.804C141.835 25.86 141.863 25.9347 141.863 26.028C141.863 26.0653 141.853 26.1073 141.835 26.154C141.816 26.2007 141.779 26.2427 141.723 26.28L138.839 28.982L142.073 32.454C142.166 32.5473 142.213 32.6267 142.213 32.692C142.213 32.7853 142.18 32.86 142.115 32.916C142.059 32.972 141.989 33 141.905 33H140.575C140.435 33 140.332 32.9813 140.267 32.944C140.211 32.8973 140.141 32.8367 140.057 32.762L137.383 29.948V32.664C137.383 32.7573 137.35 32.8367 137.285 32.902C137.229 32.9673 137.149 33 137.047 33H135.913Z" fill="#44556C"/>
<rect x="57.4795" y="76.1792" width="479.021" height="207" stroke="#ECECEC"/>
<path d="M56.9795 144.182H537" stroke="#ECECEC"/>
<path d="M56.9795 110.554H537" stroke="#ECECEC"/>
<path d="M56.9795 177.811H537" stroke="#ECECEC"/>
<path d="M56.9795 211.439H537" stroke="#ECECEC"/>
<path d="M56.9795 245.068H537" stroke="#ECECEC"/>
<path d="M137.707 75.6792L137.707 283.679" stroke="#ECECEC"/>
<path d="M217.193 75.6792L217.193 283.679" stroke="#ECECEC"/>
<path d="M296.059 75.6792L296.059 283.679" stroke="#ECECEC"/>
<path d="M375.544 75.6792L375.544 283.679" stroke="#ECECEC"/>
<path d="M455.03 75.6792L455.03 283.679" stroke="#ECECEC"/>
<path d="M31.1626 247.168V248.105H27.3445V247.168H31.1626ZM35.8129 252.119C35.4549 252.114 35.0969 252.045 34.739 251.915C34.381 251.784 34.0543 251.564 33.7589 251.254C33.4634 250.942 33.2262 250.52 33.0472 249.989C32.8683 249.455 32.7788 248.784 32.7788 247.977C32.7788 247.205 32.8512 246.52 32.9961 245.923C33.141 245.324 33.3512 244.82 33.6268 244.411C33.9023 243.999 34.2347 243.686 34.6239 243.473C35.016 243.26 35.4577 243.153 35.9492 243.153C36.4379 243.153 36.8725 243.251 37.2532 243.447C37.6367 243.641 37.9492 243.911 38.1907 244.257C38.4322 244.604 38.5884 245.003 38.6594 245.455H37.6197C37.5231 245.062 37.3356 244.737 37.0572 244.479C36.7788 244.22 36.4094 244.091 35.9492 244.091C35.2731 244.091 34.7404 244.385 34.3512 244.973C33.9648 245.561 33.7702 246.386 33.7674 247.449H33.8356C33.9947 247.207 34.1836 247.001 34.4023 246.831C34.6239 246.658 34.8683 246.524 35.1353 246.43C35.4023 246.337 35.685 246.29 35.9833 246.29C36.4833 246.29 36.9407 246.415 37.3555 246.665C37.7702 246.912 38.1026 247.254 38.3526 247.692C38.6026 248.126 38.7276 248.625 38.7276 249.188C38.7276 249.727 38.6069 250.222 38.3654 250.67C38.1239 251.116 37.7844 251.472 37.3469 251.736C36.9123 251.997 36.4009 252.125 35.8129 252.119ZM35.8129 251.182C36.1708 251.182 36.4918 251.092 36.7759 250.913C37.0629 250.734 37.2887 250.494 37.4535 250.193C37.6211 249.892 37.7049 249.557 37.7049 249.188C37.7049 248.827 37.6239 248.499 37.462 248.203C37.3029 247.905 37.0827 247.668 36.8015 247.491C36.5231 247.315 36.2049 247.227 35.8469 247.227C35.5771 247.227 35.3256 247.281 35.0927 247.389C34.8597 247.494 34.6552 247.639 34.479 247.824C34.3058 248.009 34.1694 248.22 34.07 248.459C33.9705 248.695 33.9208 248.943 33.9208 249.205C33.9208 249.551 34.0018 249.875 34.1637 250.176C34.3285 250.477 34.5529 250.72 34.837 250.905C35.1239 251.089 35.4492 251.182 35.8129 251.182ZM43.25 252.119C42.608 252.119 42.0611 251.945 41.6094 251.595C41.1577 251.243 40.8125 250.733 40.5739 250.065C40.3352 249.395 40.2159 248.585 40.2159 247.636C40.2159 246.693 40.3352 245.888 40.5739 245.22C40.8153 244.55 41.1619 244.038 41.6136 243.686C42.0682 243.331 42.6136 243.153 43.25 243.153C43.8864 243.153 44.4304 243.331 44.8821 243.686C45.3366 244.038 45.6832 244.55 45.9219 245.22C46.1634 245.888 46.2841 246.693 46.2841 247.636C46.2841 248.585 46.1648 249.395 45.9261 250.065C45.6875 250.733 45.3423 251.243 44.8906 251.595C44.4389 251.945 43.892 252.119 43.25 252.119ZM43.25 251.182C43.8864 251.182 44.3807 250.875 44.733 250.261C45.0852 249.648 45.2614 248.773 45.2614 247.636C45.2614 246.881 45.1804 246.237 45.0185 245.706C44.8594 245.175 44.6293 244.77 44.3281 244.491C44.0298 244.213 43.6705 244.074 43.25 244.074C42.6193 244.074 42.1264 244.385 41.7713 245.007C41.4162 245.626 41.2386 246.503 41.2386 247.636C41.2386 248.392 41.3182 249.034 41.4773 249.562C41.6364 250.091 41.8651 250.493 42.1634 250.768C42.4645 251.044 42.8267 251.182 43.25 251.182Z" fill="#8697A8"/>
<path d="M25.5728 281.168V282.105H21.7546V281.168H25.5728ZM30.3935 277.273V286H29.3366V278.381H29.2855L27.1548 279.795V278.722L29.3366 277.273H30.3935ZM35.75 286.119C35.108 286.119 34.5611 285.945 34.1094 285.595C33.6577 285.243 33.3125 284.733 33.0739 284.065C32.8352 283.395 32.7159 282.585 32.7159 281.636C32.7159 280.693 32.8352 279.888 33.0739 279.22C33.3153 278.55 33.6619 278.038 34.1136 277.686C34.5682 277.331 35.1136 277.153 35.75 277.153C36.3864 277.153 36.9304 277.331 37.3821 277.686C37.8366 278.038 38.1832 278.55 38.4219 279.22C38.6634 279.888 38.7841 280.693 38.7841 281.636C38.7841 282.585 38.6648 283.395 38.4261 284.065C38.1875 284.733 37.8423 285.243 37.3906 285.595C36.9389 285.945 36.392 286.119 35.75 286.119ZM35.75 285.182C36.3864 285.182 36.8807 284.875 37.233 284.261C37.5852 283.648 37.7614 282.773 37.7614 281.636C37.7614 280.881 37.6804 280.237 37.5185 279.706C37.3594 279.175 37.1293 278.77 36.8281 278.491C36.5298 278.213 36.1705 278.074 35.75 278.074C35.1193 278.074 34.6264 278.385 34.2713 279.007C33.9162 279.626 33.7386 280.503 33.7386 281.636C33.7386 282.392 33.8182 283.034 33.9773 283.562C34.1364 284.091 34.3651 284.493 34.6634 284.768C34.9645 285.044 35.3267 285.182 35.75 285.182ZM43.25 286.119C42.608 286.119 42.0611 285.945 41.6094 285.595C41.1577 285.243 40.8125 284.733 40.5739 284.065C40.3352 283.395 40.2159 282.585 40.2159 281.636C40.2159 280.693 40.3352 279.888 40.5739 279.22C40.8153 278.55 41.1619 278.038 41.6136 277.686C42.0682 277.331 42.6136 277.153 43.25 277.153C43.8864 277.153 44.4304 277.331 44.8821 277.686C45.3366 278.038 45.6832 278.55 45.9219 279.22C46.1634 279.888 46.2841 280.693 46.2841 281.636C46.2841 282.585 46.1648 283.395 45.9261 284.065C45.6875 284.733 45.3423 285.243 44.8906 285.595C44.4389 285.945 43.892 286.119 43.25 286.119ZM43.25 285.182C43.8864 285.182 44.3807 284.875 44.733 284.261C45.0852 283.648 45.2614 282.773 45.2614 281.636C45.2614 280.881 45.1804 280.237 45.0185 279.706C44.8594 279.175 44.6293 278.77 44.3281 278.491C44.0298 278.213 43.6705 278.074 43.25 278.074C42.6193 278.074 42.1264 278.385 41.7713 279.007C41.4162 279.626 41.2386 280.503 41.2386 281.636C41.2386 282.392 41.3182 283.034 41.4773 283.562C41.6364 284.091 41.8651 284.493 42.1634 284.768C42.4645 285.044 42.8267 285.182 43.25 285.182Z" fill="#8697A8"/>
<path d="M31.7955 212.168V213.105H27.9773V212.168H31.7955ZM33.1378 217V216.233L36.0185 213.08C36.3565 212.71 36.6349 212.389 36.8537 212.116C37.0724 211.841 37.2344 211.582 37.3395 211.341C37.4474 211.097 37.5014 210.841 37.5014 210.574C37.5014 210.267 37.4276 210.001 37.2798 209.777C37.1349 209.553 36.9361 209.379 36.6832 209.257C36.4304 209.135 36.1463 209.074 35.831 209.074C35.4957 209.074 35.2031 209.143 34.9531 209.283C34.706 209.419 34.5142 209.611 34.3778 209.858C34.2443 210.105 34.1776 210.395 34.1776 210.727H33.1719C33.1719 210.216 33.2898 209.767 33.5256 209.381C33.7614 208.994 34.0824 208.693 34.4886 208.477C34.8977 208.261 35.3565 208.153 35.8651 208.153C36.3764 208.153 36.8295 208.261 37.2244 208.477C37.6193 208.693 37.929 208.984 38.1534 209.351C38.3778 209.717 38.4901 210.125 38.4901 210.574C38.4901 210.895 38.4318 211.209 38.3153 211.516C38.2017 211.82 38.0028 212.159 37.7188 212.534C37.4375 212.906 37.0469 213.361 36.5469 213.898L34.5866 215.994V216.062H38.6435V217H33.1378ZM43.25 217.119C42.608 217.119 42.0611 216.945 41.6094 216.595C41.1577 216.243 40.8125 215.733 40.5739 215.065C40.3352 214.395 40.2159 213.585 40.2159 212.636C40.2159 211.693 40.3352 210.888 40.5739 210.22C40.8153 209.55 41.1619 209.038 41.6136 208.686C42.0682 208.331 42.6136 208.153 43.25 208.153C43.8864 208.153 44.4304 208.331 44.8821 208.686C45.3366 209.038 45.6832 209.55 45.9219 210.22C46.1634 210.888 46.2841 211.693 46.2841 212.636C46.2841 213.585 46.1648 214.395 45.9261 215.065C45.6875 215.733 45.3423 216.243 44.8906 216.595C44.4389 216.945 43.892 217.119 43.25 217.119ZM43.25 216.182C43.8864 216.182 44.3807 215.875 44.733 215.261C45.0852 214.648 45.2614 213.773 45.2614 212.636C45.2614 211.881 45.1804 211.237 45.0185 210.706C44.8594 210.175 44.6293 209.77 44.3281 209.491C44.0298 209.213 43.6705 209.074 43.25 209.074C42.6193 209.074 42.1264 209.385 41.7713 210.007C41.4162 210.626 41.2386 211.503 41.2386 212.636C41.2386 213.392 41.3182 214.034 41.4773 214.562C41.6364 215.091 41.8651 215.493 42.1634 215.768C42.4645 216.044 42.8267 216.182 43.25 216.182Z" fill="#8697A8"/>
<path d="M43.25 180.119C42.608 180.119 42.0611 179.945 41.6094 179.595C41.1577 179.243 40.8125 178.733 40.5739 178.065C40.3352 177.395 40.2159 176.585 40.2159 175.636C40.2159 174.693 40.3352 173.888 40.5739 173.22C40.8153 172.55 41.1619 172.038 41.6136 171.686C42.0682 171.331 42.6136 171.153 43.25 171.153C43.8864 171.153 44.4304 171.331 44.8821 171.686C45.3366 172.038 45.6832 172.55 45.9219 173.22C46.1634 173.888 46.2841 174.693 46.2841 175.636C46.2841 176.585 46.1648 177.395 45.9261 178.065C45.6875 178.733 45.3423 179.243 44.8906 179.595C44.4389 179.945 43.892 180.119 43.25 180.119ZM43.25 179.182C43.8864 179.182 44.3807 178.875 44.733 178.261C45.0852 177.648 45.2614 176.773 45.2614 175.636C45.2614 174.881 45.1804 174.237 45.0185 173.706C44.8594 173.175 44.6293 172.77 44.3281 172.491C44.0298 172.213 43.6705 172.074 43.25 172.074C42.6193 172.074 42.1264 172.385 41.7713 173.007C41.4162 173.626 41.2386 174.503 41.2386 175.636C41.2386 176.392 41.3182 177.034 41.4773 177.562C41.6364 178.091 41.8651 178.493 42.1634 178.768C42.4645 179.044 42.8267 179.182 43.25 179.182Z" fill="#8697A8"/>
<path d="M33.1378 148V147.233L36.0185 144.08C36.3565 143.71 36.6349 143.389 36.8537 143.116C37.0724 142.841 37.2344 142.582 37.3395 142.341C37.4474 142.097 37.5014 141.841 37.5014 141.574C37.5014 141.267 37.4276 141.001 37.2798 140.777C37.1349 140.553 36.9361 140.379 36.6832 140.257C36.4304 140.135 36.1463 140.074 35.831 140.074C35.4957 140.074 35.2031 140.143 34.9531 140.283C34.706 140.419 34.5142 140.611 34.3778 140.858C34.2443 141.105 34.1776 141.395 34.1776 141.727H33.1719C33.1719 141.216 33.2898 140.767 33.5256 140.381C33.7614 139.994 34.0824 139.693 34.4886 139.477C34.8977 139.261 35.3565 139.153 35.8651 139.153C36.3764 139.153 36.8295 139.261 37.2244 139.477C37.6193 139.693 37.929 139.984 38.1534 140.351C38.3778 140.717 38.4901 141.125 38.4901 141.574C38.4901 141.895 38.4318 142.209 38.3153 142.516C38.2017 142.82 38.0028 143.159 37.7188 143.534C37.4375 143.906 37.0469 144.361 36.5469 144.898L34.5866 146.994V147.062H38.6435V148H33.1378ZM43.25 148.119C42.608 148.119 42.0611 147.945 41.6094 147.595C41.1577 147.243 40.8125 146.733 40.5739 146.065C40.3352 145.395 40.2159 144.585 40.2159 143.636C40.2159 142.693 40.3352 141.888 40.5739 141.22C40.8153 140.55 41.1619 140.038 41.6136 139.686C42.0682 139.331 42.6136 139.153 43.25 139.153C43.8864 139.153 44.4304 139.331 44.8821 139.686C45.3366 140.038 45.6832 140.55 45.9219 141.22C46.1634 141.888 46.2841 142.693 46.2841 143.636C46.2841 144.585 46.1648 145.395 45.9261 146.065C45.6875 146.733 45.3423 147.243 44.8906 147.595C44.4389 147.945 43.892 148.119 43.25 148.119ZM43.25 147.182C43.8864 147.182 44.3807 146.875 44.733 146.261C45.0852 145.648 45.2614 144.773 45.2614 143.636C45.2614 142.881 45.1804 142.237 45.0185 141.706C44.8594 141.175 44.6293 140.77 44.3281 140.491C44.0298 140.213 43.6705 140.074 43.25 140.074C42.6193 140.074 42.1264 140.385 41.7713 141.007C41.4162 141.626 41.2386 142.503 41.2386 143.636C41.2386 144.392 41.3182 145.034 41.4773 145.562C41.6364 146.091 41.8651 146.493 42.1634 146.768C42.4645 147.044 42.8267 147.182 43.25 147.182Z" fill="#8697A8"/>
<path d="M35.8129 115.119C35.4549 115.114 35.0969 115.045 34.739 114.915C34.381 114.784 34.0543 114.564 33.7589 114.254C33.4634 113.942 33.2262 113.52 33.0472 112.989C32.8683 112.455 32.7788 111.784 32.7788 110.977C32.7788 110.205 32.8512 109.52 32.9961 108.923C33.141 108.324 33.3512 107.82 33.6268 107.411C33.9023 106.999 34.2347 106.686 34.6239 106.473C35.016 106.26 35.4577 106.153 35.9492 106.153C36.4379 106.153 36.8725 106.251 37.2532 106.447C37.6367 106.641 37.9492 106.911 38.1907 107.257C38.4322 107.604 38.5884 108.003 38.6594 108.455H37.6197C37.5231 108.062 37.3356 107.737 37.0572 107.479C36.7788 107.22 36.4094 107.091 35.9492 107.091C35.2731 107.091 34.7404 107.385 34.3512 107.973C33.9648 108.561 33.7702 109.386 33.7674 110.449H33.8356C33.9947 110.207 34.1836 110.001 34.4023 109.831C34.6239 109.658 34.8683 109.524 35.1353 109.43C35.4023 109.337 35.685 109.29 35.9833 109.29C36.4833 109.29 36.9407 109.415 37.3555 109.665C37.7702 109.912 38.1026 110.254 38.3526 110.692C38.6026 111.126 38.7276 111.625 38.7276 112.188C38.7276 112.727 38.6069 113.222 38.3654 113.67C38.1239 114.116 37.7844 114.472 37.3469 114.736C36.9123 114.997 36.4009 115.125 35.8129 115.119ZM35.8129 114.182C36.1708 114.182 36.4918 114.092 36.7759 113.913C37.0629 113.734 37.2887 113.494 37.4535 113.193C37.6211 112.892 37.7049 112.557 37.7049 112.188C37.7049 111.827 37.6239 111.499 37.462 111.203C37.3029 110.905 37.0827 110.668 36.8015 110.491C36.5231 110.315 36.2049 110.227 35.8469 110.227C35.5771 110.227 35.3256 110.281 35.0927 110.389C34.8597 110.494 34.6552 110.639 34.479 110.824C34.3058 111.009 34.1694 111.22 34.07 111.459C33.9705 111.695 33.9208 111.943 33.9208 112.205C33.9208 112.551 34.0018 112.875 34.1637 113.176C34.3285 113.477 34.5529 113.72 34.837 113.905C35.1239 114.089 35.4492 114.182 35.8129 114.182ZM43.25 115.119C42.608 115.119 42.0611 114.945 41.6094 114.595C41.1577 114.243 40.8125 113.733 40.5739 113.065C40.3352 112.395 40.2159 111.585 40.2159 110.636C40.2159 109.693 40.3352 108.888 40.5739 108.22C40.8153 107.55 41.1619 107.038 41.6136 106.686C42.0682 106.331 42.6136 106.153 43.25 106.153C43.8864 106.153 44.4304 106.331 44.8821 106.686C45.3366 107.038 45.6832 107.55 45.9219 108.22C46.1634 108.888 46.2841 109.693 46.2841 110.636C46.2841 111.585 46.1648 112.395 45.9261 113.065C45.6875 113.733 45.3423 114.243 44.8906 114.595C44.4389 114.945 43.892 115.119 43.25 115.119ZM43.25 114.182C43.8864 114.182 44.3807 113.875 44.733 113.261C45.0852 112.648 45.2614 111.773 45.2614 110.636C45.2614 109.881 45.1804 109.237 45.0185 108.706C44.8594 108.175 44.6293 107.77 44.3281 107.491C44.0298 107.213 43.6705 107.074 43.25 107.074C42.6193 107.074 42.1264 107.385 41.7713 108.007C41.4162 108.626 41.2386 109.503 41.2386 110.636C41.2386 111.392 41.3182 112.034 41.4773 112.562C41.6364 113.091 41.8651 113.493 42.1634 113.768C42.4645 114.044 42.8267 114.182 43.25 114.182Z" fill="#8697A8"/>
<path d="M30.3935 73.2727V82H29.3366V74.3807H29.2855L27.1548 75.7955V74.7216L29.3366 73.2727H30.3935ZM35.75 82.1193C35.108 82.1193 34.5611 81.9446 34.1094 81.5952C33.6577 81.2429 33.3125 80.733 33.0739 80.0653C32.8352 79.3949 32.7159 78.5852 32.7159 77.6364C32.7159 76.6932 32.8352 75.8878 33.0739 75.2202C33.3153 74.5497 33.6619 74.0384 34.1136 73.6861C34.5682 73.331 35.1136 73.1534 35.75 73.1534C36.3864 73.1534 36.9304 73.331 37.3821 73.6861C37.8366 74.0384 38.1832 74.5497 38.4219 75.2202C38.6634 75.8878 38.7841 76.6932 38.7841 77.6364C38.7841 78.5852 38.6648 79.3949 38.4261 80.0653C38.1875 80.733 37.8423 81.2429 37.3906 81.5952C36.9389 81.9446 36.392 82.1193 35.75 82.1193ZM35.75 81.1818C36.3864 81.1818 36.8807 80.875 37.233 80.2614C37.5852 79.6477 37.7614 78.7727 37.7614 77.6364C37.7614 76.8807 37.6804 76.2372 37.5185 75.706C37.3594 75.1747 37.1293 74.7699 36.8281 74.4915C36.5298 74.2131 36.1705 74.0739 35.75 74.0739C35.1193 74.0739 34.6264 74.3849 34.2713 75.0071C33.9162 75.6264 33.7386 76.5028 33.7386 77.6364C33.7386 78.392 33.8182 79.0341 33.9773 79.5625C34.1364 80.0909 34.3651 80.4929 34.6634 80.7685C34.9645 81.044 35.3267 81.1818 35.75 81.1818ZM43.25 82.1193C42.608 82.1193 42.0611 81.9446 41.6094 81.5952C41.1577 81.2429 40.8125 80.733 40.5739 80.0653C40.3352 79.3949 40.2159 78.5852 40.2159 77.6364C40.2159 76.6932 40.3352 75.8878 40.5739 75.2202C40.8153 74.5497 41.1619 74.0384 41.6136 73.6861C42.0682 73.331 42.6136 73.1534 43.25 73.1534C43.8864 73.1534 44.4304 73.331 44.8821 73.6861C45.3366 74.0384 45.6832 74.5497 45.9219 75.2202C46.1634 75.8878 46.2841 76.6932 46.2841 77.6364C46.2841 78.5852 46.1648 79.3949 45.9261 80.0653C45.6875 80.733 45.3423 81.2429 44.8906 81.5952C44.4389 81.9446 43.892 82.1193 43.25 82.1193ZM43.25 81.1818C43.8864 81.1818 44.3807 80.875 44.733 80.2614C45.0852 79.6477 45.2614 78.7727 45.2614 77.6364C45.2614 76.8807 45.1804 76.2372 45.0185 75.706C44.8594 75.1747 44.6293 74.7699 44.3281 74.4915C44.0298 74.2131 43.6705 74.0739 43.25 74.0739C42.6193 74.0739 42.1264 74.3849 41.7713 75.0071C41.4162 75.6264 41.2386 76.5028 41.2386 77.6364C41.2386 78.392 41.3182 79.0341 41.4773 79.5625C41.6364 80.0909 41.8651 80.4929 42.1634 80.7685C42.4645 81.044 42.8267 81.1818 43.25 81.1818Z" fill="#8697A8"/>
<ellipse cx="61.888" cy="266" rx="4.88796" ry="5" fill="#2161D5"/>
<ellipse cx="216.888" cy="271" rx="4.88796" ry="5" fill="#2161D5"/>
<ellipse cx="454.888" cy="144" rx="4.88796" ry="5" fill="#2161D5"/>
<ellipse cx="536.888" cy="279" rx="4.88796" ry="5" fill="#2161D5"/>
<ellipse cx="375.888" cy="189" rx="4.88796" ry="5" fill="#2161D5"/>
<ellipse cx="137.888" cy="229" rx="4.88796" ry="5" fill="#2161D5"/>
<ellipse cx="295.888" cy="110" rx="4.88796" ry="5" fill="#2161D5"/>
<path d="M58 271.239C58 271.239 105.521 229.943 137.323 229.683C169.628 229.42 186.238 284.925 217.968 271.239C258.835 253.611 255.733 119.151 297.161 110.443C331.035 103.322 342.879 184.352 376.805 190.075C408.798 195.472 425.112 129.151 456.45 144.644C489.451 160.959 537 284 537 284" stroke="#2161D5" stroke-width="2"/>
</svg>
