<svg width="362" height="310" viewBox="0 0 362 310" fill="none" xmlns="http://www.w3.org/2000/svg">
<rect width="362" height="310" rx="7" fill="white"/>
<path d="M24.256 33.14C23.752 33.14 23.2713 33.0793 22.814 32.958C22.366 32.8273 21.9647 32.6313 21.61 32.37C21.2553 32.1087 20.9707 31.7867 20.756 31.404C20.5507 31.0213 20.4433 30.5687 20.434 30.046C20.434 29.962 20.462 29.892 20.518 29.836C20.574 29.7707 20.644 29.738 20.728 29.738H22.058C22.1793 29.738 22.268 29.7707 22.324 29.836C22.3893 29.9013 22.4407 29.99 22.478 30.102C22.5247 30.438 22.632 30.7133 22.8 30.928C22.968 31.1333 23.178 31.2873 23.43 31.39C23.6913 31.4833 23.9807 31.53 24.298 31.53C24.886 31.53 25.334 31.3387 25.642 30.956C25.9593 30.5733 26.118 30.0413 26.118 29.36V24.852H21.372C21.2693 24.852 21.1853 24.8193 21.12 24.754C21.064 24.6887 21.036 24.6093 21.036 24.516V23.536C21.036 23.4427 21.064 23.3633 21.12 23.298C21.1853 23.2327 21.2693 23.2 21.372 23.2H27.77C27.8727 23.2 27.9567 23.2327 28.022 23.298C28.0873 23.3633 28.12 23.4473 28.12 23.55V29.416C28.12 30.1907 27.9567 30.858 27.63 31.418C27.3127 31.978 26.8647 32.4073 26.286 32.706C25.7167 32.9953 25.04 33.14 24.256 33.14ZM32.7178 33.14C32.1485 33.14 31.6538 33.014 31.2338 32.762C30.8231 32.5007 30.5058 32.1367 30.2818 31.67C30.0578 31.194 29.9458 30.634 29.9458 29.99V26.056C29.9458 25.9627 29.9785 25.8833 30.0438 25.818C30.1091 25.7527 30.1885 25.72 30.2818 25.72H31.5138C31.6165 25.72 31.6958 25.7527 31.7518 25.818C31.8171 25.8833 31.8498 25.9627 31.8498 26.056V29.906C31.8498 31.0633 32.3585 31.642 33.3758 31.642C33.8611 31.642 34.2438 31.488 34.5238 31.18C34.8131 30.872 34.9578 30.4473 34.9578 29.906V26.056C34.9578 25.9627 34.9905 25.8833 35.0558 25.818C35.1211 25.7527 35.2005 25.72 35.2938 25.72H36.5258C36.6191 25.72 36.6985 25.7527 36.7638 25.818C36.8291 25.8833 36.8618 25.9627 36.8618 26.056V32.664C36.8618 32.7573 36.8291 32.8367 36.7638 32.902C36.6985 32.9673 36.6191 33 36.5258 33H35.3918C35.2891 33 35.2051 32.9673 35.1398 32.902C35.0838 32.8367 35.0558 32.7573 35.0558 32.664V32.09C34.8038 32.4167 34.4911 32.6733 34.1178 32.86C33.7445 33.0467 33.2778 33.14 32.7178 33.14ZM39.0471 33C38.9538 33 38.8744 32.9673 38.8091 32.902C38.7438 32.8367 38.7111 32.7573 38.7111 32.664V26.056C38.7111 25.9627 38.7438 25.8833 38.8091 25.818C38.8744 25.7527 38.9538 25.72 39.0471 25.72H40.1391C40.2324 25.72 40.3118 25.7527 40.3771 25.818C40.4424 25.8833 40.4751 25.9627 40.4751 26.056V26.532C40.6711 26.2707 40.9324 26.0513 41.2591 25.874C41.5951 25.6873 41.9918 25.5893 42.4491 25.58C43.5131 25.5613 44.2551 25.9767 44.6751 26.826C44.8898 26.4527 45.1978 26.154 45.5991 25.93C46.0098 25.6967 46.4624 25.58 46.9571 25.58C47.4424 25.58 47.8811 25.692 48.2731 25.916C48.6744 26.14 48.9871 26.4807 49.2111 26.938C49.4444 27.386 49.5611 27.9553 49.5611 28.646V32.664C49.5611 32.7573 49.5284 32.8367 49.4631 32.902C49.3978 32.9673 49.3184 33 49.2251 33H48.0771C47.9838 33 47.9044 32.9673 47.8391 32.902C47.7738 32.8367 47.7411 32.7573 47.7411 32.664V28.758C47.7411 28.338 47.6804 28.0067 47.5591 27.764C47.4378 27.512 47.2744 27.3347 47.0691 27.232C46.8638 27.1293 46.6351 27.078 46.3831 27.078C46.1778 27.078 45.9724 27.1293 45.7671 27.232C45.5618 27.3347 45.3938 27.512 45.2631 27.764C45.1324 28.0067 45.0671 28.338 45.0671 28.758V32.664C45.0671 32.7573 45.0344 32.8367 44.9691 32.902C44.9038 32.9673 44.8244 33 44.7311 33H43.5831C43.4804 33 43.3964 32.9673 43.3311 32.902C43.2751 32.8367 43.2471 32.7573 43.2471 32.664V28.758C43.2471 28.338 43.1818 28.0067 43.0511 27.764C42.9204 27.512 42.7524 27.3347 42.5471 27.232C42.3418 27.1293 42.1224 27.078 41.8891 27.078C41.6744 27.078 41.4644 27.134 41.2591 27.246C41.0538 27.3487 40.8858 27.5213 40.7551 27.764C40.6244 28.0067 40.5591 28.338 40.5591 28.758V32.664C40.5591 32.7573 40.5264 32.8367 40.4611 32.902C40.3958 32.9673 40.3164 33 40.2231 33H39.0471ZM51.6939 33C51.6006 33 51.5213 32.9673 51.4559 32.902C51.3906 32.8367 51.3579 32.7573 51.3579 32.664V23.396C51.3579 23.3027 51.3906 23.2233 51.4559 23.158C51.5213 23.0927 51.6006 23.06 51.6939 23.06H52.8559C52.9493 23.06 53.0286 23.0927 53.0939 23.158C53.1593 23.2233 53.1919 23.3027 53.1919 23.396V32.664C53.1919 32.7573 53.1593 32.8367 53.0939 32.902C53.0286 32.9673 52.9493 33 52.8559 33H51.6939ZM57.163 33.14C56.6777 33.14 56.239 33.0467 55.847 32.86C55.455 32.664 55.1423 32.4073 54.909 32.09C54.685 31.7633 54.573 31.3993 54.573 30.998C54.573 30.3447 54.8343 29.8267 55.357 29.444C55.889 29.052 56.589 28.7907 57.457 28.66L59.375 28.38V28.086C59.375 27.694 59.277 27.3907 59.081 27.176C58.885 26.9613 58.549 26.854 58.073 26.854C57.737 26.854 57.4617 26.924 57.247 27.064C57.0417 27.1947 56.8877 27.372 56.785 27.596C56.7103 27.7173 56.603 27.778 56.463 27.778H55.357C55.2543 27.778 55.175 27.75 55.119 27.694C55.0723 27.638 55.049 27.5633 55.049 27.47C55.0583 27.3207 55.119 27.1387 55.231 26.924C55.343 26.7093 55.5203 26.504 55.763 26.308C56.0057 26.1027 56.3183 25.93 56.701 25.79C57.0837 25.65 57.5457 25.58 58.087 25.58C58.675 25.58 59.1697 25.6547 59.571 25.804C59.9817 25.944 60.3083 26.1353 60.551 26.378C60.7937 26.6207 60.971 26.9053 61.083 27.232C61.195 27.5587 61.251 27.904 61.251 28.268V32.664C61.251 32.7573 61.2183 32.8367 61.153 32.902C61.0877 32.9673 61.0083 33 60.915 33H59.781C59.6783 33 59.5943 32.9673 59.529 32.902C59.473 32.8367 59.445 32.7573 59.445 32.664V32.118C59.3237 32.2953 59.1603 32.4633 58.955 32.622C58.7497 32.7713 58.4977 32.8973 58.199 33C57.9097 33.0933 57.5643 33.14 57.163 33.14ZM57.639 31.81C57.9657 31.81 58.2597 31.74 58.521 31.6C58.7917 31.46 59.0017 31.2453 59.151 30.956C59.3097 30.6573 59.389 30.284 59.389 29.836V29.542L57.989 29.766C57.4383 29.85 57.0277 29.9853 56.757 30.172C56.4863 30.3587 56.351 30.5873 56.351 30.858C56.351 31.0633 56.4117 31.2407 56.533 31.39C56.6637 31.53 56.827 31.6373 57.023 31.712C57.219 31.7773 57.4243 31.81 57.639 31.81ZM63.397 33C63.3037 33 63.2244 32.9673 63.159 32.902C63.0937 32.8367 63.061 32.7573 63.061 32.664V23.396C63.061 23.3027 63.0937 23.2233 63.159 23.158C63.2244 23.0927 63.3037 23.06 63.397 23.06H64.643C64.7457 23.06 64.825 23.0927 64.881 23.158C64.9464 23.2233 64.979 23.3027 64.979 23.396V26.588C65.231 26.2893 65.539 26.0467 65.903 25.86C66.267 25.6733 66.715 25.58 67.247 25.58C67.8164 25.58 68.311 25.7107 68.731 25.972C69.1604 26.224 69.4917 26.5833 69.725 27.05C69.9584 27.5167 70.075 28.0767 70.075 28.73V32.664C70.075 32.7573 70.0424 32.8367 69.977 32.902C69.9117 32.9673 69.8324 33 69.739 33H68.479C68.3857 33 68.3064 32.9673 68.241 32.902C68.1757 32.8367 68.143 32.7573 68.143 32.664V28.814C68.143 28.2727 68.0077 27.848 67.737 27.54C67.4757 27.232 67.093 27.078 66.589 27.078C66.1037 27.078 65.7117 27.232 65.413 27.54C65.1237 27.848 64.979 28.2727 64.979 28.814V32.664C64.979 32.7573 64.9464 32.8367 64.881 32.902C64.825 32.9673 64.7457 33 64.643 33H63.397ZM75.555 33C75.4616 33 75.3823 32.9673 75.317 32.902C75.2516 32.8367 75.219 32.7573 75.219 32.664V23.55C75.219 23.4473 75.2516 23.3633 75.317 23.298C75.3823 23.2327 75.4616 23.2 75.555 23.2H79.307C80.035 23.2 80.6696 23.3167 81.211 23.55C81.7523 23.774 82.1723 24.1193 82.471 24.586C82.7696 25.0433 82.919 25.6173 82.919 26.308C82.919 27.008 82.7696 27.5867 82.471 28.044C82.1723 28.492 81.7523 28.828 81.211 29.052C80.6696 29.276 80.035 29.388 79.307 29.388H77.221V32.664C77.221 32.7573 77.1883 32.8367 77.123 32.902C77.067 32.9673 76.9876 33 76.885 33H75.555ZM77.193 27.834H79.237C79.7783 27.834 80.1936 27.708 80.483 27.456C80.7723 27.1947 80.917 26.812 80.917 26.308C80.917 25.8413 80.7816 25.468 80.511 25.188C80.2403 24.8987 79.8156 24.754 79.237 24.754H77.193V27.834ZM87.3198 33.14C86.2838 33.14 85.4624 32.8413 84.8558 32.244C84.2491 31.6467 83.9224 30.7973 83.8758 29.696C83.8664 29.6027 83.8618 29.486 83.8618 29.346C83.8618 29.1967 83.8664 29.08 83.8758 28.996C83.9131 28.296 84.0718 27.6893 84.3518 27.176C84.6411 26.6627 85.0378 26.2707 85.5418 26C86.0458 25.72 86.6384 25.58 87.3198 25.58C88.0758 25.58 88.7104 25.7387 89.2238 26.056C89.7371 26.364 90.1244 26.798 90.3858 27.358C90.6471 27.9087 90.7778 28.548 90.7778 29.276V29.57C90.7778 29.6633 90.7451 29.7427 90.6798 29.808C90.6144 29.8733 90.5304 29.906 90.4278 29.906H85.7798C85.7798 29.906 85.7798 29.92 85.7798 29.948C85.7798 29.976 85.7798 29.9993 85.7798 30.018C85.7891 30.3447 85.8498 30.648 85.9618 30.928C86.0831 31.1987 86.2558 31.418 86.4798 31.586C86.7131 31.754 86.9884 31.838 87.3058 31.838C87.5671 31.838 87.7864 31.8007 87.9638 31.726C88.1411 31.642 88.2858 31.5487 88.3978 31.446C88.5098 31.3433 88.5891 31.2593 88.6358 31.194C88.7198 31.082 88.7851 31.0167 88.8318 30.998C88.8878 30.97 88.9671 30.956 89.0698 30.956H90.2738C90.3671 30.956 90.4418 30.984 90.4978 31.04C90.5631 31.096 90.5911 31.166 90.5818 31.25C90.5724 31.3993 90.4931 31.5813 90.3438 31.796C90.2038 32.0107 89.9984 32.2207 89.7278 32.426C89.4571 32.6313 89.1164 32.804 88.7058 32.944C88.3044 33.0747 87.8424 33.14 87.3198 33.14ZM85.7798 28.73H88.8738V28.688C88.8738 28.324 88.8131 28.0067 88.6918 27.736C88.5704 27.4653 88.3931 27.2507 88.1598 27.092C87.9264 26.9333 87.6464 26.854 87.3198 26.854C86.9931 26.854 86.7131 26.9333 86.4798 27.092C86.2464 27.2507 86.0691 27.4653 85.9478 27.736C85.8358 28.0067 85.7798 28.324 85.7798 28.688V28.73ZM92.5998 33C92.5065 33 92.4272 32.9673 92.3618 32.902C92.2965 32.8367 92.2638 32.7573 92.2638 32.664V26.056C92.2638 25.9627 92.2965 25.8833 92.3618 25.818C92.4272 25.7527 92.5065 25.72 92.5998 25.72H93.7478C93.8412 25.72 93.9205 25.7527 93.9858 25.818C94.0512 25.8833 94.0838 25.9627 94.0838 26.056V26.63C94.3265 26.3313 94.6345 26.084 95.0078 25.888C95.3905 25.6827 95.8618 25.58 96.4218 25.58C96.9912 25.58 97.4858 25.7107 97.9058 25.972C98.3258 26.224 98.6478 26.5833 98.8718 27.05C99.1052 27.5167 99.2218 28.0767 99.2218 28.73V32.664C99.2218 32.7573 99.1892 32.8367 99.1238 32.902C99.0585 32.9673 98.9792 33 98.8858 33H97.6538C97.5605 33 97.4812 32.9673 97.4158 32.902C97.3505 32.8367 97.3178 32.7573 97.3178 32.664V28.814C97.3178 28.2727 97.1825 27.848 96.9118 27.54C96.6505 27.232 96.2678 27.078 95.7638 27.078C95.2785 27.078 94.8912 27.232 94.6018 27.54C94.3125 27.848 94.1678 28.2727 94.1678 28.814V32.664C94.1678 32.7573 94.1352 32.8367 94.0698 32.902C94.0045 32.9673 93.9252 33 93.8318 33H92.5998ZM103.702 33.14C103.217 33.14 102.788 33.0607 102.414 32.902C102.05 32.734 101.747 32.5007 101.504 32.202C101.262 31.9033 101.075 31.5533 100.944 31.152C100.814 30.7413 100.739 30.2933 100.72 29.808C100.711 29.64 100.706 29.4907 100.706 29.36C100.706 29.22 100.711 29.066 100.72 28.898C100.739 28.4313 100.809 27.9973 100.93 27.596C101.061 27.1947 101.248 26.8447 101.49 26.546C101.742 26.238 102.05 26 102.414 25.832C102.788 25.664 103.217 25.58 103.702 25.58C104.206 25.58 104.631 25.6687 104.976 25.846C105.331 26.014 105.625 26.2333 105.858 26.504V23.396C105.858 23.3027 105.886 23.2233 105.942 23.158C106.008 23.0927 106.092 23.06 106.194 23.06H107.384C107.478 23.06 107.557 23.0927 107.622 23.158C107.688 23.2233 107.72 23.3027 107.72 23.396V32.664C107.72 32.7573 107.688 32.8367 107.622 32.902C107.557 32.9673 107.478 33 107.384 33H106.278C106.176 33 106.092 32.9673 106.026 32.902C105.97 32.8367 105.942 32.7573 105.942 32.664V32.146C105.709 32.4353 105.41 32.6733 105.046 32.86C104.692 33.0467 104.244 33.14 103.702 33.14ZM104.22 31.642C104.612 31.642 104.925 31.5533 105.158 31.376C105.392 31.1987 105.564 30.9747 105.676 30.704C105.788 30.424 105.849 30.1393 105.858 29.85C105.868 29.682 105.872 29.5047 105.872 29.318C105.872 29.122 105.868 28.94 105.858 28.772C105.849 28.492 105.784 28.226 105.662 27.974C105.541 27.7127 105.364 27.498 105.13 27.33C104.897 27.162 104.594 27.078 104.22 27.078C103.828 27.078 103.516 27.1667 103.282 27.344C103.058 27.512 102.895 27.736 102.792 28.016C102.69 28.296 102.629 28.604 102.61 28.94C102.601 29.22 102.601 29.5 102.61 29.78C102.629 30.116 102.69 30.424 102.792 30.704C102.895 30.984 103.058 31.2127 103.282 31.39C103.516 31.558 103.828 31.642 104.22 31.642ZM112.288 33.14C111.719 33.14 111.224 33.014 110.804 32.762C110.393 32.5007 110.076 32.1367 109.852 31.67C109.628 31.194 109.516 30.634 109.516 29.99V26.056C109.516 25.9627 109.549 25.8833 109.614 25.818C109.679 25.7527 109.759 25.72 109.852 25.72H111.084C111.187 25.72 111.266 25.7527 111.322 25.818C111.387 25.8833 111.42 25.9627 111.42 26.056V29.906C111.42 31.0633 111.929 31.642 112.946 31.642C113.431 31.642 113.814 31.488 114.094 31.18C114.383 30.872 114.528 30.4473 114.528 29.906V26.056C114.528 25.9627 114.561 25.8833 114.626 25.818C114.691 25.7527 114.771 25.72 114.864 25.72H116.096C116.189 25.72 116.269 25.7527 116.334 25.818C116.399 25.8833 116.432 25.9627 116.432 26.056V32.664C116.432 32.7573 116.399 32.8367 116.334 32.902C116.269 32.9673 116.189 33 116.096 33H114.962C114.859 33 114.775 32.9673 114.71 32.902C114.654 32.8367 114.626 32.7573 114.626 32.664V32.09C114.374 32.4167 114.061 32.6733 113.688 32.86C113.315 33.0467 112.848 33.14 112.288 33.14ZM120.983 33.14C120.498 33.14 120.069 33.0607 119.695 32.902C119.331 32.734 119.028 32.5007 118.785 32.202C118.543 31.9033 118.356 31.5533 118.225 31.152C118.095 30.7413 118.02 30.2933 118.001 29.808C117.992 29.64 117.987 29.4907 117.987 29.36C117.987 29.22 117.992 29.066 118.001 28.898C118.02 28.4313 118.09 27.9973 118.211 27.596C118.342 27.1947 118.529 26.8447 118.771 26.546C119.023 26.238 119.331 26 119.695 25.832C120.069 25.664 120.498 25.58 120.983 25.58C121.487 25.58 121.912 25.6687 122.257 25.846C122.612 26.014 122.906 26.2333 123.139 26.504V23.396C123.139 23.3027 123.167 23.2233 123.223 23.158C123.289 23.0927 123.373 23.06 123.475 23.06H124.665C124.759 23.06 124.838 23.0927 124.903 23.158C124.969 23.2233 125.001 23.3027 125.001 23.396V32.664C125.001 32.7573 124.969 32.8367 124.903 32.902C124.838 32.9673 124.759 33 124.665 33H123.559C123.457 33 123.373 32.9673 123.307 32.902C123.251 32.8367 123.223 32.7573 123.223 32.664V32.146C122.99 32.4353 122.691 32.6733 122.327 32.86C121.973 33.0467 121.525 33.14 120.983 33.14ZM121.501 31.642C121.893 31.642 122.206 31.5533 122.439 31.376C122.673 31.1987 122.845 30.9747 122.957 30.704C123.069 30.424 123.13 30.1393 123.139 29.85C123.149 29.682 123.153 29.5047 123.153 29.318C123.153 29.122 123.149 28.94 123.139 28.772C123.13 28.492 123.065 28.226 122.943 27.974C122.822 27.7127 122.645 27.498 122.411 27.33C122.178 27.162 121.875 27.078 121.501 27.078C121.109 27.078 120.797 27.1667 120.563 27.344C120.339 27.512 120.176 27.736 120.073 28.016C119.971 28.296 119.91 28.604 119.891 28.94C119.882 29.22 119.882 29.5 119.891 29.78C119.91 30.116 119.971 30.424 120.073 30.704C120.176 30.984 120.339 31.2127 120.563 31.39C120.797 31.558 121.109 31.642 121.501 31.642ZM129.569 33.14C129 33.14 128.505 33.014 128.085 32.762C127.675 32.5007 127.357 32.1367 127.133 31.67C126.909 31.194 126.797 30.634 126.797 29.99V26.056C126.797 25.9627 126.83 25.8833 126.895 25.818C126.961 25.7527 127.04 25.72 127.133 25.72H128.365C128.468 25.72 128.547 25.7527 128.603 25.818C128.669 25.8833 128.701 25.9627 128.701 26.056V29.906C128.701 31.0633 129.21 31.642 130.227 31.642C130.713 31.642 131.095 31.488 131.375 31.18C131.665 30.872 131.809 30.4473 131.809 29.906V26.056C131.809 25.9627 131.842 25.8833 131.907 25.818C131.973 25.7527 132.052 25.72 132.145 25.72H133.377C133.471 25.72 133.55 25.7527 133.615 25.818C133.681 25.8833 133.713 25.9627 133.713 26.056V32.664C133.713 32.7573 133.681 32.8367 133.615 32.902C133.55 32.9673 133.471 33 133.377 33H132.243C132.141 33 132.057 32.9673 131.991 32.902C131.935 32.8367 131.907 32.7573 131.907 32.664V32.09C131.655 32.4167 131.343 32.6733 130.969 32.86C130.596 33.0467 130.129 33.14 129.569 33.14ZM135.913 33C135.819 33 135.74 32.9673 135.675 32.902C135.609 32.8367 135.577 32.7573 135.577 32.664V23.396C135.577 23.3027 135.609 23.2233 135.675 23.158C135.74 23.0927 135.819 23.06 135.913 23.06H137.047C137.149 23.06 137.229 23.0927 137.285 23.158C137.35 23.2233 137.383 23.3027 137.383 23.396V28.184L139.735 25.958C139.819 25.8833 139.893 25.8273 139.959 25.79C140.024 25.7433 140.122 25.72 140.253 25.72H141.555C141.648 25.72 141.723 25.748 141.779 25.804C141.835 25.86 141.863 25.9347 141.863 26.028C141.863 26.0653 141.853 26.1073 141.835 26.154C141.816 26.2007 141.779 26.2427 141.723 26.28L138.839 28.982L142.073 32.454C142.166 32.5473 142.213 32.6267 142.213 32.692C142.213 32.7853 142.18 32.86 142.115 32.916C142.059 32.972 141.989 33 141.905 33H140.575C140.435 33 140.332 32.9813 140.267 32.944C140.211 32.8973 140.141 32.8367 140.057 32.762L137.383 29.948V32.664C137.383 32.7573 137.35 32.8367 137.285 32.902C137.229 32.9673 137.149 33 137.047 33H135.913ZM148.682 33C148.588 33 148.509 32.9673 148.444 32.902C148.378 32.8367 148.346 32.7573 148.346 32.664V24.922H145.756C145.662 24.922 145.583 24.8893 145.518 24.824C145.452 24.7587 145.42 24.6793 145.42 24.586V23.55C145.42 23.4473 145.452 23.3633 145.518 23.298C145.583 23.2327 145.662 23.2 145.756 23.2H152.896C152.998 23.2 153.082 23.2327 153.148 23.298C153.213 23.3633 153.246 23.4473 153.246 23.55V24.586C153.246 24.6793 153.213 24.7587 153.148 24.824C153.082 24.8893 152.998 24.922 152.896 24.922H150.32V32.664C150.32 32.7573 150.287 32.8367 150.222 32.902C150.156 32.9673 150.072 33 149.97 33H148.682ZM154.752 33C154.659 33 154.58 32.9673 154.514 32.902C154.449 32.8367 154.416 32.7573 154.416 32.664V26.056C154.416 25.9627 154.449 25.8833 154.514 25.818C154.58 25.7527 154.659 25.72 154.752 25.72H155.914C156.017 25.72 156.096 25.7527 156.152 25.818C156.218 25.8833 156.25 25.9627 156.25 26.056V32.664C156.25 32.7573 156.218 32.8367 156.152 32.902C156.096 32.9673 156.017 33 155.914 33H154.752ZM154.696 24.516C154.594 24.516 154.51 24.488 154.444 24.432C154.388 24.3667 154.36 24.2827 154.36 24.18V23.172C154.36 23.0787 154.388 22.9993 154.444 22.934C154.51 22.8687 154.594 22.836 154.696 22.836H155.97C156.073 22.836 156.157 22.8687 156.222 22.934C156.288 22.9993 156.32 23.0787 156.32 23.172V24.18C156.32 24.2827 156.288 24.3667 156.222 24.432C156.157 24.488 156.073 24.516 155.97 24.516H154.696ZM160.222 33.14C159.736 33.14 159.298 33.0467 158.906 32.86C158.514 32.664 158.201 32.4073 157.968 32.09C157.744 31.7633 157.632 31.3993 157.632 30.998C157.632 30.3447 157.893 29.8267 158.416 29.444C158.948 29.052 159.648 28.7907 160.516 28.66L162.434 28.38V28.086C162.434 27.694 162.336 27.3907 162.14 27.176C161.944 26.9613 161.608 26.854 161.132 26.854C160.796 26.854 160.52 26.924 160.306 27.064C160.1 27.1947 159.946 27.372 159.844 27.596C159.769 27.7173 159.662 27.778 159.522 27.778H158.416C158.313 27.778 158.234 27.75 158.178 27.694C158.131 27.638 158.108 27.5633 158.108 27.47C158.117 27.3207 158.178 27.1387 158.29 26.924C158.402 26.7093 158.579 26.504 158.822 26.308C159.064 26.1027 159.377 25.93 159.76 25.79C160.142 25.65 160.604 25.58 161.146 25.58C161.734 25.58 162.228 25.6547 162.63 25.804C163.04 25.944 163.367 26.1353 163.61 26.378C163.852 26.6207 164.03 26.9053 164.142 27.232C164.254 27.5587 164.31 27.904 164.31 28.268V32.664C164.31 32.7573 164.277 32.8367 164.212 32.902C164.146 32.9673 164.067 33 163.974 33H162.84C162.737 33 162.653 32.9673 162.588 32.902C162.532 32.8367 162.504 32.7573 162.504 32.664V32.118C162.382 32.2953 162.219 32.4633 162.014 32.622C161.808 32.7713 161.556 32.8973 161.258 33C160.968 33.0933 160.623 33.14 160.222 33.14ZM160.698 31.81C161.024 31.81 161.318 31.74 161.58 31.6C161.85 31.46 162.06 31.2453 162.21 30.956C162.368 30.6573 162.448 30.284 162.448 29.836V29.542L161.048 29.766C160.497 29.85 160.086 29.9853 159.816 30.172C159.545 30.3587 159.41 30.5873 159.41 30.858C159.41 31.0633 159.47 31.2407 159.592 31.39C159.722 31.53 159.886 31.6373 160.082 31.712C160.278 31.7773 160.483 31.81 160.698 31.81ZM166.456 35.66C166.362 35.66 166.283 35.6273 166.218 35.562C166.152 35.4967 166.12 35.4173 166.12 35.324V26.056C166.12 25.9627 166.152 25.8833 166.218 25.818C166.283 25.7527 166.362 25.72 166.456 25.72H167.562C167.664 25.72 167.744 25.7527 167.8 25.818C167.865 25.8833 167.898 25.9627 167.898 26.056V26.616C168.122 26.3173 168.416 26.07 168.78 25.874C169.144 25.678 169.596 25.58 170.138 25.58C170.632 25.58 171.062 25.6593 171.426 25.818C171.79 25.9767 172.093 26.2053 172.336 26.504C172.578 26.7933 172.765 27.1387 172.896 27.54C173.026 27.9413 173.101 28.3847 173.12 28.87C173.129 29.0287 173.134 29.192 173.134 29.36C173.134 29.528 173.129 29.696 173.12 29.864C173.11 30.3307 173.04 30.7647 172.91 31.166C172.779 31.558 172.588 31.9033 172.336 32.202C172.093 32.4913 171.79 32.72 171.426 32.888C171.062 33.056 170.632 33.14 170.138 33.14C169.634 33.14 169.204 33.0513 168.85 32.874C168.495 32.6873 168.206 32.4447 167.982 32.146V35.324C167.982 35.4173 167.949 35.4967 167.884 35.562C167.828 35.6273 167.748 35.66 167.646 35.66H166.456ZM169.62 31.642C170.021 31.642 170.334 31.558 170.558 31.39C170.782 31.2127 170.94 30.984 171.034 30.704C171.136 30.424 171.197 30.116 171.216 29.78C171.234 29.5 171.234 29.22 171.216 28.94C171.197 28.604 171.136 28.296 171.034 28.016C170.94 27.736 170.782 27.512 170.558 27.344C170.334 27.1667 170.021 27.078 169.62 27.078C169.237 27.078 168.924 27.1667 168.682 27.344C168.448 27.5213 168.276 27.75 168.164 28.03C168.061 28.3007 168 28.5807 167.982 28.87C167.972 29.038 167.968 29.2153 167.968 29.402C167.968 29.5887 167.972 29.7707 167.982 29.948C167.991 30.228 168.056 30.4987 168.178 30.76C168.299 31.012 168.476 31.222 168.71 31.39C168.943 31.558 169.246 31.642 169.62 31.642ZM178.408 33C178.315 33 178.236 32.9673 178.17 32.902C178.105 32.8367 178.072 32.7573 178.072 32.664V23.55C178.072 23.4473 178.105 23.3633 178.17 23.298C178.236 23.2327 178.315 23.2 178.408 23.2H181.824C182.767 23.2 183.542 23.3447 184.148 23.634C184.764 23.9233 185.226 24.3527 185.534 24.922C185.852 25.4913 186.015 26.1867 186.024 27.008C186.043 27.4187 186.052 27.7827 186.052 28.1C186.052 28.4173 186.043 28.7767 186.024 29.178C186.006 30.046 185.847 30.7647 185.548 31.334C185.25 31.894 184.797 32.314 184.19 32.594C183.593 32.8647 182.828 33 181.894 33H178.408ZM180.018 31.39H181.824C182.347 31.39 182.772 31.3153 183.098 31.166C183.425 31.0167 183.663 30.7787 183.812 30.452C183.971 30.116 184.055 29.6773 184.064 29.136C184.074 28.856 184.078 28.6133 184.078 28.408C184.088 28.1933 184.088 27.9833 184.078 27.778C184.078 27.5633 184.074 27.3207 184.064 27.05C184.046 26.2847 183.854 25.72 183.49 25.356C183.126 24.992 182.548 24.81 181.754 24.81H180.018V31.39ZM190.45 33.14C189.881 33.14 189.386 33.014 188.966 32.762C188.556 32.5007 188.238 32.1367 188.014 31.67C187.79 31.194 187.678 30.634 187.678 29.99V26.056C187.678 25.9627 187.711 25.8833 187.776 25.818C187.842 25.7527 187.921 25.72 188.014 25.72H189.246C189.349 25.72 189.428 25.7527 189.484 25.818C189.55 25.8833 189.582 25.9627 189.582 26.056V29.906C189.582 31.0633 190.091 31.642 191.108 31.642C191.594 31.642 191.976 31.488 192.256 31.18C192.546 30.872 192.69 30.4473 192.69 29.906V26.056C192.69 25.9627 192.723 25.8833 192.788 25.818C192.854 25.7527 192.933 25.72 193.026 25.72H194.258C194.352 25.72 194.431 25.7527 194.496 25.818C194.562 25.8833 194.594 25.9627 194.594 26.056V32.664C194.594 32.7573 194.562 32.8367 194.496 32.902C194.431 32.9673 194.352 33 194.258 33H193.124C193.022 33 192.938 32.9673 192.872 32.902C192.816 32.8367 192.788 32.7573 192.788 32.664V32.09C192.536 32.4167 192.224 32.6733 191.85 32.86C191.477 33.0467 191.01 33.14 190.45 33.14ZM199.202 33.14C198.642 33.14 198.161 33.0747 197.76 32.944C197.368 32.8133 197.046 32.65 196.794 32.454C196.542 32.258 196.355 32.062 196.234 31.866C196.112 31.67 196.047 31.5067 196.038 31.376C196.028 31.2733 196.056 31.194 196.122 31.138C196.196 31.0727 196.276 31.04 196.36 31.04H197.466C197.503 31.04 197.536 31.0447 197.564 31.054C197.592 31.0633 197.629 31.0913 197.676 31.138C197.797 31.2407 197.923 31.348 198.054 31.46C198.194 31.572 198.357 31.67 198.544 31.754C198.73 31.8287 198.964 31.866 199.244 31.866C199.608 31.866 199.911 31.796 200.154 31.656C200.406 31.5067 200.532 31.2967 200.532 31.026C200.532 30.83 200.476 30.6713 200.364 30.55C200.261 30.4287 200.065 30.3213 199.776 30.228C199.486 30.1253 199.076 30.018 198.544 29.906C198.021 29.7847 197.587 29.6307 197.242 29.444C196.896 29.2573 196.64 29.024 196.472 28.744C196.304 28.464 196.22 28.1373 196.22 27.764C196.22 27.4 196.327 27.0547 196.542 26.728C196.766 26.392 197.092 26.1167 197.522 25.902C197.96 25.6873 198.502 25.58 199.146 25.58C199.65 25.58 200.088 25.6453 200.462 25.776C200.835 25.8973 201.143 26.0513 201.386 26.238C201.638 26.4247 201.829 26.616 201.96 26.812C202.09 26.9987 202.16 27.162 202.17 27.302C202.179 27.4047 202.151 27.4887 202.086 27.554C202.02 27.61 201.946 27.638 201.862 27.638H200.826C200.779 27.638 200.737 27.6287 200.7 27.61C200.662 27.5913 200.625 27.568 200.588 27.54C200.485 27.4467 200.373 27.3487 200.252 27.246C200.13 27.1433 199.981 27.0547 199.804 26.98C199.636 26.896 199.412 26.854 199.132 26.854C198.777 26.854 198.506 26.9333 198.32 27.092C198.133 27.2413 198.04 27.4327 198.04 27.666C198.04 27.8247 198.082 27.9647 198.166 28.086C198.259 28.198 198.441 28.3053 198.712 28.408C198.982 28.5107 199.393 28.618 199.944 28.73C200.569 28.842 201.064 29.01 201.428 29.234C201.801 29.4487 202.062 29.7007 202.212 29.99C202.37 30.27 202.45 30.5827 202.45 30.928C202.45 31.348 202.324 31.726 202.072 32.062C201.829 32.398 201.465 32.664 200.98 32.86C200.504 33.0467 199.911 33.14 199.202 33.14ZM206.597 33.14C206.027 33.14 205.533 33.014 205.113 32.762C204.702 32.5007 204.385 32.1367 204.161 31.67C203.937 31.194 203.825 30.634 203.825 29.99V26.056C203.825 25.9627 203.857 25.8833 203.923 25.818C203.988 25.7527 204.067 25.72 204.161 25.72H205.393C205.495 25.72 205.575 25.7527 205.631 25.818C205.696 25.8833 205.729 25.9627 205.729 26.056V29.906C205.729 31.0633 206.237 31.642 207.255 31.642C207.74 31.642 208.123 31.488 208.403 31.18C208.692 30.872 208.837 30.4473 208.837 29.906V26.056C208.837 25.9627 208.869 25.8833 208.935 25.818C209 25.7527 209.079 25.72 209.173 25.72H210.405C210.498 25.72 210.577 25.7527 210.643 25.818C210.708 25.8833 210.741 25.9627 210.741 26.056V32.664C210.741 32.7573 210.708 32.8367 210.643 32.902C210.577 32.9673 210.498 33 210.405 33H209.271C209.168 33 209.084 32.9673 209.019 32.902C208.963 32.8367 208.935 32.7573 208.935 32.664V32.09C208.683 32.4167 208.37 32.6733 207.997 32.86C207.623 33.0467 207.157 33.14 206.597 33.14ZM212.926 33C212.833 33 212.753 32.9673 212.688 32.902C212.623 32.8367 212.59 32.7573 212.59 32.664V26.056C212.59 25.9627 212.623 25.8833 212.688 25.818C212.753 25.7527 212.833 25.72 212.926 25.72H214.074C214.167 25.72 214.247 25.7527 214.312 25.818C214.377 25.8833 214.41 25.9627 214.41 26.056V26.63C214.653 26.3313 214.961 26.084 215.334 25.888C215.717 25.6827 216.188 25.58 216.748 25.58C217.317 25.58 217.812 25.7107 218.232 25.972C218.652 26.224 218.974 26.5833 219.198 27.05C219.431 27.5167 219.548 28.0767 219.548 28.73V32.664C219.548 32.7573 219.515 32.8367 219.45 32.902C219.385 32.9673 219.305 33 219.212 33H217.98C217.887 33 217.807 32.9673 217.742 32.902C217.677 32.8367 217.644 32.7573 217.644 32.664V28.814C217.644 28.2727 217.509 27.848 217.238 27.54C216.977 27.232 216.594 27.078 216.09 27.078C215.605 27.078 215.217 27.232 214.928 27.54C214.639 27.848 214.494 28.2727 214.494 28.814V32.664C214.494 32.7573 214.461 32.8367 214.396 32.902C214.331 32.9673 214.251 33 214.158 33H212.926Z" fill="#44556C"/>
<path d="M261.878 171C261.878 189.685 255.713 207.847 244.338 222.671C232.964 237.494 217.016 248.15 198.968 252.986C180.92 257.822 161.781 256.568 144.519 249.417C127.256 242.267 112.836 229.621 103.494 213.439L118.195 204.952C125.669 217.897 137.205 228.014 151.015 233.734C164.825 239.454 180.136 240.458 194.575 236.589C209.013 232.72 221.771 224.196 230.871 212.337C239.97 200.478 244.903 185.948 244.903 171H261.878Z" fill="#2161D5"/>
<path d="M99.5994 210.726C92.0615 196.039 88.8576 179.511 90.362 163.072C91.8664 146.632 98.017 130.96 108.095 117.885C118.174 104.811 131.764 94.8736 147.279 89.2341C162.794 83.5946 179.593 82.4856 195.715 86.0368L191.972 103.029C179.075 100.189 165.635 101.076 153.223 105.587C140.811 110.099 129.939 118.049 121.876 128.508C113.814 138.968 108.893 151.506 107.69 164.657C106.486 177.809 109.049 191.031 115.08 202.781L99.5994 210.726Z" fill="#97ACD1"/>
<path d="M198.968 89.0145C213.36 92.8707 226.483 100.447 237.018 110.983C247.553 121.518 255.13 134.641 258.986 149.032L242.589 153.426C239.504 141.913 233.443 131.414 225.014 122.986C216.586 114.558 206.088 108.497 194.575 105.412L198.968 89.0145Z" fill="#898BE7"/>
<path d="M258.986 149.032C260.906 156.197 261.878 163.583 261.878 171H244.903C244.903 165.066 244.125 159.158 242.589 153.426L258.986 149.032Z" fill="#89AFE7"/>
<path d="M142 261L155.043 274.043H176.631" stroke="black" stroke-opacity="0.2" stroke-width="0.899497"/>
<rect x="180" y="269.5" width="8" height="7" fill="#2161D5"/>
<path d="M193.32 277C193.232 277 193.164 276.976 193.116 276.928C193.068 276.872 193.044 276.804 193.044 276.724V268.888C193.044 268.8 193.068 268.732 193.116 268.684C193.164 268.628 193.232 268.6 193.32 268.6H196.044C196.868 268.6 197.532 268.724 198.036 268.972C198.54 269.22 198.908 269.588 199.14 270.076C199.372 270.556 199.492 271.148 199.5 271.852C199.508 272.212 199.512 272.528 199.512 272.8C199.512 273.072 199.508 273.384 199.5 273.736C199.484 274.472 199.36 275.084 199.128 275.572C198.904 276.052 198.544 276.412 198.048 276.652C197.56 276.884 196.912 277 196.104 277H193.32ZM194.22 275.98H196.044C196.596 275.98 197.036 275.904 197.364 275.752C197.692 275.6 197.928 275.356 198.072 275.02C198.224 274.684 198.304 274.24 198.312 273.688C198.328 273.448 198.336 273.24 198.336 273.064C198.336 272.88 198.336 272.7 198.336 272.524C198.336 272.34 198.328 272.132 198.312 271.9C198.296 271.124 198.112 270.552 197.76 270.184C197.408 269.808 196.816 269.62 195.984 269.62H194.22V275.98ZM204.089 277.12C203.577 277.12 203.141 277.008 202.781 276.784C202.429 276.552 202.161 276.232 201.977 275.824C201.793 275.416 201.701 274.948 201.701 274.42V271.036C201.701 270.956 201.725 270.892 201.773 270.844C201.829 270.788 201.897 270.76 201.977 270.76H202.577C202.657 270.76 202.721 270.788 202.769 270.844C202.825 270.892 202.853 270.956 202.853 271.036V274.36C202.853 275.552 203.373 276.148 204.413 276.148C204.909 276.148 205.305 275.992 205.601 275.68C205.905 275.36 206.057 274.92 206.057 274.36V271.036C206.057 270.956 206.081 270.892 206.129 270.844C206.185 270.788 206.253 270.76 206.333 270.76H206.921C207.009 270.76 207.077 270.788 207.125 270.844C207.173 270.892 207.197 270.956 207.197 271.036V276.724C207.197 276.804 207.173 276.872 207.125 276.928C207.077 276.976 207.009 277 206.921 277H206.369C206.289 277 206.221 276.976 206.165 276.928C206.117 276.872 206.093 276.804 206.093 276.724V276.196C205.877 276.476 205.613 276.7 205.301 276.868C204.997 277.036 204.593 277.12 204.089 277.12ZM211.74 277.12C211.292 277.12 210.908 277.064 210.588 276.952C210.268 276.84 210.008 276.704 209.808 276.544C209.608 276.384 209.456 276.224 209.352 276.064C209.256 275.904 209.204 275.776 209.196 275.68C209.188 275.592 209.216 275.524 209.28 275.476C209.344 275.428 209.408 275.404 209.472 275.404H210C210.048 275.404 210.084 275.412 210.108 275.428C210.14 275.436 210.18 275.468 210.228 275.524C210.332 275.636 210.448 275.748 210.576 275.86C210.704 275.972 210.86 276.064 211.044 276.136C211.236 276.208 211.472 276.244 211.752 276.244C212.16 276.244 212.496 276.168 212.76 276.016C213.024 275.856 213.156 275.624 213.156 275.32C213.156 275.12 213.1 274.96 212.988 274.84C212.884 274.72 212.692 274.612 212.412 274.516C212.14 274.42 211.764 274.32 211.284 274.216C210.804 274.104 210.424 273.968 210.144 273.808C209.864 273.64 209.664 273.444 209.544 273.22C209.424 272.988 209.364 272.728 209.364 272.44C209.364 272.144 209.452 271.86 209.628 271.588C209.804 271.308 210.06 271.08 210.396 270.904C210.74 270.728 211.168 270.64 211.68 270.64C212.096 270.64 212.452 270.692 212.748 270.796C213.044 270.9 213.288 271.032 213.48 271.192C213.672 271.344 213.816 271.496 213.912 271.648C214.008 271.8 214.06 271.928 214.068 272.032C214.076 272.112 214.052 272.18 213.996 272.236C213.94 272.284 213.876 272.308 213.804 272.308H213.3C213.244 272.308 213.196 272.296 213.156 272.272C213.124 272.248 213.092 272.22 213.06 272.188C212.98 272.084 212.884 271.98 212.772 271.876C212.668 271.772 212.528 271.688 212.352 271.624C212.184 271.552 211.96 271.516 211.68 271.516C211.28 271.516 210.98 271.6 210.78 271.768C210.58 271.936 210.48 272.148 210.48 272.404C210.48 272.556 210.524 272.692 210.612 272.812C210.7 272.932 210.868 273.04 211.116 273.136C211.364 273.232 211.732 273.336 212.22 273.448C212.748 273.552 213.164 273.692 213.468 273.868C213.772 274.044 213.988 274.248 214.116 274.48C214.244 274.712 214.308 274.98 214.308 275.284C214.308 275.62 214.208 275.928 214.008 276.208C213.816 276.488 213.528 276.712 213.144 276.88C212.768 277.04 212.3 277.12 211.74 277.12ZM218.625 277.12C218.113 277.12 217.677 277.008 217.317 276.784C216.965 276.552 216.697 276.232 216.513 275.824C216.329 275.416 216.237 274.948 216.237 274.42V271.036C216.237 270.956 216.261 270.892 216.309 270.844C216.365 270.788 216.433 270.76 216.513 270.76H217.113C217.193 270.76 217.257 270.788 217.305 270.844C217.361 270.892 217.389 270.956 217.389 271.036V274.36C217.389 275.552 217.909 276.148 218.949 276.148C219.445 276.148 219.841 275.992 220.137 275.68C220.441 275.36 220.593 274.92 220.593 274.36V271.036C220.593 270.956 220.617 270.892 220.665 270.844C220.721 270.788 220.789 270.76 220.869 270.76H221.457C221.545 270.76 221.613 270.788 221.661 270.844C221.709 270.892 221.733 270.956 221.733 271.036V276.724C221.733 276.804 221.709 276.872 221.661 276.928C221.613 276.976 221.545 277 221.457 277H220.905C220.825 277 220.757 276.976 220.701 276.928C220.653 276.872 220.629 276.804 220.629 276.724V276.196C220.413 276.476 220.149 276.7 219.837 276.868C219.533 277.036 219.129 277.12 218.625 277.12ZM224.392 277C224.312 277 224.244 276.976 224.188 276.928C224.14 276.872 224.116 276.804 224.116 276.724V271.036C224.116 270.956 224.14 270.892 224.188 270.844C224.244 270.788 224.312 270.76 224.392 270.76H224.956C225.036 270.76 225.1 270.788 225.148 270.844C225.204 270.892 225.232 270.956 225.232 271.036V271.564C225.44 271.292 225.7 271.072 226.012 270.904C226.332 270.728 226.74 270.64 227.236 270.64C227.756 270.64 228.196 270.756 228.556 270.988C228.924 271.212 229.2 271.528 229.384 271.936C229.568 272.336 229.66 272.804 229.66 273.34V276.724C229.66 276.804 229.636 276.872 229.588 276.928C229.54 276.976 229.476 277 229.396 277H228.796C228.716 277 228.648 276.976 228.592 276.928C228.544 276.872 228.52 276.804 228.52 276.724V273.4C228.52 272.84 228.384 272.404 228.112 272.092C227.84 271.772 227.44 271.612 226.912 271.612C226.416 271.612 226.016 271.772 225.712 272.092C225.416 272.404 225.268 272.84 225.268 273.4V276.724C225.268 276.804 225.24 276.872 225.184 276.928C225.136 276.976 225.072 277 224.992 277H224.392ZM238.223 277.12C237.719 277.12 237.279 277.06 236.903 276.94C236.527 276.812 236.211 276.644 235.955 276.436C235.699 276.228 235.503 276 235.367 275.752C235.239 275.504 235.171 275.248 235.163 274.984C235.163 274.912 235.187 274.856 235.235 274.816C235.283 274.776 235.343 274.756 235.415 274.756H236.003C236.075 274.756 236.139 274.772 236.195 274.804C236.251 274.836 236.299 274.904 236.339 275.008C236.419 275.296 236.555 275.52 236.747 275.68C236.947 275.84 237.175 275.952 237.431 276.016C237.695 276.072 237.959 276.1 238.223 276.1C238.775 276.1 239.223 275.968 239.567 275.704C239.911 275.44 240.083 275.052 240.083 274.54C240.083 274.02 239.927 273.648 239.615 273.424C239.303 273.2 238.871 273.088 238.319 273.088H237.179C237.099 273.088 237.031 273.064 236.975 273.016C236.927 272.968 236.903 272.9 236.903 272.812V272.488C236.903 272.416 236.915 272.356 236.939 272.308C236.971 272.252 237.003 272.204 237.035 272.164L239.363 269.62H235.823C235.743 269.62 235.675 269.596 235.619 269.548C235.571 269.5 235.547 269.432 235.547 269.344V268.888C235.547 268.8 235.571 268.732 235.619 268.684C235.675 268.628 235.743 268.6 235.823 268.6H240.611C240.699 268.6 240.767 268.628 240.815 268.684C240.871 268.732 240.899 268.8 240.899 268.888V269.32C240.899 269.376 240.883 269.428 240.851 269.476C240.827 269.516 240.799 269.556 240.767 269.596L238.451 272.176L238.643 272.188C239.171 272.204 239.631 272.3 240.023 272.476C240.423 272.652 240.731 272.916 240.947 273.268C241.171 273.612 241.283 274.048 241.283 274.576C241.283 275.112 241.151 275.572 240.887 275.956C240.623 276.332 240.259 276.62 239.795 276.82C239.331 277.02 238.807 277.12 238.223 277.12Z" fill="#8697A8" fill-opacity="0.85"/>
<path d="M239 103L247.475 92H259" stroke="black" stroke-opacity="0.2" stroke-width="0.899497"/>
<rect x="263" y="84" width="8" height="7" fill="#7375C7"/>
<path d="M264.32 106C264.232 106 264.164 105.976 264.116 105.928C264.068 105.872 264.044 105.804 264.044 105.724V97.888C264.044 97.8 264.068 97.732 264.116 97.684C264.164 97.628 264.232 97.6 264.32 97.6H267.044C267.868 97.6 268.532 97.724 269.036 97.972C269.54 98.22 269.908 98.588 270.14 99.076C270.372 99.556 270.492 100.148 270.5 100.852C270.508 101.212 270.512 101.528 270.512 101.8C270.512 102.072 270.508 102.384 270.5 102.736C270.484 103.472 270.36 104.084 270.128 104.572C269.904 105.052 269.544 105.412 269.048 105.652C268.56 105.884 267.912 106 267.104 106H264.32ZM265.22 104.98H267.044C267.596 104.98 268.036 104.904 268.364 104.752C268.692 104.6 268.928 104.356 269.072 104.02C269.224 103.684 269.304 103.24 269.312 102.688C269.328 102.448 269.336 102.24 269.336 102.064C269.336 101.88 269.336 101.7 269.336 101.524C269.336 101.34 269.328 101.132 269.312 100.9C269.296 100.124 269.112 99.552 268.76 99.184C268.408 98.808 267.816 98.62 266.984 98.62H265.22V104.98ZM275.089 106.12C274.577 106.12 274.141 106.008 273.781 105.784C273.429 105.552 273.161 105.232 272.977 104.824C272.793 104.416 272.701 103.948 272.701 103.42V100.036C272.701 99.956 272.725 99.892 272.773 99.844C272.829 99.788 272.897 99.76 272.977 99.76H273.577C273.657 99.76 273.721 99.788 273.769 99.844C273.825 99.892 273.853 99.956 273.853 100.036V103.36C273.853 104.552 274.373 105.148 275.413 105.148C275.909 105.148 276.305 104.992 276.601 104.68C276.905 104.36 277.057 103.92 277.057 103.36V100.036C277.057 99.956 277.081 99.892 277.129 99.844C277.185 99.788 277.253 99.76 277.333 99.76H277.921C278.009 99.76 278.077 99.788 278.125 99.844C278.173 99.892 278.197 99.956 278.197 100.036V105.724C278.197 105.804 278.173 105.872 278.125 105.928C278.077 105.976 278.009 106 277.921 106H277.369C277.289 106 277.221 105.976 277.165 105.928C277.117 105.872 277.093 105.804 277.093 105.724V105.196C276.877 105.476 276.613 105.7 276.301 105.868C275.997 106.036 275.593 106.12 275.089 106.12ZM282.74 106.12C282.292 106.12 281.908 106.064 281.588 105.952C281.268 105.84 281.008 105.704 280.808 105.544C280.608 105.384 280.456 105.224 280.352 105.064C280.256 104.904 280.204 104.776 280.196 104.68C280.188 104.592 280.216 104.524 280.28 104.476C280.344 104.428 280.408 104.404 280.472 104.404H281C281.048 104.404 281.084 104.412 281.108 104.428C281.14 104.436 281.18 104.468 281.228 104.524C281.332 104.636 281.448 104.748 281.576 104.86C281.704 104.972 281.86 105.064 282.044 105.136C282.236 105.208 282.472 105.244 282.752 105.244C283.16 105.244 283.496 105.168 283.76 105.016C284.024 104.856 284.156 104.624 284.156 104.32C284.156 104.12 284.1 103.96 283.988 103.84C283.884 103.72 283.692 103.612 283.412 103.516C283.14 103.42 282.764 103.32 282.284 103.216C281.804 103.104 281.424 102.968 281.144 102.808C280.864 102.64 280.664 102.444 280.544 102.22C280.424 101.988 280.364 101.728 280.364 101.44C280.364 101.144 280.452 100.86 280.628 100.588C280.804 100.308 281.06 100.08 281.396 99.904C281.74 99.728 282.168 99.64 282.68 99.64C283.096 99.64 283.452 99.692 283.748 99.796C284.044 99.9 284.288 100.032 284.48 100.192C284.672 100.344 284.816 100.496 284.912 100.648C285.008 100.8 285.06 100.928 285.068 101.032C285.076 101.112 285.052 101.18 284.996 101.236C284.94 101.284 284.876 101.308 284.804 101.308H284.3C284.244 101.308 284.196 101.296 284.156 101.272C284.124 101.248 284.092 101.22 284.06 101.188C283.98 101.084 283.884 100.98 283.772 100.876C283.668 100.772 283.528 100.688 283.352 100.624C283.184 100.552 282.96 100.516 282.68 100.516C282.28 100.516 281.98 100.6 281.78 100.768C281.58 100.936 281.48 101.148 281.48 101.404C281.48 101.556 281.524 101.692 281.612 101.812C281.7 101.932 281.868 102.04 282.116 102.136C282.364 102.232 282.732 102.336 283.22 102.448C283.748 102.552 284.164 102.692 284.468 102.868C284.772 103.044 284.988 103.248 285.116 103.48C285.244 103.712 285.308 103.98 285.308 104.284C285.308 104.62 285.208 104.928 285.008 105.208C284.816 105.488 284.528 105.712 284.144 105.88C283.768 106.04 283.3 106.12 282.74 106.12ZM289.625 106.12C289.113 106.12 288.677 106.008 288.317 105.784C287.965 105.552 287.697 105.232 287.513 104.824C287.329 104.416 287.237 103.948 287.237 103.42V100.036C287.237 99.956 287.261 99.892 287.309 99.844C287.365 99.788 287.433 99.76 287.513 99.76H288.113C288.193 99.76 288.257 99.788 288.305 99.844C288.361 99.892 288.389 99.956 288.389 100.036V103.36C288.389 104.552 288.909 105.148 289.949 105.148C290.445 105.148 290.841 104.992 291.137 104.68C291.441 104.36 291.593 103.92 291.593 103.36V100.036C291.593 99.956 291.617 99.892 291.665 99.844C291.721 99.788 291.789 99.76 291.869 99.76H292.457C292.545 99.76 292.613 99.788 292.661 99.844C292.709 99.892 292.733 99.956 292.733 100.036V105.724C292.733 105.804 292.709 105.872 292.661 105.928C292.613 105.976 292.545 106 292.457 106H291.905C291.825 106 291.757 105.976 291.701 105.928C291.653 105.872 291.629 105.804 291.629 105.724V105.196C291.413 105.476 291.149 105.7 290.837 105.868C290.533 106.036 290.129 106.12 289.625 106.12ZM295.392 106C295.312 106 295.244 105.976 295.188 105.928C295.14 105.872 295.116 105.804 295.116 105.724V100.036C295.116 99.956 295.14 99.892 295.188 99.844C295.244 99.788 295.312 99.76 295.392 99.76H295.956C296.036 99.76 296.1 99.788 296.148 99.844C296.204 99.892 296.232 99.956 296.232 100.036V100.564C296.44 100.292 296.7 100.072 297.012 99.904C297.332 99.728 297.74 99.64 298.236 99.64C298.756 99.64 299.196 99.756 299.556 99.988C299.924 100.212 300.2 100.528 300.384 100.936C300.568 101.336 300.66 101.804 300.66 102.34V105.724C300.66 105.804 300.636 105.872 300.588 105.928C300.54 105.976 300.476 106 300.396 106H299.796C299.716 106 299.648 105.976 299.592 105.928C299.544 105.872 299.52 105.804 299.52 105.724V102.4C299.52 101.84 299.384 101.404 299.112 101.092C298.84 100.772 298.44 100.612 297.912 100.612C297.416 100.612 297.016 100.772 296.712 101.092C296.416 101.404 296.268 101.84 296.268 102.4V105.724C296.268 105.804 296.24 105.872 296.184 105.928C296.136 105.976 296.072 106 295.992 106H295.392ZM309.223 106.12C308.719 106.12 308.279 106.06 307.903 105.94C307.527 105.812 307.211 105.644 306.955 105.436C306.699 105.228 306.503 105 306.367 104.752C306.239 104.504 306.171 104.248 306.163 103.984C306.163 103.912 306.187 103.856 306.235 103.816C306.283 103.776 306.343 103.756 306.415 103.756H307.003C307.075 103.756 307.139 103.772 307.195 103.804C307.251 103.836 307.299 103.904 307.339 104.008C307.419 104.296 307.555 104.52 307.747 104.68C307.947 104.84 308.175 104.952 308.431 105.016C308.695 105.072 308.959 105.1 309.223 105.1C309.775 105.1 310.223 104.968 310.567 104.704C310.911 104.44 311.083 104.052 311.083 103.54C311.083 103.02 310.927 102.648 310.615 102.424C310.303 102.2 309.871 102.088 309.319 102.088H308.179C308.099 102.088 308.031 102.064 307.975 102.016C307.927 101.968 307.903 101.9 307.903 101.812V101.488C307.903 101.416 307.915 101.356 307.939 101.308C307.971 101.252 308.003 101.204 308.035 101.164L310.363 98.62H306.823C306.743 98.62 306.675 98.596 306.619 98.548C306.571 98.5 306.547 98.432 306.547 98.344V97.888C306.547 97.8 306.571 97.732 306.619 97.684C306.675 97.628 306.743 97.6 306.823 97.6H311.611C311.699 97.6 311.767 97.628 311.815 97.684C311.871 97.732 311.899 97.8 311.899 97.888V98.32C311.899 98.376 311.883 98.428 311.851 98.476C311.827 98.516 311.799 98.556 311.767 98.596L309.451 101.176L309.643 101.188C310.171 101.204 310.631 101.3 311.023 101.476C311.423 101.652 311.731 101.916 311.947 102.268C312.171 102.612 312.283 103.048 312.283 103.576C312.283 104.112 312.151 104.572 311.887 104.956C311.623 105.332 311.259 105.62 310.795 105.82C310.331 106.02 309.807 106.12 309.223 106.12Z" fill="#8697A8" fill-opacity="0.85"/>
<path d="M263 164L267.661 171H274" stroke="black" stroke-opacity="0.2" stroke-width="0.899497"/>
<rect x="274" y="167" width="8" height="7" fill="#89AFE7"/>
<path d="M275.32 189C275.232 189 275.164 188.976 275.116 188.928C275.068 188.872 275.044 188.804 275.044 188.724V180.888C275.044 180.8 275.068 180.732 275.116 180.684C275.164 180.628 275.232 180.6 275.32 180.6H278.044C278.868 180.6 279.532 180.724 280.036 180.972C280.54 181.22 280.908 181.588 281.14 182.076C281.372 182.556 281.492 183.148 281.5 183.852C281.508 184.212 281.512 184.528 281.512 184.8C281.512 185.072 281.508 185.384 281.5 185.736C281.484 186.472 281.36 187.084 281.128 187.572C280.904 188.052 280.544 188.412 280.048 188.652C279.56 188.884 278.912 189 278.104 189H275.32ZM276.22 187.98H278.044C278.596 187.98 279.036 187.904 279.364 187.752C279.692 187.6 279.928 187.356 280.072 187.02C280.224 186.684 280.304 186.24 280.312 185.688C280.328 185.448 280.336 185.24 280.336 185.064C280.336 184.88 280.336 184.7 280.336 184.524C280.336 184.34 280.328 184.132 280.312 183.9C280.296 183.124 280.112 182.552 279.76 182.184C279.408 181.808 278.816 181.62 277.984 181.62H276.22V187.98ZM286.089 189.12C285.577 189.12 285.141 189.008 284.781 188.784C284.429 188.552 284.161 188.232 283.977 187.824C283.793 187.416 283.701 186.948 283.701 186.42V183.036C283.701 182.956 283.725 182.892 283.773 182.844C283.829 182.788 283.897 182.76 283.977 182.76H284.577C284.657 182.76 284.721 182.788 284.769 182.844C284.825 182.892 284.853 182.956 284.853 183.036V186.36C284.853 187.552 285.373 188.148 286.413 188.148C286.909 188.148 287.305 187.992 287.601 187.68C287.905 187.36 288.057 186.92 288.057 186.36V183.036C288.057 182.956 288.081 182.892 288.129 182.844C288.185 182.788 288.253 182.76 288.333 182.76H288.921C289.009 182.76 289.077 182.788 289.125 182.844C289.173 182.892 289.197 182.956 289.197 183.036V188.724C289.197 188.804 289.173 188.872 289.125 188.928C289.077 188.976 289.009 189 288.921 189H288.369C288.289 189 288.221 188.976 288.165 188.928C288.117 188.872 288.093 188.804 288.093 188.724V188.196C287.877 188.476 287.613 188.7 287.301 188.868C286.997 189.036 286.593 189.12 286.089 189.12ZM293.74 189.12C293.292 189.12 292.908 189.064 292.588 188.952C292.268 188.84 292.008 188.704 291.808 188.544C291.608 188.384 291.456 188.224 291.352 188.064C291.256 187.904 291.204 187.776 291.196 187.68C291.188 187.592 291.216 187.524 291.28 187.476C291.344 187.428 291.408 187.404 291.472 187.404H292C292.048 187.404 292.084 187.412 292.108 187.428C292.14 187.436 292.18 187.468 292.228 187.524C292.332 187.636 292.448 187.748 292.576 187.86C292.704 187.972 292.86 188.064 293.044 188.136C293.236 188.208 293.472 188.244 293.752 188.244C294.16 188.244 294.496 188.168 294.76 188.016C295.024 187.856 295.156 187.624 295.156 187.32C295.156 187.12 295.1 186.96 294.988 186.84C294.884 186.72 294.692 186.612 294.412 186.516C294.14 186.42 293.764 186.32 293.284 186.216C292.804 186.104 292.424 185.968 292.144 185.808C291.864 185.64 291.664 185.444 291.544 185.22C291.424 184.988 291.364 184.728 291.364 184.44C291.364 184.144 291.452 183.86 291.628 183.588C291.804 183.308 292.06 183.08 292.396 182.904C292.74 182.728 293.168 182.64 293.68 182.64C294.096 182.64 294.452 182.692 294.748 182.796C295.044 182.9 295.288 183.032 295.48 183.192C295.672 183.344 295.816 183.496 295.912 183.648C296.008 183.8 296.06 183.928 296.068 184.032C296.076 184.112 296.052 184.18 295.996 184.236C295.94 184.284 295.876 184.308 295.804 184.308H295.3C295.244 184.308 295.196 184.296 295.156 184.272C295.124 184.248 295.092 184.22 295.06 184.188C294.98 184.084 294.884 183.98 294.772 183.876C294.668 183.772 294.528 183.688 294.352 183.624C294.184 183.552 293.96 183.516 293.68 183.516C293.28 183.516 292.98 183.6 292.78 183.768C292.58 183.936 292.48 184.148 292.48 184.404C292.48 184.556 292.524 184.692 292.612 184.812C292.7 184.932 292.868 185.04 293.116 185.136C293.364 185.232 293.732 185.336 294.22 185.448C294.748 185.552 295.164 185.692 295.468 185.868C295.772 186.044 295.988 186.248 296.116 186.48C296.244 186.712 296.308 186.98 296.308 187.284C296.308 187.62 296.208 187.928 296.008 188.208C295.816 188.488 295.528 188.712 295.144 188.88C294.768 189.04 294.3 189.12 293.74 189.12ZM300.625 189.12C300.113 189.12 299.677 189.008 299.317 188.784C298.965 188.552 298.697 188.232 298.513 187.824C298.329 187.416 298.237 186.948 298.237 186.42V183.036C298.237 182.956 298.261 182.892 298.309 182.844C298.365 182.788 298.433 182.76 298.513 182.76H299.113C299.193 182.76 299.257 182.788 299.305 182.844C299.361 182.892 299.389 182.956 299.389 183.036V186.36C299.389 187.552 299.909 188.148 300.949 188.148C301.445 188.148 301.841 187.992 302.137 187.68C302.441 187.36 302.593 186.92 302.593 186.36V183.036C302.593 182.956 302.617 182.892 302.665 182.844C302.721 182.788 302.789 182.76 302.869 182.76H303.457C303.545 182.76 303.613 182.788 303.661 182.844C303.709 182.892 303.733 182.956 303.733 183.036V188.724C303.733 188.804 303.709 188.872 303.661 188.928C303.613 188.976 303.545 189 303.457 189H302.905C302.825 189 302.757 188.976 302.701 188.928C302.653 188.872 302.629 188.804 302.629 188.724V188.196C302.413 188.476 302.149 188.7 301.837 188.868C301.533 189.036 301.129 189.12 300.625 189.12ZM306.392 189C306.312 189 306.244 188.976 306.188 188.928C306.14 188.872 306.116 188.804 306.116 188.724V183.036C306.116 182.956 306.14 182.892 306.188 182.844C306.244 182.788 306.312 182.76 306.392 182.76H306.956C307.036 182.76 307.1 182.788 307.148 182.844C307.204 182.892 307.232 182.956 307.232 183.036V183.564C307.44 183.292 307.7 183.072 308.012 182.904C308.332 182.728 308.74 182.64 309.236 182.64C309.756 182.64 310.196 182.756 310.556 182.988C310.924 183.212 311.2 183.528 311.384 183.936C311.568 184.336 311.66 184.804 311.66 185.34V188.724C311.66 188.804 311.636 188.872 311.588 188.928C311.54 188.976 311.476 189 311.396 189H310.796C310.716 189 310.648 188.976 310.592 188.928C310.544 188.872 310.52 188.804 310.52 188.724V185.4C310.52 184.84 310.384 184.404 310.112 184.092C309.84 183.772 309.44 183.612 308.912 183.612C308.416 183.612 308.016 183.772 307.712 184.092C307.416 184.404 307.268 184.84 307.268 185.4V188.724C307.268 188.804 307.24 188.872 307.184 188.928C307.136 188.976 307.072 189 306.992 189H306.392ZM321.459 189C321.379 189 321.311 188.976 321.255 188.928C321.207 188.872 321.183 188.804 321.183 188.724V186.996H317.295C317.215 186.996 317.147 186.972 317.091 186.924C317.043 186.868 317.019 186.8 317.019 186.72V186.24C317.019 186.208 317.027 186.16 317.043 186.096C317.067 186.024 317.103 185.952 317.151 185.88L320.751 180.804C320.847 180.668 320.995 180.6 321.195 180.6H322.059C322.139 180.6 322.203 180.628 322.251 180.684C322.307 180.732 322.335 180.796 322.335 180.876V185.952H323.415C323.503 185.952 323.571 185.98 323.619 186.036C323.675 186.084 323.703 186.148 323.703 186.228V186.72C323.703 186.8 323.675 186.868 323.619 186.924C323.571 186.972 323.507 186.996 323.427 186.996H322.335V188.724C322.335 188.804 322.307 188.872 322.251 188.928C322.203 188.976 322.139 189 322.059 189H321.459ZM318.303 185.976H321.195V181.86L318.303 185.976Z" fill="#8697A8" fill-opacity="0.85"/>
<path d="M131 89L122.694 79H105" stroke="black" stroke-opacity="0.2" stroke-width="0.899497"/>
<rect x="34" y="75" width="8" height="7" fill="#97ACD1"/>
<path d="M46.32 82C46.232 82 46.164 81.976 46.116 81.928C46.068 81.872 46.044 81.804 46.044 81.724V73.888C46.044 73.8 46.068 73.732 46.116 73.684C46.164 73.628 46.232 73.6 46.32 73.6H49.044C49.868 73.6 50.532 73.724 51.036 73.972C51.54 74.22 51.908 74.588 52.14 75.076C52.372 75.556 52.492 76.148 52.5 76.852C52.508 77.212 52.512 77.528 52.512 77.8C52.512 78.072 52.508 78.384 52.5 78.736C52.484 79.472 52.36 80.084 52.128 80.572C51.904 81.052 51.544 81.412 51.048 81.652C50.56 81.884 49.912 82 49.104 82H46.32ZM47.22 80.98H49.044C49.596 80.98 50.036 80.904 50.364 80.752C50.692 80.6 50.928 80.356 51.072 80.02C51.224 79.684 51.304 79.24 51.312 78.688C51.328 78.448 51.336 78.24 51.336 78.064C51.336 77.88 51.336 77.7 51.336 77.524C51.336 77.34 51.328 77.132 51.312 76.9C51.296 76.124 51.112 75.552 50.76 75.184C50.408 74.808 49.816 74.62 48.984 74.62H47.22V80.98ZM57.0894 82.12C56.5774 82.12 56.1414 82.008 55.7814 81.784C55.4294 81.552 55.1614 81.232 54.9774 80.824C54.7934 80.416 54.7014 79.948 54.7014 79.42V76.036C54.7014 75.956 54.7254 75.892 54.7734 75.844C54.8294 75.788 54.8974 75.76 54.9774 75.76H55.5774C55.6574 75.76 55.7214 75.788 55.7694 75.844C55.8254 75.892 55.8534 75.956 55.8534 76.036V79.36C55.8534 80.552 56.3734 81.148 57.4134 81.148C57.9094 81.148 58.3054 80.992 58.6014 80.68C58.9054 80.36 59.0574 79.92 59.0574 79.36V76.036C59.0574 75.956 59.0814 75.892 59.1294 75.844C59.1854 75.788 59.2534 75.76 59.3334 75.76H59.9214C60.0094 75.76 60.0774 75.788 60.1254 75.844C60.1734 75.892 60.1974 75.956 60.1974 76.036V81.724C60.1974 81.804 60.1734 81.872 60.1254 81.928C60.0774 81.976 60.0094 82 59.9214 82H59.3694C59.2894 82 59.2214 81.976 59.1654 81.928C59.1174 81.872 59.0934 81.804 59.0934 81.724V81.196C58.8774 81.476 58.6134 81.7 58.3014 81.868C57.9974 82.036 57.5934 82.12 57.0894 82.12ZM64.7402 82.12C64.2922 82.12 63.9082 82.064 63.5882 81.952C63.2682 81.84 63.0082 81.704 62.8082 81.544C62.6082 81.384 62.4562 81.224 62.3522 81.064C62.2562 80.904 62.2042 80.776 62.1962 80.68C62.1882 80.592 62.2162 80.524 62.2802 80.476C62.3442 80.428 62.4082 80.404 62.4722 80.404H63.0002C63.0482 80.404 63.0842 80.412 63.1082 80.428C63.1402 80.436 63.1802 80.468 63.2282 80.524C63.3322 80.636 63.4482 80.748 63.5762 80.86C63.7042 80.972 63.8602 81.064 64.0442 81.136C64.2362 81.208 64.4722 81.244 64.7522 81.244C65.1602 81.244 65.4962 81.168 65.7602 81.016C66.0242 80.856 66.1562 80.624 66.1562 80.32C66.1562 80.12 66.1002 79.96 65.9882 79.84C65.8842 79.72 65.6922 79.612 65.4122 79.516C65.1402 79.42 64.7642 79.32 64.2842 79.216C63.8042 79.104 63.4242 78.968 63.1442 78.808C62.8642 78.64 62.6642 78.444 62.5442 78.22C62.4242 77.988 62.3642 77.728 62.3642 77.44C62.3642 77.144 62.4522 76.86 62.6282 76.588C62.8042 76.308 63.0602 76.08 63.3962 75.904C63.7402 75.728 64.1682 75.64 64.6802 75.64C65.0962 75.64 65.4522 75.692 65.7482 75.796C66.0442 75.9 66.2882 76.032 66.4802 76.192C66.6722 76.344 66.8162 76.496 66.9122 76.648C67.0082 76.8 67.0602 76.928 67.0682 77.032C67.0762 77.112 67.0522 77.18 66.9962 77.236C66.9402 77.284 66.8762 77.308 66.8042 77.308H66.3002C66.2442 77.308 66.1962 77.296 66.1562 77.272C66.1242 77.248 66.0922 77.22 66.0602 77.188C65.9802 77.084 65.8842 76.98 65.7722 76.876C65.6682 76.772 65.5282 76.688 65.3522 76.624C65.1842 76.552 64.9602 76.516 64.6802 76.516C64.2802 76.516 63.9802 76.6 63.7802 76.768C63.5802 76.936 63.4802 77.148 63.4802 77.404C63.4802 77.556 63.5242 77.692 63.6122 77.812C63.7002 77.932 63.8682 78.04 64.1162 78.136C64.3642 78.232 64.7322 78.336 65.2202 78.448C65.7482 78.552 66.1642 78.692 66.4682 78.868C66.7722 79.044 66.9882 79.248 67.1162 79.48C67.2442 79.712 67.3082 79.98 67.3082 80.284C67.3082 80.62 67.2082 80.928 67.0082 81.208C66.8162 81.488 66.5282 81.712 66.1442 81.88C65.7682 82.04 65.3002 82.12 64.7402 82.12ZM71.6254 82.12C71.1134 82.12 70.6774 82.008 70.3174 81.784C69.9654 81.552 69.6974 81.232 69.5134 80.824C69.3294 80.416 69.2374 79.948 69.2374 79.42V76.036C69.2374 75.956 69.2614 75.892 69.3094 75.844C69.3654 75.788 69.4334 75.76 69.5134 75.76H70.1134C70.1934 75.76 70.2574 75.788 70.3054 75.844C70.3614 75.892 70.3894 75.956 70.3894 76.036V79.36C70.3894 80.552 70.9094 81.148 71.9494 81.148C72.4454 81.148 72.8414 80.992 73.1374 80.68C73.4414 80.36 73.5934 79.92 73.5934 79.36V76.036C73.5934 75.956 73.6174 75.892 73.6654 75.844C73.7214 75.788 73.7894 75.76 73.8694 75.76H74.4574C74.5454 75.76 74.6134 75.788 74.6614 75.844C74.7094 75.892 74.7334 75.956 74.7334 76.036V81.724C74.7334 81.804 74.7094 81.872 74.6614 81.928C74.6134 81.976 74.5454 82 74.4574 82H73.9054C73.8254 82 73.7574 81.976 73.7014 81.928C73.6534 81.872 73.6294 81.804 73.6294 81.724V81.196C73.4134 81.476 73.1494 81.7 72.8374 81.868C72.5334 82.036 72.1294 82.12 71.6254 82.12ZM77.3921 82C77.3121 82 77.2441 81.976 77.1881 81.928C77.1401 81.872 77.1161 81.804 77.1161 81.724V76.036C77.1161 75.956 77.1401 75.892 77.1881 75.844C77.2441 75.788 77.3121 75.76 77.3921 75.76H77.9561C78.0361 75.76 78.1001 75.788 78.1481 75.844C78.2041 75.892 78.2321 75.956 78.2321 76.036V76.564C78.4401 76.292 78.7001 76.072 79.0121 75.904C79.3321 75.728 79.7401 75.64 80.2361 75.64C80.7561 75.64 81.1961 75.756 81.5561 75.988C81.9241 76.212 82.2001 76.528 82.3841 76.936C82.5681 77.336 82.6601 77.804 82.6601 78.34V81.724C82.6601 81.804 82.6361 81.872 82.5881 81.928C82.5401 81.976 82.4761 82 82.3961 82H81.7961C81.7161 82 81.6481 81.976 81.5921 81.928C81.5441 81.872 81.5201 81.804 81.5201 81.724V78.4C81.5201 77.84 81.3841 77.404 81.1121 77.092C80.8401 76.772 80.4401 76.612 79.9121 76.612C79.4161 76.612 79.0161 76.772 78.7121 77.092C78.4161 77.404 78.2681 77.84 78.2681 78.4V81.724C78.2681 81.804 78.2401 81.872 78.1841 81.928C78.1361 81.976 78.0721 82 77.9921 82H77.3921ZM88.5109 82C88.4309 82 88.3629 81.976 88.3069 81.928C88.2589 81.872 88.2349 81.804 88.2349 81.724V81.34C88.2349 81.268 88.2549 81.188 88.2949 81.1C88.3349 81.012 88.4149 80.916 88.5349 80.812L91.0789 78.268C91.4869 77.924 91.8069 77.632 92.0389 77.392C92.2789 77.144 92.4469 76.908 92.5429 76.684C92.6469 76.46 92.6989 76.228 92.6989 75.988C92.6989 75.532 92.5709 75.172 92.3149 74.908C92.0589 74.636 91.6789 74.5 91.1749 74.5C90.8549 74.5 90.5789 74.568 90.3469 74.704C90.1149 74.832 89.9309 75.012 89.7949 75.244C89.6669 75.468 89.5829 75.724 89.5429 76.012C89.5269 76.116 89.4829 76.188 89.4109 76.228C89.3469 76.268 89.2869 76.288 89.2309 76.288H88.6069C88.5349 76.288 88.4749 76.268 88.4269 76.228C88.3789 76.18 88.3549 76.124 88.3549 76.06C88.3629 75.756 88.4269 75.452 88.5469 75.148C88.6669 74.836 88.8429 74.556 89.0749 74.308C89.3149 74.06 89.6069 73.86 89.9509 73.708C90.3029 73.548 90.7109 73.468 91.1749 73.468C91.8069 73.468 92.3229 73.584 92.7229 73.816C93.1309 74.04 93.4309 74.34 93.6229 74.716C93.8149 75.092 93.9109 75.504 93.9109 75.952C93.9109 76.304 93.8509 76.628 93.7309 76.924C93.6109 77.212 93.4349 77.496 93.2029 77.776C92.9789 78.048 92.6989 78.328 92.3629 78.616L90.0589 80.956H93.8029C93.8909 80.956 93.9589 80.98 94.0069 81.028C94.0629 81.076 94.0909 81.144 94.0909 81.232V81.724C94.0909 81.804 94.0629 81.872 94.0069 81.928C93.9589 81.976 93.8909 82 93.8029 82H88.5109Z" fill="#8697A8" fill-opacity="0.85"/>
</svg>
