<svg width="557" height="329" viewBox="0 0 557 329" fill="none" xmlns="http://www.w3.org/2000/svg">
<rect width="557" height="329" rx="7" fill="white"/>
<path d="M21.428 33C21.3347 33 21.2553 32.9673 21.19 32.902C21.1247 32.8367 21.092 32.7573 21.092 32.664V23.55C21.092 23.4473 21.1247 23.3633 21.19 23.298C21.2553 23.2327 21.3347 23.2 21.428 23.2H25.18C25.908 23.2 26.5427 23.3167 27.084 23.55C27.6253 23.774 28.0453 24.1193 28.344 24.586C28.6427 25.0433 28.792 25.6173 28.792 26.308C28.792 27.008 28.6427 27.5867 28.344 28.044C28.0453 28.492 27.6253 28.828 27.084 29.052C26.5427 29.276 25.908 29.388 25.18 29.388H23.094V32.664C23.094 32.7573 23.0613 32.8367 22.996 32.902C22.94 32.9673 22.8607 33 22.758 33H21.428ZM23.066 27.834H25.11C25.6513 27.834 26.0667 27.708 26.356 27.456C26.6453 27.1947 26.79 26.812 26.79 26.308C26.79 25.8413 26.6547 25.468 26.384 25.188C26.1133 24.8987 25.6887 24.754 25.11 24.754H23.066V27.834ZM30.4885 33C30.3952 33 30.3158 32.9673 30.2505 32.902C30.1852 32.8367 30.1525 32.7573 30.1525 32.664V26.07C30.1525 25.9673 30.1852 25.8833 30.2505 25.818C30.3158 25.7527 30.3952 25.72 30.4885 25.72H31.6225C31.7158 25.72 31.7952 25.7527 31.8605 25.818C31.9352 25.8833 31.9725 25.9673 31.9725 26.07V26.644C32.1872 26.3453 32.4625 26.1167 32.7985 25.958C33.1438 25.7993 33.5405 25.72 33.9885 25.72H34.5625C34.6652 25.72 34.7445 25.7527 34.8005 25.818C34.8658 25.8833 34.8985 25.9627 34.8985 26.056V27.064C34.8985 27.1573 34.8658 27.2367 34.8005 27.302C34.7445 27.3673 34.6652 27.4 34.5625 27.4H33.4705C33.0225 27.4 32.6725 27.526 32.4205 27.778C32.1778 28.03 32.0565 28.3753 32.0565 28.814V32.664C32.0565 32.7573 32.0238 32.8367 31.9585 32.902C31.8932 32.9673 31.8092 33 31.7065 33H30.4885ZM37.995 33.14C37.5097 33.14 37.071 33.0467 36.679 32.86C36.287 32.664 35.9744 32.4073 35.741 32.09C35.517 31.7633 35.405 31.3993 35.405 30.998C35.405 30.3447 35.6664 29.8267 36.189 29.444C36.721 29.052 37.421 28.7907 38.289 28.66L40.207 28.38V28.086C40.207 27.694 40.109 27.3907 39.913 27.176C39.717 26.9613 39.381 26.854 38.905 26.854C38.569 26.854 38.2937 26.924 38.079 27.064C37.8737 27.1947 37.7197 27.372 37.617 27.596C37.5424 27.7173 37.435 27.778 37.295 27.778H36.189C36.0864 27.778 36.007 27.75 35.951 27.694C35.9044 27.638 35.881 27.5633 35.881 27.47C35.8904 27.3207 35.951 27.1387 36.063 26.924C36.175 26.7093 36.3524 26.504 36.595 26.308C36.8377 26.1027 37.1504 25.93 37.533 25.79C37.9157 25.65 38.3777 25.58 38.919 25.58C39.507 25.58 40.0017 25.6547 40.403 25.804C40.8137 25.944 41.1404 26.1353 41.383 26.378C41.6257 26.6207 41.803 26.9053 41.915 27.232C42.027 27.5587 42.083 27.904 42.083 28.268V32.664C42.083 32.7573 42.0504 32.8367 41.985 32.902C41.9197 32.9673 41.8404 33 41.747 33H40.613C40.5104 33 40.4264 32.9673 40.361 32.902C40.305 32.8367 40.277 32.7573 40.277 32.664V32.118C40.1557 32.2953 39.9924 32.4633 39.787 32.622C39.5817 32.7713 39.3297 32.8973 39.031 33C38.7417 33.0933 38.3964 33.14 37.995 33.14ZM38.471 31.81C38.7977 31.81 39.0917 31.74 39.353 31.6C39.6237 31.46 39.8337 31.2453 39.983 30.956C40.1417 30.6573 40.221 30.284 40.221 29.836V29.542L38.821 29.766C38.2704 29.85 37.8597 29.9853 37.589 30.172C37.3184 30.3587 37.183 30.5873 37.183 30.858C37.183 31.0633 37.2437 31.2407 37.365 31.39C37.4957 31.53 37.659 31.6373 37.855 31.712C38.051 31.7773 38.2564 31.81 38.471 31.81ZM46.6371 33.14C46.0771 33.14 45.5964 33.0747 45.1951 32.944C44.8031 32.8133 44.4811 32.65 44.2291 32.454C43.9771 32.258 43.7904 32.062 43.6691 31.866C43.5477 31.67 43.4824 31.5067 43.4731 31.376C43.4637 31.2733 43.4917 31.194 43.5571 31.138C43.6317 31.0727 43.7111 31.04 43.7951 31.04H44.9011C44.9384 31.04 44.9711 31.0447 44.9991 31.054C45.0271 31.0633 45.0644 31.0913 45.1111 31.138C45.2324 31.2407 45.3584 31.348 45.4891 31.46C45.6291 31.572 45.7924 31.67 45.9791 31.754C46.1657 31.8287 46.3991 31.866 46.6791 31.866C47.0431 31.866 47.3464 31.796 47.5891 31.656C47.8411 31.5067 47.9671 31.2967 47.9671 31.026C47.9671 30.83 47.9111 30.6713 47.7991 30.55C47.6964 30.4287 47.5004 30.3213 47.2111 30.228C46.9217 30.1253 46.5111 30.018 45.9791 29.906C45.4564 29.7847 45.0224 29.6307 44.6771 29.444C44.3317 29.2573 44.0751 29.024 43.9071 28.744C43.7391 28.464 43.6551 28.1373 43.6551 27.764C43.6551 27.4 43.7624 27.0547 43.9771 26.728C44.2011 26.392 44.5277 26.1167 44.9571 25.902C45.3957 25.6873 45.9371 25.58 46.5811 25.58C47.0851 25.58 47.5237 25.6453 47.8971 25.776C48.2704 25.8973 48.5784 26.0513 48.8211 26.238C49.0731 26.4247 49.2644 26.616 49.3951 26.812C49.5257 26.9987 49.5957 27.162 49.6051 27.302C49.6144 27.4047 49.5864 27.4887 49.5211 27.554C49.4557 27.61 49.3811 27.638 49.2971 27.638H48.2611C48.2144 27.638 48.1724 27.6287 48.1351 27.61C48.0977 27.5913 48.0604 27.568 48.0231 27.54C47.9204 27.4467 47.8084 27.3487 47.6871 27.246C47.5657 27.1433 47.4164 27.0547 47.2391 26.98C47.0711 26.896 46.8471 26.854 46.5671 26.854C46.2124 26.854 45.9417 26.9333 45.7551 27.092C45.5684 27.2413 45.4751 27.4327 45.4751 27.666C45.4751 27.8247 45.5171 27.9647 45.6011 28.086C45.6944 28.198 45.8764 28.3053 46.1471 28.408C46.4177 28.5107 46.8284 28.618 47.3791 28.73C48.0044 28.842 48.4991 29.01 48.8631 29.234C49.2364 29.4487 49.4977 29.7007 49.6471 29.99C49.8057 30.27 49.8851 30.5827 49.8851 30.928C49.8851 31.348 49.7591 31.726 49.5071 32.062C49.2644 32.398 48.9004 32.664 48.4151 32.86C47.9391 33.0467 47.3464 33.14 46.6371 33.14ZM53.4443 33.14C52.9589 33.14 52.5203 33.0467 52.1283 32.86C51.7363 32.664 51.4236 32.4073 51.1903 32.09C50.9663 31.7633 50.8543 31.3993 50.8543 30.998C50.8543 30.3447 51.1156 29.8267 51.6383 29.444C52.1703 29.052 52.8703 28.7907 53.7383 28.66L55.6563 28.38V28.086C55.6563 27.694 55.5583 27.3907 55.3623 27.176C55.1663 26.9613 54.8303 26.854 54.3543 26.854C54.0183 26.854 53.7429 26.924 53.5283 27.064C53.3229 27.1947 53.1689 27.372 53.0663 27.596C52.9916 27.7173 52.8843 27.778 52.7443 27.778H51.6383C51.5356 27.778 51.4563 27.75 51.4003 27.694C51.3536 27.638 51.3302 27.5633 51.3302 27.47C51.3396 27.3207 51.4003 27.1387 51.5123 26.924C51.6243 26.7093 51.8016 26.504 52.0443 26.308C52.2869 26.1027 52.5996 25.93 52.9823 25.79C53.3649 25.65 53.8269 25.58 54.3683 25.58C54.9563 25.58 55.4509 25.6547 55.8523 25.804C56.2629 25.944 56.5896 26.1353 56.8323 26.378C57.0749 26.6207 57.2523 26.9053 57.3643 27.232C57.4763 27.5587 57.5323 27.904 57.5323 28.268V32.664C57.5323 32.7573 57.4996 32.8367 57.4343 32.902C57.3689 32.9673 57.2896 33 57.1963 33H56.0623C55.9596 33 55.8756 32.9673 55.8103 32.902C55.7543 32.8367 55.7263 32.7573 55.7263 32.664V32.118C55.6049 32.2953 55.4416 32.4633 55.2363 32.622C55.0309 32.7713 54.7789 32.8973 54.4803 33C54.1909 33.0933 53.8456 33.14 53.4443 33.14ZM53.9203 31.81C54.2469 31.81 54.5409 31.74 54.8023 31.6C55.0729 31.46 55.2829 31.2453 55.4323 30.956C55.5909 30.6573 55.6703 30.284 55.6703 29.836V29.542L54.2703 29.766C53.7196 29.85 53.3089 29.9853 53.0383 30.172C52.7676 30.3587 52.6323 30.5873 52.6323 30.858C52.6323 31.0633 52.6929 31.2407 52.8143 31.39C52.9449 31.53 53.1083 31.6373 53.3043 31.712C53.5003 31.7773 53.7056 31.81 53.9203 31.81ZM59.6643 33C59.571 33 59.4916 32.9673 59.4263 32.902C59.361 32.8367 59.3283 32.7573 59.3283 32.664V26.07C59.3283 25.9673 59.361 25.8833 59.4263 25.818C59.4916 25.7527 59.571 25.72 59.6643 25.72H60.7983C60.8916 25.72 60.971 25.7527 61.0363 25.818C61.111 25.8833 61.1483 25.9673 61.1483 26.07V26.644C61.363 26.3453 61.6383 26.1167 61.9743 25.958C62.3196 25.7993 62.7163 25.72 63.1643 25.72H63.7383C63.841 25.72 63.9203 25.7527 63.9763 25.818C64.0416 25.8833 64.0743 25.9627 64.0743 26.056V27.064C64.0743 27.1573 64.0416 27.2367 63.9763 27.302C63.9203 27.3673 63.841 27.4 63.7383 27.4H62.6463C62.1983 27.4 61.8483 27.526 61.5963 27.778C61.3536 28.03 61.2323 28.3753 61.2323 28.814V32.664C61.2323 32.7573 61.1996 32.8367 61.1343 32.902C61.069 32.9673 60.985 33 60.8823 33H59.6643ZM67.1708 33.14C66.6855 33.14 66.2468 33.0467 65.8548 32.86C65.4628 32.664 65.1501 32.4073 64.9168 32.09C64.6928 31.7633 64.5808 31.3993 64.5808 30.998C64.5808 30.3447 64.8421 29.8267 65.3648 29.444C65.8968 29.052 66.5968 28.7907 67.4648 28.66L69.3828 28.38V28.086C69.3828 27.694 69.2848 27.3907 69.0888 27.176C68.8928 26.9613 68.5568 26.854 68.0808 26.854C67.7448 26.854 67.4695 26.924 67.2548 27.064C67.0495 27.1947 66.8955 27.372 66.7928 27.596C66.7181 27.7173 66.6108 27.778 66.4708 27.778H65.3648C65.2621 27.778 65.1828 27.75 65.1268 27.694C65.0801 27.638 65.0568 27.5633 65.0568 27.47C65.0661 27.3207 65.1268 27.1387 65.2388 26.924C65.3508 26.7093 65.5281 26.504 65.7708 26.308C66.0135 26.1027 66.3261 25.93 66.7088 25.79C67.0915 25.65 67.5535 25.58 68.0948 25.58C68.6828 25.58 69.1775 25.6547 69.5788 25.804C69.9895 25.944 70.3161 26.1353 70.5588 26.378C70.8015 26.6207 70.9788 26.9053 71.0908 27.232C71.2028 27.5587 71.2588 27.904 71.2588 28.268V32.664C71.2588 32.7573 71.2261 32.8367 71.1608 32.902C71.0955 32.9673 71.0161 33 70.9228 33H69.7888C69.6861 33 69.6021 32.9673 69.5368 32.902C69.4808 32.8367 69.4528 32.7573 69.4528 32.664V32.118C69.3315 32.2953 69.1681 32.4633 68.9628 32.622C68.7575 32.7713 68.5055 32.8973 68.2068 33C67.9175 33.0933 67.5721 33.14 67.1708 33.14ZM67.6468 31.81C67.9735 31.81 68.2675 31.74 68.5288 31.6C68.7995 31.46 69.0095 31.2453 69.1588 30.956C69.3175 30.6573 69.3968 30.284 69.3968 29.836V29.542L67.9968 29.766C67.4461 29.85 67.0355 29.9853 66.7648 30.172C66.4941 30.3587 66.3588 30.5873 66.3588 30.858C66.3588 31.0633 66.4195 31.2407 66.5408 31.39C66.6715 31.53 66.8348 31.6373 67.0308 31.712C67.2268 31.7773 67.4321 31.81 67.6468 31.81ZM73.3909 33C73.2975 33 73.2182 32.9673 73.1529 32.902C73.0875 32.8367 73.0549 32.7573 73.0549 32.664V26.056C73.0549 25.9627 73.0875 25.8833 73.1529 25.818C73.2182 25.7527 73.2975 25.72 73.3909 25.72H74.5389C74.6322 25.72 74.7115 25.7527 74.7769 25.818C74.8422 25.8833 74.8749 25.9627 74.8749 26.056V26.63C75.1175 26.3313 75.4255 26.084 75.7989 25.888C76.1815 25.6827 76.6529 25.58 77.2129 25.58C77.7822 25.58 78.2769 25.7107 78.6969 25.972C79.1169 26.224 79.4389 26.5833 79.6629 27.05C79.8962 27.5167 80.0129 28.0767 80.0129 28.73V32.664C80.0129 32.7573 79.9802 32.8367 79.9149 32.902C79.8495 32.9673 79.7702 33 79.6769 33H78.4449C78.3515 33 78.2722 32.9673 78.2069 32.902C78.1415 32.8367 78.1089 32.7573 78.1089 32.664V28.814C78.1089 28.2727 77.9735 27.848 77.7029 27.54C77.4415 27.232 77.0589 27.078 76.5549 27.078C76.0695 27.078 75.6822 27.232 75.3929 27.54C75.1035 27.848 74.9589 28.2727 74.9589 28.814V32.664C74.9589 32.7573 74.9262 32.8367 74.8609 32.902C74.7955 32.9673 74.7162 33 74.6229 33H73.3909ZM83.9052 33.14C83.4199 33.14 82.9812 33.0467 82.5892 32.86C82.1972 32.664 81.8845 32.4073 81.6512 32.09C81.4272 31.7633 81.3152 31.3993 81.3152 30.998C81.3152 30.3447 81.5765 29.8267 82.0992 29.444C82.6312 29.052 83.3312 28.7907 84.1992 28.66L86.1172 28.38V28.086C86.1172 27.694 86.0192 27.3907 85.8232 27.176C85.6272 26.9613 85.2912 26.854 84.8152 26.854C84.4792 26.854 84.2039 26.924 83.9892 27.064C83.7839 27.1947 83.6299 27.372 83.5272 27.596C83.4525 27.7173 83.3452 27.778 83.2052 27.778H82.0992C81.9965 27.778 81.9172 27.75 81.8612 27.694C81.8145 27.638 81.7912 27.5633 81.7912 27.47C81.8005 27.3207 81.8612 27.1387 81.9732 26.924C82.0852 26.7093 82.2625 26.504 82.5052 26.308C82.7479 26.1027 83.0605 25.93 83.4432 25.79C83.8259 25.65 84.2879 25.58 84.8292 25.58C85.4172 25.58 85.9119 25.6547 86.3132 25.804C86.7239 25.944 87.0505 26.1353 87.2932 26.378C87.5359 26.6207 87.7132 26.9053 87.8252 27.232C87.9372 27.5587 87.9932 27.904 87.9932 28.268V32.664C87.9932 32.7573 87.9605 32.8367 87.8952 32.902C87.8299 32.9673 87.7505 33 87.6572 33H86.5232C86.4205 33 86.3365 32.9673 86.2712 32.902C86.2152 32.8367 86.1872 32.7573 86.1872 32.664V32.118C86.0659 32.2953 85.9025 32.4633 85.6972 32.622C85.4919 32.7713 85.2399 32.8973 84.9412 33C84.6519 33.0933 84.3065 33.14 83.9052 33.14ZM84.3812 31.81C84.7079 31.81 85.0019 31.74 85.2632 31.6C85.5339 31.46 85.7439 31.2453 85.8932 30.956C86.0519 30.6573 86.1312 30.284 86.1312 29.836V29.542L84.7312 29.766C84.1805 29.85 83.7699 29.9853 83.4992 30.172C83.2285 30.3587 83.0932 30.5873 83.0932 30.858C83.0932 31.0633 83.1539 31.2407 83.2752 31.39C83.4059 31.53 83.5692 31.6373 83.7652 31.712C83.9612 31.7773 84.1665 31.81 84.3812 31.81ZM92.1853 33C92.1106 33 92.0406 32.972 91.9753 32.916C91.9193 32.86 91.8913 32.79 91.8913 32.706C91.8913 32.6687 91.9006 32.6267 91.9193 32.58L95.2933 23.55C95.3213 23.4567 95.3726 23.3773 95.4473 23.312C95.5313 23.2373 95.6433 23.2 95.7833 23.2H97.3093C97.4493 23.2 97.5566 23.2373 97.6313 23.312C97.706 23.3773 97.762 23.4567 97.7993 23.55L101.173 32.58C101.183 32.6267 101.187 32.6687 101.187 32.706C101.187 32.79 101.159 32.86 101.103 32.916C101.047 32.972 100.982 33 100.907 33H99.6893C99.5586 33 99.4606 32.972 99.3953 32.916C99.3393 32.8507 99.302 32.79 99.2833 32.734L98.6253 31.026H94.4673L93.8093 32.734C93.7906 32.79 93.7486 32.8507 93.6833 32.916C93.6273 32.972 93.534 33 93.4033 33H92.1853ZM94.9573 29.416H98.1353L96.5393 25.09L94.9573 29.416ZM102.662 33C102.569 33 102.49 32.9673 102.424 32.902C102.359 32.8367 102.326 32.7573 102.326 32.664V26.056C102.326 25.9627 102.359 25.8833 102.424 25.818C102.49 25.7527 102.569 25.72 102.662 25.72H103.824C103.927 25.72 104.006 25.7527 104.062 25.818C104.128 25.8833 104.16 25.9627 104.16 26.056V32.664C104.16 32.7573 104.128 32.8367 104.062 32.902C104.006 32.9673 103.927 33 103.824 33H102.662ZM102.606 24.516C102.504 24.516 102.42 24.488 102.354 24.432C102.298 24.3667 102.27 24.2827 102.27 24.18V23.172C102.27 23.0787 102.298 22.9993 102.354 22.934C102.42 22.8687 102.504 22.836 102.606 22.836H103.88C103.983 22.836 104.067 22.8687 104.132 22.934C104.198 22.9993 104.23 23.0787 104.23 23.172V24.18C104.23 24.2827 104.198 24.3667 104.132 24.432C104.067 24.488 103.983 24.516 103.88 24.516H102.606ZM106.641 33C106.548 33 106.468 32.9673 106.403 32.902C106.338 32.8367 106.305 32.7573 106.305 32.664V26.07C106.305 25.9673 106.338 25.8833 106.403 25.818C106.468 25.7527 106.548 25.72 106.641 25.72H107.775C107.868 25.72 107.948 25.7527 108.013 25.818C108.088 25.8833 108.125 25.9673 108.125 26.07V26.644C108.34 26.3453 108.615 26.1167 108.951 25.958C109.296 25.7993 109.693 25.72 110.141 25.72H110.715C110.818 25.72 110.897 25.7527 110.953 25.818C111.018 25.8833 111.051 25.9627 111.051 26.056V27.064C111.051 27.1573 111.018 27.2367 110.953 27.302C110.897 27.3673 110.818 27.4 110.715 27.4H109.623C109.175 27.4 108.825 27.526 108.573 27.778C108.33 28.03 108.209 28.3753 108.209 28.814V32.664C108.209 32.7573 108.176 32.8367 108.111 32.902C108.046 32.9673 107.962 33 107.859 33H106.641ZM115.545 33C115.452 33 115.373 32.9673 115.307 32.902C115.242 32.8367 115.209 32.7573 115.209 32.664V23.55C115.209 23.4473 115.242 23.3633 115.307 23.298C115.373 23.2327 115.452 23.2 115.545 23.2H119.605C120.361 23.2 120.977 23.3167 121.453 23.55C121.929 23.774 122.279 24.0867 122.503 24.488C122.737 24.8893 122.853 25.356 122.853 25.888C122.853 26.2427 122.788 26.5553 122.657 26.826C122.536 27.0873 122.382 27.302 122.195 27.47C122.018 27.638 121.841 27.7687 121.663 27.862C122.027 28.03 122.349 28.31 122.629 28.702C122.909 29.094 123.049 29.5607 123.049 30.102C123.049 30.662 122.923 31.1613 122.671 31.6C122.419 32.0387 122.046 32.384 121.551 32.636C121.057 32.8787 120.445 33 119.717 33H115.545ZM117.155 31.516H119.493C119.997 31.516 120.38 31.3807 120.641 31.11C120.903 30.83 121.033 30.494 121.033 30.102C121.033 29.6913 120.898 29.3507 120.627 29.08C120.366 28.8093 119.988 28.674 119.493 28.674H117.155V31.516ZM117.155 27.218H119.353C119.848 27.218 120.217 27.1013 120.459 26.868C120.711 26.6253 120.837 26.3127 120.837 25.93C120.837 25.538 120.711 25.2347 120.459 25.02C120.217 24.796 119.848 24.684 119.353 24.684H117.155V27.218ZM127.775 33.14C126.739 33.14 125.918 32.8413 125.311 32.244C124.704 31.6467 124.378 30.7973 124.331 29.696C124.322 29.6027 124.317 29.486 124.317 29.346C124.317 29.1967 124.322 29.08 124.331 28.996C124.368 28.296 124.527 27.6893 124.807 27.176C125.096 26.6627 125.493 26.2707 125.997 26C126.501 25.72 127.094 25.58 127.775 25.58C128.531 25.58 129.166 25.7387 129.679 26.056C130.192 26.364 130.58 26.798 130.841 27.358C131.102 27.9087 131.233 28.548 131.233 29.276V29.57C131.233 29.6633 131.2 29.7427 131.135 29.808C131.07 29.8733 130.986 29.906 130.883 29.906H126.235C126.235 29.906 126.235 29.92 126.235 29.948C126.235 29.976 126.235 29.9993 126.235 30.018C126.244 30.3447 126.305 30.648 126.417 30.928C126.538 31.1987 126.711 31.418 126.935 31.586C127.168 31.754 127.444 31.838 127.761 31.838C128.022 31.838 128.242 31.8007 128.419 31.726C128.596 31.642 128.741 31.5487 128.853 31.446C128.965 31.3433 129.044 31.2593 129.091 31.194C129.175 31.082 129.24 31.0167 129.287 30.998C129.343 30.97 129.422 30.956 129.525 30.956H130.729C130.822 30.956 130.897 30.984 130.953 31.04C131.018 31.096 131.046 31.166 131.037 31.25C131.028 31.3993 130.948 31.5813 130.799 31.796C130.659 32.0107 130.454 32.2207 130.183 32.426C129.912 32.6313 129.572 32.804 129.161 32.944C128.76 33.0747 128.298 33.14 127.775 33.14ZM126.235 28.73H129.329V28.688C129.329 28.324 129.268 28.0067 129.147 27.736C129.026 27.4653 128.848 27.2507 128.615 27.092C128.382 26.9333 128.102 26.854 127.775 26.854C127.448 26.854 127.168 26.9333 126.935 27.092C126.702 27.2507 126.524 27.4653 126.403 27.736C126.291 28.0067 126.235 28.324 126.235 28.688V28.73ZM133.055 33C132.962 33 132.882 32.9673 132.817 32.902C132.752 32.8367 132.719 32.7573 132.719 32.664V26.07C132.719 25.9673 132.752 25.8833 132.817 25.818C132.882 25.7527 132.962 25.72 133.055 25.72H134.189C134.282 25.72 134.362 25.7527 134.427 25.818C134.502 25.8833 134.539 25.9673 134.539 26.07V26.644C134.754 26.3453 135.029 26.1167 135.365 25.958C135.71 25.7993 136.107 25.72 136.555 25.72H137.129C137.232 25.72 137.311 25.7527 137.367 25.818C137.432 25.8833 137.465 25.9627 137.465 26.056V27.064C137.465 27.1573 137.432 27.2367 137.367 27.302C137.311 27.3673 137.232 27.4 137.129 27.4H136.037C135.589 27.4 135.239 27.526 134.987 27.778C134.744 28.03 134.623 28.3753 134.623 28.814V32.664C134.623 32.7573 134.59 32.8367 134.525 32.902C134.46 32.9673 134.376 33 134.273 33H133.055ZM141.315 33.14C140.755 33.14 140.274 33.0747 139.873 32.944C139.481 32.8133 139.159 32.65 138.907 32.454C138.655 32.258 138.468 32.062 138.347 31.866C138.225 31.67 138.16 31.5067 138.151 31.376C138.141 31.2733 138.169 31.194 138.235 31.138C138.309 31.0727 138.389 31.04 138.473 31.04H139.579C139.616 31.04 139.649 31.0447 139.677 31.054C139.705 31.0633 139.742 31.0913 139.789 31.138C139.91 31.2407 140.036 31.348 140.167 31.46C140.307 31.572 140.47 31.67 140.657 31.754C140.843 31.8287 141.077 31.866 141.357 31.866C141.721 31.866 142.024 31.796 142.267 31.656C142.519 31.5067 142.645 31.2967 142.645 31.026C142.645 30.83 142.589 30.6713 142.477 30.55C142.374 30.4287 142.178 30.3213 141.889 30.228C141.599 30.1253 141.189 30.018 140.657 29.906C140.134 29.7847 139.7 29.6307 139.355 29.444C139.009 29.2573 138.753 29.024 138.585 28.744C138.417 28.464 138.333 28.1373 138.333 27.764C138.333 27.4 138.44 27.0547 138.655 26.728C138.879 26.392 139.205 26.1167 139.635 25.902C140.073 25.6873 140.615 25.58 141.259 25.58C141.763 25.58 142.201 25.6453 142.575 25.776C142.948 25.8973 143.256 26.0513 143.499 26.238C143.751 26.4247 143.942 26.616 144.073 26.812C144.203 26.9987 144.273 27.162 144.283 27.302C144.292 27.4047 144.264 27.4887 144.199 27.554C144.133 27.61 144.059 27.638 143.975 27.638H142.939C142.892 27.638 142.85 27.6287 142.813 27.61C142.775 27.5913 142.738 27.568 142.701 27.54C142.598 27.4467 142.486 27.3487 142.365 27.246C142.243 27.1433 142.094 27.0547 141.917 26.98C141.749 26.896 141.525 26.854 141.245 26.854C140.89 26.854 140.619 26.9333 140.433 27.092C140.246 27.2413 140.153 27.4327 140.153 27.666C140.153 27.8247 140.195 27.9647 140.279 28.086C140.372 28.198 140.554 28.3053 140.825 28.408C141.095 28.5107 141.506 28.618 142.057 28.73C142.682 28.842 143.177 29.01 143.541 29.234C143.914 29.4487 144.175 29.7007 144.325 29.99C144.483 30.27 144.563 30.5827 144.563 30.928C144.563 31.348 144.437 31.726 144.185 32.062C143.942 32.398 143.578 32.664 143.093 32.86C142.617 33.0467 142.024 33.14 141.315 33.14ZM146.344 33C146.251 33 146.171 32.9673 146.106 32.902C146.041 32.8367 146.008 32.7573 146.008 32.664V26.056C146.008 25.9627 146.041 25.8833 146.106 25.818C146.171 25.7527 146.251 25.72 146.344 25.72H147.506C147.609 25.72 147.688 25.7527 147.744 25.818C147.809 25.8833 147.842 25.9627 147.842 26.056V32.664C147.842 32.7573 147.809 32.8367 147.744 32.902C147.688 32.9673 147.609 33 147.506 33H146.344ZM146.288 24.516C146.185 24.516 146.101 24.488 146.036 24.432C145.98 24.3667 145.952 24.2827 145.952 24.18V23.172C145.952 23.0787 145.98 22.9993 146.036 22.934C146.101 22.8687 146.185 22.836 146.288 22.836H147.562C147.665 22.836 147.749 22.8687 147.814 22.934C147.879 22.9993 147.912 23.0787 147.912 23.172V24.18C147.912 24.2827 147.879 24.3667 147.814 24.432C147.749 24.488 147.665 24.516 147.562 24.516H146.288ZM150.049 33C149.956 33 149.877 32.9673 149.811 32.902C149.746 32.8367 149.713 32.7573 149.713 32.664V23.396C149.713 23.3027 149.746 23.2233 149.811 23.158C149.877 23.0927 149.956 23.06 150.049 23.06H151.295C151.398 23.06 151.477 23.0927 151.533 23.158C151.599 23.2233 151.631 23.3027 151.631 23.396V26.588C151.883 26.2893 152.191 26.0467 152.555 25.86C152.919 25.6733 153.367 25.58 153.899 25.58C154.469 25.58 154.963 25.7107 155.383 25.972C155.813 26.224 156.144 26.5833 156.377 27.05C156.611 27.5167 156.727 28.0767 156.727 28.73V32.664C156.727 32.7573 156.695 32.8367 156.629 32.902C156.564 32.9673 156.485 33 156.391 33H155.131C155.038 33 154.959 32.9673 154.893 32.902C154.828 32.8367 154.795 32.7573 154.795 32.664V28.814C154.795 28.2727 154.66 27.848 154.389 27.54C154.128 27.232 153.745 27.078 153.241 27.078C152.756 27.078 152.364 27.232 152.065 27.54C151.776 27.848 151.631 28.2727 151.631 28.814V32.664C151.631 32.7573 151.599 32.8367 151.533 32.902C151.477 32.9673 151.398 33 151.295 33H150.049Z" fill="#44556C"/>
<path d="M18.8788 82.3999C18.7988 82.3999 18.7308 82.3759 18.6748 82.3279C18.6268 82.2719 18.6028 82.2039 18.6028 82.1239V81.7399C18.6028 81.6679 18.6228 81.5879 18.6628 81.4999C18.7028 81.4119 18.7828 81.3159 18.9028 81.2119L21.4468 78.6679C21.8548 78.3239 22.1748 78.0319 22.4068 77.7919C22.6468 77.5439 22.8148 77.3079 22.9108 77.0839C23.0148 76.8599 23.0668 76.6279 23.0668 76.3879C23.0668 75.9319 22.9388 75.5719 22.6828 75.3079C22.4268 75.0359 22.0468 74.8999 21.5428 74.8999C21.2228 74.8999 20.9468 74.9679 20.7148 75.1039C20.4828 75.2319 20.2988 75.4119 20.1628 75.6439C20.0348 75.8679 19.9508 76.1239 19.9108 76.4119C19.8948 76.5159 19.8508 76.5879 19.7788 76.6279C19.7148 76.6679 19.6548 76.6879 19.5988 76.6879H18.9748C18.9028 76.6879 18.8428 76.6679 18.7948 76.6279C18.7468 76.5799 18.7228 76.5239 18.7228 76.4599C18.7308 76.1559 18.7948 75.8519 18.9148 75.5479C19.0348 75.2359 19.2108 74.9559 19.4428 74.7079C19.6828 74.4599 19.9748 74.2599 20.3188 74.1079C20.6708 73.9479 21.0788 73.8679 21.5428 73.8679C22.1748 73.8679 22.6908 73.9839 23.0908 74.2159C23.4988 74.4399 23.7988 74.7399 23.9908 75.1159C24.1828 75.4919 24.2788 75.9039 24.2788 76.3519C24.2788 76.7039 24.2188 77.0279 24.0988 77.3239C23.9788 77.6119 23.8028 77.8959 23.5708 78.1759C23.3468 78.4479 23.0668 78.7279 22.7308 79.0159L20.4268 81.3559H24.1708C24.2588 81.3559 24.3268 81.3799 24.3748 81.4279C24.4308 81.4759 24.4588 81.5439 24.4588 81.6319V82.1239C24.4588 82.2039 24.4308 82.2719 24.3748 82.3279C24.3268 82.3759 24.2588 82.3999 24.1708 82.3999H18.8788ZM29.1618 82.5199C28.5298 82.5199 27.9938 82.4119 27.5538 82.1959C27.1218 81.9719 26.7898 81.6839 26.5578 81.3319C26.3338 80.9799 26.2138 80.6079 26.1978 80.2159C26.1898 80.1439 26.2098 80.0879 26.2578 80.0479C26.3058 80.0079 26.3658 79.9879 26.4378 79.9879H27.0858C27.1578 79.9879 27.2218 80.0039 27.2778 80.0359C27.3338 80.0679 27.3778 80.1359 27.4098 80.2399C27.4898 80.5359 27.6178 80.7799 27.7938 80.9719C27.9778 81.1559 28.1858 81.2919 28.4178 81.3799C28.6578 81.4599 28.9058 81.4999 29.1618 81.4999C29.5058 81.4999 29.8178 81.4319 30.0978 81.2959C30.3858 81.1519 30.6138 80.9439 30.7818 80.6719C30.9498 80.3919 31.0338 80.0559 31.0338 79.6639C31.0338 79.3039 30.9498 78.9959 30.7818 78.7399C30.6218 78.4759 30.3978 78.2759 30.1098 78.1399C29.8298 77.9959 29.5138 77.9239 29.1618 77.9239C28.8978 77.9239 28.6818 77.9559 28.5138 78.0199C28.3458 78.0839 28.2018 78.1599 28.0818 78.2479C27.9698 78.3359 27.8658 78.4119 27.7698 78.4759C27.6818 78.5399 27.5818 78.5719 27.4698 78.5719H26.8458C26.7738 78.5719 26.7098 78.5479 26.6538 78.4999C26.5978 78.4439 26.5738 78.3799 26.5818 78.3079L26.9658 74.2999C26.9738 74.2039 27.0018 74.1319 27.0498 74.0839C27.1058 74.0279 27.1778 73.9999 27.2658 73.9999H31.4538C31.5338 73.9999 31.5978 74.0279 31.6458 74.0839C31.7018 74.1319 31.7298 74.1959 31.7298 74.2759V74.7439C31.7298 74.8319 31.7018 74.8999 31.6458 74.9479C31.5978 74.9959 31.5338 75.0199 31.4538 75.0199H27.9978L27.7698 77.3839C27.8818 77.3119 28.0618 77.2279 28.3098 77.1319C28.5578 77.0279 28.8978 76.9759 29.3298 76.9759C29.7218 76.9759 30.0898 77.0359 30.4338 77.1559C30.7858 77.2759 31.0978 77.4519 31.3698 77.6839C31.6418 77.9159 31.8538 78.1999 32.0058 78.5359C32.1578 78.8639 32.2338 79.2439 32.2338 79.6759C32.2338 80.2839 32.0978 80.7999 31.8258 81.2239C31.5618 81.6479 31.1978 81.9719 30.7338 82.1959C30.2778 82.4119 29.7538 82.5199 29.1618 82.5199ZM37.1868 82.5199C36.6348 82.5199 36.1668 82.4359 35.7828 82.2679C35.4068 82.0919 35.0988 81.8519 34.8588 81.5479C34.6188 81.2439 34.4428 80.8959 34.3308 80.5039C34.2268 80.1119 34.1668 79.6959 34.1508 79.2559C34.1428 79.0399 34.1348 78.8119 34.1268 78.5719C34.1268 78.3319 34.1268 78.0919 34.1268 77.8519C34.1348 77.6039 34.1428 77.3679 34.1508 77.1439C34.1588 76.7039 34.2188 76.2879 34.3308 75.8959C34.4508 75.4959 34.6268 75.1479 34.8588 74.8519C35.0988 74.5479 35.4108 74.3119 35.7948 74.1439C36.1788 73.9679 36.6428 73.8799 37.1868 73.8799C37.7388 73.8799 38.2028 73.9679 38.5788 74.1439C38.9628 74.3119 39.2748 74.5479 39.5148 74.8519C39.7548 75.1479 39.9308 75.4959 40.0428 75.8959C40.1628 76.2879 40.2268 76.7039 40.2348 77.1439C40.2428 77.3679 40.2468 77.6039 40.2468 77.8519C40.2548 78.0919 40.2548 78.3319 40.2468 78.5719C40.2468 78.8119 40.2428 79.0399 40.2348 79.2559C40.2268 79.6959 40.1628 80.1119 40.0428 80.5039C39.9308 80.8959 39.7548 81.2439 39.5148 81.5479C39.2828 81.8519 38.9748 82.0919 38.5908 82.2679C38.2148 82.4359 37.7468 82.5199 37.1868 82.5199ZM37.1868 81.4999C37.8108 81.4999 38.2708 81.2959 38.5668 80.8879C38.8708 80.4719 39.0268 79.9079 39.0348 79.1959C39.0508 78.9639 39.0588 78.7399 39.0588 78.5239C39.0588 78.2999 39.0588 78.0799 39.0588 77.8639C39.0588 77.6399 39.0508 77.4199 39.0348 77.2039C39.0268 76.5079 38.8708 75.9519 38.5668 75.5359C38.2708 75.1119 37.8108 74.8999 37.1868 74.8999C36.5708 74.8999 36.1108 75.1119 35.8068 75.5359C35.5108 75.9519 35.3548 76.5079 35.3388 77.2039C35.3388 77.4199 35.3348 77.6399 35.3268 77.8639C35.3268 78.0799 35.3268 78.2999 35.3268 78.5239C35.3348 78.7399 35.3388 78.9639 35.3388 79.1959C35.3548 79.9079 35.5148 80.4719 35.8188 80.8879C36.1228 81.2959 36.5788 81.4999 37.1868 81.4999Z" fill="#8697A8" fill-opacity="0.85"/>
<line x1="49" y1="77.8999" x2="537" y2="77.8999" stroke="#ECECEC"/>
<path d="M18.3867 125.2C18.3067 125.2 18.2387 125.176 18.1827 125.128C18.1347 125.072 18.1107 125.004 18.1107 124.924V124.54C18.1107 124.468 18.1307 124.388 18.1707 124.3C18.2107 124.212 18.2907 124.116 18.4107 124.012L20.9547 121.468C21.3627 121.124 21.6827 120.832 21.9147 120.592C22.1547 120.344 22.3227 120.108 22.4187 119.884C22.5227 119.66 22.5747 119.428 22.5747 119.188C22.5747 118.732 22.4467 118.372 22.1907 118.108C21.9347 117.836 21.5547 117.7 21.0507 117.7C20.7307 117.7 20.4547 117.768 20.2227 117.904C19.9907 118.032 19.8067 118.212 19.6707 118.444C19.5427 118.668 19.4587 118.924 19.4187 119.212C19.4027 119.316 19.3587 119.388 19.2867 119.428C19.2227 119.468 19.1627 119.488 19.1067 119.488H18.4827C18.4107 119.488 18.3507 119.468 18.3027 119.428C18.2547 119.38 18.2307 119.324 18.2307 119.26C18.2387 118.956 18.3027 118.652 18.4227 118.348C18.5427 118.036 18.7187 117.756 18.9507 117.508C19.1907 117.26 19.4827 117.06 19.8267 116.908C20.1787 116.748 20.5867 116.668 21.0507 116.668C21.6827 116.668 22.1987 116.784 22.5987 117.016C23.0067 117.24 23.3067 117.54 23.4987 117.916C23.6907 118.292 23.7867 118.704 23.7867 119.152C23.7867 119.504 23.7267 119.828 23.6067 120.124C23.4867 120.412 23.3107 120.696 23.0787 120.976C22.8547 121.248 22.5747 121.528 22.2387 121.816L19.9347 124.156H23.6787C23.7667 124.156 23.8347 124.18 23.8827 124.228C23.9387 124.276 23.9667 124.344 23.9667 124.432V124.924C23.9667 125.004 23.9387 125.072 23.8827 125.128C23.8347 125.176 23.7667 125.2 23.6787 125.2H18.3867ZM28.9696 125.32C28.4176 125.32 27.9496 125.236 27.5656 125.068C27.1896 124.892 26.8816 124.652 26.6416 124.348C26.4016 124.044 26.2256 123.696 26.1136 123.304C26.0096 122.912 25.9496 122.496 25.9336 122.056C25.9256 121.84 25.9176 121.612 25.9096 121.372C25.9096 121.132 25.9096 120.892 25.9096 120.652C25.9176 120.404 25.9256 120.168 25.9336 119.944C25.9416 119.504 26.0016 119.088 26.1136 118.696C26.2336 118.296 26.4096 117.948 26.6416 117.652C26.8816 117.348 27.1936 117.112 27.5776 116.944C27.9616 116.768 28.4256 116.68 28.9696 116.68C29.5216 116.68 29.9856 116.768 30.3616 116.944C30.7456 117.112 31.0576 117.348 31.2976 117.652C31.5376 117.948 31.7136 118.296 31.8256 118.696C31.9456 119.088 32.0096 119.504 32.0176 119.944C32.0256 120.168 32.0296 120.404 32.0296 120.652C32.0376 120.892 32.0376 121.132 32.0296 121.372C32.0296 121.612 32.0256 121.84 32.0176 122.056C32.0096 122.496 31.9456 122.912 31.8256 123.304C31.7136 123.696 31.5376 124.044 31.2976 124.348C31.0656 124.652 30.7576 124.892 30.3736 125.068C29.9976 125.236 29.5296 125.32 28.9696 125.32ZM28.9696 124.3C29.5936 124.3 30.0536 124.096 30.3496 123.688C30.6536 123.272 30.8096 122.708 30.8176 121.996C30.8336 121.764 30.8416 121.54 30.8416 121.324C30.8416 121.1 30.8416 120.88 30.8416 120.664C30.8416 120.44 30.8336 120.22 30.8176 120.004C30.8096 119.308 30.6536 118.752 30.3496 118.336C30.0536 117.912 29.5936 117.7 28.9696 117.7C28.3536 117.7 27.8936 117.912 27.5896 118.336C27.2936 118.752 27.1376 119.308 27.1216 120.004C27.1216 120.22 27.1176 120.44 27.1096 120.664C27.1096 120.88 27.1096 121.1 27.1096 121.324C27.1176 121.54 27.1216 121.764 27.1216 121.996C27.1376 122.708 27.2976 123.272 27.6016 123.688C27.9056 124.096 28.3616 124.3 28.9696 124.3ZM37.1868 125.32C36.6348 125.32 36.1668 125.236 35.7828 125.068C35.4068 124.892 35.0988 124.652 34.8588 124.348C34.6188 124.044 34.4428 123.696 34.3308 123.304C34.2268 122.912 34.1668 122.496 34.1508 122.056C34.1428 121.84 34.1348 121.612 34.1268 121.372C34.1268 121.132 34.1268 120.892 34.1268 120.652C34.1348 120.404 34.1428 120.168 34.1508 119.944C34.1588 119.504 34.2188 119.088 34.3308 118.696C34.4508 118.296 34.6268 117.948 34.8588 117.652C35.0988 117.348 35.4108 117.112 35.7948 116.944C36.1788 116.768 36.6428 116.68 37.1868 116.68C37.7388 116.68 38.2028 116.768 38.5788 116.944C38.9628 117.112 39.2748 117.348 39.5148 117.652C39.7548 117.948 39.9308 118.296 40.0428 118.696C40.1628 119.088 40.2268 119.504 40.2348 119.944C40.2428 120.168 40.2468 120.404 40.2468 120.652C40.2548 120.892 40.2548 121.132 40.2468 121.372C40.2468 121.612 40.2428 121.84 40.2348 122.056C40.2268 122.496 40.1628 122.912 40.0428 123.304C39.9308 123.696 39.7548 124.044 39.5148 124.348C39.2828 124.652 38.9748 124.892 38.5908 125.068C38.2148 125.236 37.7468 125.32 37.1868 125.32ZM37.1868 124.3C37.8108 124.3 38.2708 124.096 38.5668 123.688C38.8708 123.272 39.0268 122.708 39.0348 121.996C39.0508 121.764 39.0588 121.54 39.0588 121.324C39.0588 121.1 39.0588 120.88 39.0588 120.664C39.0588 120.44 39.0508 120.22 39.0348 120.004C39.0268 119.308 38.8708 118.752 38.5668 118.336C38.2708 117.912 37.8108 117.7 37.1868 117.7C36.5708 117.7 36.1108 117.912 35.8068 118.336C35.5108 118.752 35.3548 119.308 35.3388 120.004C35.3388 120.22 35.3348 120.44 35.3268 120.664C35.3268 120.88 35.3268 121.1 35.3268 121.324C35.3348 121.54 35.3388 121.764 35.3388 121.996C35.3548 122.708 35.5148 123.272 35.8188 123.688C36.1228 124.096 36.5788 124.3 37.1868 124.3Z" fill="#8697A8" fill-opacity="0.85"/>
<line x1="49" y1="120.7" x2="537" y2="120.7" stroke="#ECECEC"/>
<line x1="20" y1="163.5" x2="508" y2="163.5" stroke="#ECECEC"/>
<path d="M511.237 168C511.157 168 511.089 167.976 511.033 167.928C510.985 167.872 510.961 167.804 510.961 167.724V161.004L508.969 162.54C508.905 162.588 508.837 162.608 508.765 162.6C508.693 162.592 508.633 162.556 508.585 162.492L508.273 162.096C508.225 162.024 508.205 161.952 508.213 161.88C508.229 161.808 508.269 161.748 508.333 161.7L510.949 159.684C511.005 159.644 511.057 159.62 511.105 159.612C511.153 159.604 511.205 159.6 511.261 159.6H511.873C511.953 159.6 512.017 159.628 512.065 159.684C512.113 159.732 512.137 159.796 512.137 159.876V167.724C512.137 167.804 512.113 167.872 512.065 167.928C512.017 167.976 511.953 168 511.873 168H511.237ZM517.162 168.12C516.53 168.12 515.994 168.012 515.554 167.796C515.122 167.572 514.79 167.284 514.558 166.932C514.334 166.58 514.214 166.208 514.198 165.816C514.19 165.744 514.21 165.688 514.258 165.648C514.306 165.608 514.366 165.588 514.438 165.588H515.086C515.158 165.588 515.222 165.604 515.278 165.636C515.334 165.668 515.378 165.736 515.41 165.84C515.49 166.136 515.618 166.38 515.794 166.572C515.978 166.756 516.186 166.892 516.418 166.98C516.658 167.06 516.906 167.1 517.162 167.1C517.506 167.1 517.818 167.032 518.098 166.896C518.386 166.752 518.614 166.544 518.782 166.272C518.95 165.992 519.034 165.656 519.034 165.264C519.034 164.904 518.95 164.596 518.782 164.34C518.622 164.076 518.398 163.876 518.11 163.74C517.83 163.596 517.514 163.524 517.162 163.524C516.898 163.524 516.682 163.556 516.514 163.62C516.346 163.684 516.202 163.76 516.082 163.848C515.97 163.936 515.866 164.012 515.77 164.076C515.682 164.14 515.582 164.172 515.47 164.172H514.846C514.774 164.172 514.71 164.148 514.654 164.1C514.598 164.044 514.574 163.98 514.582 163.908L514.966 159.9C514.974 159.804 515.002 159.732 515.05 159.684C515.106 159.628 515.178 159.6 515.266 159.6H519.454C519.534 159.6 519.598 159.628 519.646 159.684C519.702 159.732 519.73 159.796 519.73 159.876V160.344C519.73 160.432 519.702 160.5 519.646 160.548C519.598 160.596 519.534 160.62 519.454 160.62H515.998L515.77 162.984C515.882 162.912 516.062 162.828 516.31 162.732C516.558 162.628 516.898 162.576 517.33 162.576C517.722 162.576 518.09 162.636 518.434 162.756C518.786 162.876 519.098 163.052 519.37 163.284C519.642 163.516 519.854 163.8 520.006 164.136C520.158 164.464 520.234 164.844 520.234 165.276C520.234 165.884 520.098 166.4 519.826 166.824C519.562 167.248 519.198 167.572 518.734 167.796C518.278 168.012 517.754 168.12 517.162 168.12ZM525.187 168.12C524.635 168.12 524.167 168.036 523.783 167.868C523.407 167.692 523.099 167.452 522.859 167.148C522.619 166.844 522.443 166.496 522.331 166.104C522.227 165.712 522.167 165.296 522.151 164.856C522.143 164.64 522.135 164.412 522.127 164.172C522.127 163.932 522.127 163.692 522.127 163.452C522.135 163.204 522.143 162.968 522.151 162.744C522.159 162.304 522.219 161.888 522.331 161.496C522.451 161.096 522.627 160.748 522.859 160.452C523.099 160.148 523.411 159.912 523.795 159.744C524.179 159.568 524.643 159.48 525.187 159.48C525.739 159.48 526.203 159.568 526.579 159.744C526.963 159.912 527.275 160.148 527.515 160.452C527.755 160.748 527.931 161.096 528.043 161.496C528.163 161.888 528.227 162.304 528.235 162.744C528.243 162.968 528.247 163.204 528.247 163.452C528.255 163.692 528.255 163.932 528.247 164.172C528.247 164.412 528.243 164.64 528.235 164.856C528.227 165.296 528.163 165.712 528.043 166.104C527.931 166.496 527.755 166.844 527.515 167.148C527.283 167.452 526.975 167.692 526.591 167.868C526.215 168.036 525.747 168.12 525.187 168.12ZM525.187 167.1C525.811 167.1 526.271 166.896 526.567 166.488C526.871 166.072 527.027 165.508 527.035 164.796C527.051 164.564 527.059 164.34 527.059 164.124C527.059 163.9 527.059 163.68 527.059 163.464C527.059 163.24 527.051 163.02 527.035 162.804C527.027 162.108 526.871 161.552 526.567 161.136C526.271 160.712 525.811 160.5 525.187 160.5C524.571 160.5 524.111 160.712 523.807 161.136C523.511 161.552 523.355 162.108 523.339 162.804C523.339 163.02 523.335 163.24 523.327 163.464C523.327 163.68 523.327 163.9 523.327 164.124C523.335 164.34 523.339 164.564 523.339 164.796C523.355 165.508 523.515 166.072 523.819 166.488C524.123 166.896 524.579 167.1 525.187 167.1Z" fill="#8697A8" fill-opacity="0.85"/>
<path d="M22.7448 210.8C22.6648 210.8 22.5968 210.776 22.5408 210.728C22.4928 210.672 22.4688 210.604 22.4688 210.524V203.804L20.4768 205.34C20.4128 205.388 20.3448 205.408 20.2728 205.4C20.2008 205.392 20.1408 205.356 20.0928 205.292L19.7808 204.896C19.7328 204.824 19.7128 204.752 19.7208 204.68C19.7368 204.608 19.7768 204.548 19.8408 204.5L22.4568 202.484C22.5128 202.444 22.5648 202.42 22.6128 202.412C22.6608 202.404 22.7128 202.4 22.7688 202.4H23.3808C23.4608 202.4 23.5248 202.428 23.5728 202.484C23.6208 202.532 23.6448 202.596 23.6448 202.676V210.524C23.6448 210.604 23.6208 210.672 23.5728 210.728C23.5248 210.776 23.4608 210.8 23.3808 210.8H22.7448ZM28.9696 210.92C28.4176 210.92 27.9496 210.836 27.5656 210.668C27.1896 210.492 26.8816 210.252 26.6416 209.948C26.4016 209.644 26.2256 209.296 26.1136 208.904C26.0096 208.512 25.9496 208.096 25.9336 207.656C25.9256 207.44 25.9176 207.212 25.9096 206.972C25.9096 206.732 25.9096 206.492 25.9096 206.252C25.9176 206.004 25.9256 205.768 25.9336 205.544C25.9416 205.104 26.0016 204.688 26.1136 204.296C26.2336 203.896 26.4096 203.548 26.6416 203.252C26.8816 202.948 27.1936 202.712 27.5776 202.544C27.9616 202.368 28.4256 202.28 28.9696 202.28C29.5216 202.28 29.9856 202.368 30.3616 202.544C30.7456 202.712 31.0576 202.948 31.2976 203.252C31.5376 203.548 31.7136 203.896 31.8256 204.296C31.9456 204.688 32.0096 205.104 32.0176 205.544C32.0256 205.768 32.0296 206.004 32.0296 206.252C32.0376 206.492 32.0376 206.732 32.0296 206.972C32.0296 207.212 32.0256 207.44 32.0176 207.656C32.0096 208.096 31.9456 208.512 31.8256 208.904C31.7136 209.296 31.5376 209.644 31.2976 209.948C31.0656 210.252 30.7576 210.492 30.3736 210.668C29.9976 210.836 29.5296 210.92 28.9696 210.92ZM28.9696 209.9C29.5936 209.9 30.0536 209.696 30.3496 209.288C30.6536 208.872 30.8096 208.308 30.8176 207.596C30.8336 207.364 30.8416 207.14 30.8416 206.924C30.8416 206.7 30.8416 206.48 30.8416 206.264C30.8416 206.04 30.8336 205.82 30.8176 205.604C30.8096 204.908 30.6536 204.352 30.3496 203.936C30.0536 203.512 29.5936 203.3 28.9696 203.3C28.3536 203.3 27.8936 203.512 27.5896 203.936C27.2936 204.352 27.1376 204.908 27.1216 205.604C27.1216 205.82 27.1176 206.04 27.1096 206.264C27.1096 206.48 27.1096 206.7 27.1096 206.924C27.1176 207.14 27.1216 207.364 27.1216 207.596C27.1376 208.308 27.2976 208.872 27.6016 209.288C27.9056 209.696 28.3616 209.9 28.9696 209.9ZM37.1868 210.92C36.6348 210.92 36.1668 210.836 35.7828 210.668C35.4068 210.492 35.0988 210.252 34.8588 209.948C34.6188 209.644 34.4428 209.296 34.3308 208.904C34.2268 208.512 34.1668 208.096 34.1508 207.656C34.1428 207.44 34.1348 207.212 34.1268 206.972C34.1268 206.732 34.1268 206.492 34.1268 206.252C34.1348 206.004 34.1428 205.768 34.1508 205.544C34.1588 205.104 34.2188 204.688 34.3308 204.296C34.4508 203.896 34.6268 203.548 34.8588 203.252C35.0988 202.948 35.4108 202.712 35.7948 202.544C36.1788 202.368 36.6428 202.28 37.1868 202.28C37.7388 202.28 38.2028 202.368 38.5788 202.544C38.9628 202.712 39.2748 202.948 39.5148 203.252C39.7548 203.548 39.9308 203.896 40.0428 204.296C40.1628 204.688 40.2268 205.104 40.2348 205.544C40.2428 205.768 40.2468 206.004 40.2468 206.252C40.2548 206.492 40.2548 206.732 40.2468 206.972C40.2468 207.212 40.2428 207.44 40.2348 207.656C40.2268 208.096 40.1628 208.512 40.0428 208.904C39.9308 209.296 39.7548 209.644 39.5148 209.948C39.2828 210.252 38.9748 210.492 38.5908 210.668C38.2148 210.836 37.7468 210.92 37.1868 210.92ZM37.1868 209.9C37.8108 209.9 38.2708 209.696 38.5668 209.288C38.8708 208.872 39.0268 208.308 39.0348 207.596C39.0508 207.364 39.0588 207.14 39.0588 206.924C39.0588 206.7 39.0588 206.48 39.0588 206.264C39.0588 206.04 39.0508 205.82 39.0348 205.604C39.0268 204.908 38.8708 204.352 38.5668 203.936C38.2708 203.512 37.8108 203.3 37.1868 203.3C36.5708 203.3 36.1108 203.512 35.8068 203.936C35.5108 204.352 35.3548 204.908 35.3388 205.604C35.3388 205.82 35.3348 206.04 35.3268 206.264C35.3268 206.48 35.3268 206.7 35.3268 206.924C35.3348 207.14 35.3388 207.364 35.3388 207.596C35.3548 208.308 35.5148 208.872 35.8188 209.288C36.1228 209.696 36.5788 209.9 37.1868 209.9Z" fill="#8697A8" fill-opacity="0.85"/>
<line x1="49" y1="206.3" x2="537" y2="206.3" stroke="#ECECEC"/>
<path d="M29.1618 253.72C28.5298 253.72 27.9938 253.612 27.5538 253.396C27.1218 253.172 26.7898 252.884 26.5578 252.532C26.3338 252.18 26.2138 251.808 26.1978 251.416C26.1898 251.344 26.2098 251.288 26.2578 251.248C26.3058 251.208 26.3658 251.188 26.4378 251.188H27.0858C27.1578 251.188 27.2218 251.204 27.2778 251.236C27.3338 251.268 27.3778 251.336 27.4098 251.44C27.4898 251.736 27.6178 251.98 27.7938 252.172C27.9778 252.356 28.1858 252.492 28.4178 252.58C28.6578 252.66 28.9058 252.7 29.1618 252.7C29.5058 252.7 29.8178 252.632 30.0978 252.496C30.3858 252.352 30.6138 252.144 30.7818 251.872C30.9498 251.592 31.0338 251.256 31.0338 250.864C31.0338 250.504 30.9498 250.196 30.7818 249.94C30.6218 249.676 30.3978 249.476 30.1098 249.34C29.8298 249.196 29.5138 249.124 29.1618 249.124C28.8978 249.124 28.6818 249.156 28.5138 249.22C28.3458 249.284 28.2018 249.36 28.0818 249.448C27.9698 249.536 27.8658 249.612 27.7698 249.676C27.6818 249.74 27.5818 249.772 27.4698 249.772H26.8458C26.7738 249.772 26.7098 249.748 26.6538 249.7C26.5978 249.644 26.5738 249.58 26.5818 249.508L26.9658 245.5C26.9738 245.404 27.0018 245.332 27.0498 245.284C27.1058 245.228 27.1778 245.2 27.2658 245.2H31.4538C31.5338 245.2 31.5978 245.228 31.6458 245.284C31.7018 245.332 31.7298 245.396 31.7298 245.476V245.944C31.7298 246.032 31.7018 246.1 31.6458 246.148C31.5978 246.196 31.5338 246.22 31.4538 246.22H27.9978L27.7698 248.584C27.8818 248.512 28.0618 248.428 28.3098 248.332C28.5578 248.228 28.8978 248.176 29.3298 248.176C29.7218 248.176 30.0898 248.236 30.4338 248.356C30.7858 248.476 31.0978 248.652 31.3698 248.884C31.6418 249.116 31.8538 249.4 32.0058 249.736C32.1578 250.064 32.2338 250.444 32.2338 250.876C32.2338 251.484 32.0978 252 31.8258 252.424C31.5618 252.848 31.1978 253.172 30.7338 253.396C30.2778 253.612 29.7538 253.72 29.1618 253.72ZM37.1868 253.72C36.6348 253.72 36.1668 253.636 35.7828 253.468C35.4068 253.292 35.0988 253.052 34.8588 252.748C34.6188 252.444 34.4428 252.096 34.3308 251.704C34.2268 251.312 34.1668 250.896 34.1508 250.456C34.1428 250.24 34.1348 250.012 34.1268 249.772C34.1268 249.532 34.1268 249.292 34.1268 249.052C34.1348 248.804 34.1428 248.568 34.1508 248.344C34.1588 247.904 34.2188 247.488 34.3308 247.096C34.4508 246.696 34.6268 246.348 34.8588 246.052C35.0988 245.748 35.4108 245.512 35.7948 245.344C36.1788 245.168 36.6428 245.08 37.1868 245.08C37.7388 245.08 38.2028 245.168 38.5788 245.344C38.9628 245.512 39.2748 245.748 39.5148 246.052C39.7548 246.348 39.9308 246.696 40.0428 247.096C40.1628 247.488 40.2268 247.904 40.2348 248.344C40.2428 248.568 40.2468 248.804 40.2468 249.052C40.2548 249.292 40.2548 249.532 40.2468 249.772C40.2468 250.012 40.2428 250.24 40.2348 250.456C40.2268 250.896 40.1628 251.312 40.0428 251.704C39.9308 252.096 39.7548 252.444 39.5148 252.748C39.2828 253.052 38.9748 253.292 38.5908 253.468C38.2148 253.636 37.7468 253.72 37.1868 253.72ZM37.1868 252.7C37.8108 252.7 38.2708 252.496 38.5668 252.088C38.8708 251.672 39.0268 251.108 39.0348 250.396C39.0508 250.164 39.0588 249.94 39.0588 249.724C39.0588 249.5 39.0588 249.28 39.0588 249.064C39.0588 248.84 39.0508 248.62 39.0348 248.404C39.0268 247.708 38.8708 247.152 38.5668 246.736C38.2708 246.312 37.8108 246.1 37.1868 246.1C36.5708 246.1 36.1108 246.312 35.8068 246.736C35.5108 247.152 35.3548 247.708 35.3388 248.404C35.3388 248.62 35.3348 248.84 35.3268 249.064C35.3268 249.28 35.3268 249.5 35.3268 249.724C35.3348 249.94 35.3388 250.164 35.3388 250.396C35.3548 251.108 35.5148 251.672 35.8188 252.088C36.1228 252.496 36.5788 252.7 37.1868 252.7Z" fill="#8697A8" fill-opacity="0.85"/>
<line x1="49" y1="249.1" x2="537" y2="249.1" stroke="#ECECEC"/>
<path d="M37.1868 295.62C36.6348 295.62 36.1668 295.536 35.7828 295.368C35.4068 295.192 35.0988 294.952 34.8588 294.648C34.6188 294.344 34.4428 293.996 34.3308 293.604C34.2268 293.212 34.1668 292.796 34.1508 292.356C34.1428 292.14 34.1348 291.912 34.1268 291.672C34.1268 291.432 34.1268 291.192 34.1268 290.952C34.1348 290.704 34.1428 290.468 34.1508 290.244C34.1588 289.804 34.2188 289.388 34.3308 288.996C34.4508 288.596 34.6268 288.248 34.8588 287.952C35.0988 287.648 35.4108 287.412 35.7948 287.244C36.1788 287.068 36.6428 286.98 37.1868 286.98C37.7388 286.98 38.2028 287.068 38.5788 287.244C38.9628 287.412 39.2748 287.648 39.5148 287.952C39.7548 288.248 39.9308 288.596 40.0428 288.996C40.1628 289.388 40.2268 289.804 40.2348 290.244C40.2428 290.468 40.2468 290.704 40.2468 290.952C40.2548 291.192 40.2548 291.432 40.2468 291.672C40.2468 291.912 40.2428 292.14 40.2348 292.356C40.2268 292.796 40.1628 293.212 40.0428 293.604C39.9308 293.996 39.7548 294.344 39.5148 294.648C39.2828 294.952 38.9748 295.192 38.5908 295.368C38.2148 295.536 37.7468 295.62 37.1868 295.62ZM37.1868 294.6C37.8108 294.6 38.2708 294.396 38.5668 293.988C38.8708 293.572 39.0268 293.008 39.0348 292.296C39.0508 292.064 39.0588 291.84 39.0588 291.624C39.0588 291.4 39.0588 291.18 39.0588 290.964C39.0588 290.74 39.0508 290.52 39.0348 290.304C39.0268 289.608 38.8708 289.052 38.5668 288.636C38.2708 288.212 37.8108 288 37.1868 288C36.5708 288 36.1108 288.212 35.8068 288.636C35.5108 289.052 35.3548 289.608 35.3388 290.304C35.3388 290.52 35.3348 290.74 35.3268 290.964C35.3268 291.18 35.3268 291.4 35.3268 291.624C35.3348 291.84 35.3388 292.064 35.3388 292.296C35.3548 293.008 35.5148 293.572 35.8188 293.988C36.1228 294.396 36.5788 294.6 37.1868 294.6Z" fill="#8697A8" fill-opacity="0.85"/>
<line x1="49" y1="291" x2="537" y2="291" stroke="#ECECEC"/>
<rect width="25" height="215" transform="translate(421.152 79)" fill="black" fill-opacity="0.1"/>
<path d="M421.152 79H453.152V290C453.152 292.209 451.361 294 449.152 294H425.152C422.942 294 421.152 292.209 421.152 290V79Z" fill="#2161D5"/>
<rect x="490.05" y="79" width="25" height="215" rx="4" fill="#8697A8" fill-opacity="0.15"/>
<path d="M490.05 119H515.05V290C515.05 292.209 513.259 294 511.05 294H494.05C491.841 294 490.05 292.209 490.05 290V119Z" fill="#2161D5"/>
<rect x="76.7922" y="80" width="25" height="215" rx="4" fill="#8697A8" fill-opacity="0.15"/>
<path d="M76.7922 140H101.792V291C101.792 293.209 100.001 295 97.7922 295H80.7922C78.5831 295 76.7922 293.209 76.7922 291V140Z" fill="#2161D5"/>
<rect x="145.555" y="79" width="25" height="215" rx="4" fill="#8697A8" fill-opacity="0.15"/>
<path d="M145.555 199H170.555V290C170.555 292.209 168.764 294 166.555 294H149.555C147.346 294 145.555 292.209 145.555 290V199Z" fill="#2161D5"/>
<rect x="214.453" y="79" width="25" height="215" rx="4" fill="#8697A8" fill-opacity="0.15"/>
<path d="M214.453 249H239.453V290C239.453 292.209 237.663 294 235.453 294H218.453C216.244 294 214.453 292.209 214.453 290V249Z" fill="#2161D5"/>
<rect x="283.353" y="79" width="25" height="215" rx="4" fill="#8697A8" fill-opacity="0.15"/>
<path d="M283.353 229H308.353V290C308.353 292.209 306.562 294 304.353 294H287.353C285.144 294 283.353 292.209 283.353 290V229Z" fill="#2161D5"/>
<rect x="352.252" y="79" width="25" height="215" rx="4" fill="#8697A8" fill-opacity="0.15"/>
<path d="M352.252 179H377.252V290C377.252 292.209 375.461 294 373.252 294H356.252C354.043 294 352.252 292.209 352.252 290V179Z" fill="#2161D5"/>
</svg>
