<svg width="20" height="20" viewBox="0 0 20 20" fill="none" xmlns="http://www.w3.org/2000/svg">
<path d="M3.33329 2.5H16.6666C17.1087 2.5 17.5326 2.67559 17.8451 2.98816C18.1577 3.30072 18.3333 3.72464 18.3333 4.16667V9.16667C18.3333 11.3768 17.4553 13.4964 15.8925 15.0592C14.3297 16.622 12.2101 17.5 9.99996 17.5C8.90561 17.5 7.82198 17.2845 6.81093 16.8657C5.79988 16.4469 4.88122 15.833 4.1074 15.0592C2.5446 13.4964 1.66663 11.3768 1.66663 9.16667V4.16667C1.66663 3.72464 1.84222 3.30072 2.15478 2.98816C2.46734 2.67559 2.89127 2.5 3.33329 2.5V2.5Z" stroke="#6A7187" stroke-width="2" stroke-linecap="round" stroke-linejoin="round"/>
<path d="M6.66663 8.33325L9.99996 11.6666L13.3333 8.33325" stroke="#6A7187" stroke-width="2" stroke-linecap="round" stroke-linejoin="round"/>
</svg>
