<svg width="25" height="24" viewBox="0 0 25 24" fill="none" xmlns="http://www.w3.org/2000/svg">
<path d="M12.25 10C11.8544 10 11.4678 10.1173 11.1389 10.3371C10.81 10.5568 10.5536 10.8692 10.4022 11.2346C10.2509 11.6001 10.2113 12.0022 10.2884 12.3902C10.3656 12.7781 10.5561 13.1345 10.8358 13.4142C11.1155 13.6939 11.4719 13.8844 11.8598 13.9616C12.2478 14.0387 12.6499 13.9991 13.0154 13.8478C13.3808 13.6964 13.6932 13.44 13.9129 13.1111C14.1327 12.7822 14.25 12.3956 14.25 12C14.25 11.4696 14.0393 10.9609 13.6642 10.5858C13.2891 10.2107 12.7804 10 12.25 10ZM5.25 10C4.85444 10 4.46776 10.1173 4.13886 10.3371C3.80996 10.5568 3.55362 10.8692 3.40224 11.2346C3.25087 11.6001 3.21126 12.0022 3.28843 12.3902C3.3656 12.7781 3.55608 13.1345 3.83579 13.4142C4.11549 13.6939 4.47186 13.8844 4.85982 13.9616C5.24778 14.0387 5.64992 13.9991 6.01537 13.8478C6.38082 13.6964 6.69318 13.44 6.91294 13.1111C7.1327 12.7822 7.25 12.3956 7.25 12C7.25 11.4696 7.03929 10.9609 6.66421 10.5858C6.28914 10.2107 5.78043 10 5.25 10ZM19.25 10C18.8544 10 18.4678 10.1173 18.1389 10.3371C17.81 10.5568 17.5536 10.8692 17.4022 11.2346C17.2509 11.6001 17.2113 12.0022 17.2884 12.3902C17.3656 12.7781 17.5561 13.1345 17.8358 13.4142C18.1155 13.6939 18.4719 13.8844 18.8598 13.9616C19.2478 14.0387 19.6499 13.9991 20.0154 13.8478C20.3808 13.6964 20.6932 13.44 20.9129 13.1111C21.1327 12.7822 21.25 12.3956 21.25 12C21.25 11.4696 21.0393 10.9609 20.6642 10.5858C20.2891 10.2107 19.7804 10 19.25 10Z" fill="#4F5665"/>
</svg>
