<svg width="25" height="24" viewBox="0 0 25 24" fill="none" xmlns="http://www.w3.org/2000/svg">
<path d="M21.6216 12.7028C21.4772 12.5835 21.3023 12.5071 21.1166 12.4823C20.931 12.4576 20.7421 12.4855 20.5716 12.5628C19.5142 13.0467 18.3645 13.2957 17.2016 13.2928C15.0504 13.2902 12.9876 12.4372 11.4627 10.9199C9.93789 9.40255 9.07478 7.3439 9.06158 5.19279C9.06614 4.51862 9.15005 3.84733 9.31158 3.19279C9.34586 3.01833 9.333 2.83788 9.27434 2.67004C9.21567 2.5022 9.11332 2.35304 8.97782 2.23792C8.84233 2.1228 8.67859 2.04589 8.50348 2.0151C8.32837 1.98432 8.14821 2.00078 7.98158 2.06279C6.41391 2.7677 5.05115 3.85955 4.02134 5.23577C2.99153 6.61199 2.32846 8.22741 2.09443 9.93027C1.8604 11.6331 2.06309 13.3675 2.68345 14.9706C3.30381 16.5736 4.32149 17.9926 5.64088 19.0943C6.96027 20.1959 8.53806 20.9442 10.226 21.2686C11.914 21.593 13.6567 21.4831 15.2905 20.949C16.9243 20.415 18.3955 19.4743 19.566 18.2155C20.7364 16.9567 21.5676 15.4211 21.9816 13.7528C22.032 13.5618 22.0247 13.3601 21.9606 13.1733C21.8966 12.9864 21.7786 12.8227 21.6216 12.7028ZM12.1216 19.3928C10.4433 19.3809 8.80978 18.8507 7.44457 17.8745C6.07936 16.8984 5.04925 15.5241 4.49526 13.9399C3.94128 12.3557 3.89052 10.639 4.34992 9.02479C4.80932 7.41061 5.75644 5.97789 7.06158 4.92279V5.19279C7.06423 7.88127 8.1334 10.4589 10.0344 12.3599C11.9355 14.261 14.5131 15.3301 17.2016 15.3328C17.9075 15.3354 18.6116 15.2616 19.3016 15.1128C18.6115 16.4183 17.578 17.5106 16.3127 18.2719C15.0474 19.0332 13.5983 19.4346 12.1216 19.4328V19.3928Z" fill="#0B132A"/>
</svg>
